G04 #@! TF.GenerationSoftware,KiCad,Pcbnew,5.1.10*
G04 #@! TF.CreationDate,2021-08-08T14:06:15+01:00*
G04 #@! TF.ProjectId,JBC controller,4a424320-636f-46e7-9472-6f6c6c65722e,rev?*
G04 #@! TF.SameCoordinates,Original*
G04 #@! TF.FileFunction,Soldermask,Top*
G04 #@! TF.FilePolarity,Negative*
%FSLAX46Y46*%
G04 Gerber Fmt 4.6, Leading zero omitted, Abs format (unit mm)*
G04 Created by KiCad (PCBNEW 5.1.10) date 2021-08-08 14:06:15*
%MOMM*%
%LPD*%
G01*
G04 APERTURE LIST*
%ADD10C,0.100000*%
%ADD11C,2.600000*%
%ADD12C,1.500000*%
%ADD13O,1.800000X1.800000*%
%ADD14C,5.700000*%
%ADD15C,2.200000*%
%ADD16C,1.850000*%
%ADD17C,4.100000*%
%ADD18C,3.600000*%
G04 APERTURE END LIST*
D10*
G36*
X116000000Y-102000000D02*
G01*
X114000000Y-102000000D01*
X114000000Y-97000000D01*
X116000000Y-97000000D01*
X116000000Y-102000000D01*
G37*
X116000000Y-102000000D02*
X114000000Y-102000000D01*
X114000000Y-97000000D01*
X116000000Y-97000000D01*
X116000000Y-102000000D01*
G36*
X105000000Y-102000000D02*
G01*
X103000000Y-102000000D01*
X103000000Y-97000000D01*
X105000000Y-97000000D01*
X105000000Y-102000000D01*
G37*
X105000000Y-102000000D02*
X103000000Y-102000000D01*
X103000000Y-97000000D01*
X105000000Y-97000000D01*
X105000000Y-102000000D01*
G36*
X98400000Y-91600000D02*
G01*
X96588380Y-91600040D01*
X96625000Y-102000000D01*
X94000000Y-102000000D01*
X93950000Y-87800000D01*
X98400000Y-87800000D01*
X98400000Y-91600000D01*
G37*
X98400000Y-91600000D02*
X96588380Y-91600040D01*
X96625000Y-102000000D01*
X94000000Y-102000000D01*
X93950000Y-87800000D01*
X98400000Y-87800000D01*
X98400000Y-91600000D01*
D11*
X122900000Y-112900000D03*
X107300000Y-89600000D03*
X113000000Y-104500000D03*
X100300000Y-111200000D03*
X90400000Y-81500000D03*
X100300000Y-107600000D03*
D12*
X98000000Y-122800000D03*
X95500000Y-122800000D03*
X93000000Y-122800000D03*
X98000000Y-119500000D03*
X95500000Y-119500000D03*
G36*
G01*
X92250000Y-120200000D02*
X92250000Y-118800000D01*
G75*
G02*
X92300000Y-118750000I50000J0D01*
G01*
X93700000Y-118750000D01*
G75*
G02*
X93750000Y-118800000I0J-50000D01*
G01*
X93750000Y-120200000D01*
G75*
G02*
X93700000Y-120250000I-50000J0D01*
G01*
X92300000Y-120250000D01*
G75*
G02*
X92250000Y-120200000I0J50000D01*
G01*
G37*
G36*
G01*
X107920832Y-103550000D02*
X108879168Y-103550000D01*
G75*
G02*
X109150000Y-103820832I0J-270832D01*
G01*
X109150000Y-104579168D01*
G75*
G02*
X108879168Y-104850000I-270832J0D01*
G01*
X107920832Y-104850000D01*
G75*
G02*
X107650000Y-104579168I0J270832D01*
G01*
X107650000Y-103820832D01*
G75*
G02*
X107920832Y-103550000I270832J0D01*
G01*
G37*
G36*
G01*
X107920832Y-105550000D02*
X108879168Y-105550000D01*
G75*
G02*
X109150000Y-105820832I0J-270832D01*
G01*
X109150000Y-106579168D01*
G75*
G02*
X108879168Y-106850000I-270832J0D01*
G01*
X107920832Y-106850000D01*
G75*
G02*
X107650000Y-106579168I0J270832D01*
G01*
X107650000Y-105820832D01*
G75*
G02*
X107920832Y-105550000I270832J0D01*
G01*
G37*
G36*
G01*
X87750000Y-108500000D02*
X86050000Y-108500000D01*
G75*
G02*
X86000000Y-108450000I0J50000D01*
G01*
X86000000Y-106750000D01*
G75*
G02*
X86050000Y-106700000I50000J0D01*
G01*
X87750000Y-106700000D01*
G75*
G02*
X87800000Y-106750000I0J-50000D01*
G01*
X87800000Y-108450000D01*
G75*
G02*
X87750000Y-108500000I-50000J0D01*
G01*
G37*
D13*
X89440000Y-107600000D03*
X91980000Y-107600000D03*
X94520000Y-107600000D03*
D14*
X87000000Y-78000000D03*
X149000000Y-78000000D03*
X149000000Y-120000000D03*
X87000000Y-120000000D03*
G36*
G01*
X136700000Y-104150000D02*
X136450000Y-104150000D01*
G75*
G02*
X136325000Y-104025000I0J125000D01*
G01*
X136325000Y-102700000D01*
G75*
G02*
X136450000Y-102575000I125000J0D01*
G01*
X136700000Y-102575000D01*
G75*
G02*
X136825000Y-102700000I0J-125000D01*
G01*
X136825000Y-104025000D01*
G75*
G02*
X136700000Y-104150000I-125000J0D01*
G01*
G37*
G36*
G01*
X137350000Y-104150000D02*
X137100000Y-104150000D01*
G75*
G02*
X136975000Y-104025000I0J125000D01*
G01*
X136975000Y-102700000D01*
G75*
G02*
X137100000Y-102575000I125000J0D01*
G01*
X137350000Y-102575000D01*
G75*
G02*
X137475000Y-102700000I0J-125000D01*
G01*
X137475000Y-104025000D01*
G75*
G02*
X137350000Y-104150000I-125000J0D01*
G01*
G37*
G36*
G01*
X138000000Y-104150000D02*
X137750000Y-104150000D01*
G75*
G02*
X137625000Y-104025000I0J125000D01*
G01*
X137625000Y-102700000D01*
G75*
G02*
X137750000Y-102575000I125000J0D01*
G01*
X138000000Y-102575000D01*
G75*
G02*
X138125000Y-102700000I0J-125000D01*
G01*
X138125000Y-104025000D01*
G75*
G02*
X138000000Y-104150000I-125000J0D01*
G01*
G37*
G36*
G01*
X138650000Y-104150000D02*
X138400000Y-104150000D01*
G75*
G02*
X138275000Y-104025000I0J125000D01*
G01*
X138275000Y-102700000D01*
G75*
G02*
X138400000Y-102575000I125000J0D01*
G01*
X138650000Y-102575000D01*
G75*
G02*
X138775000Y-102700000I0J-125000D01*
G01*
X138775000Y-104025000D01*
G75*
G02*
X138650000Y-104150000I-125000J0D01*
G01*
G37*
G36*
G01*
X139300000Y-104150000D02*
X139050000Y-104150000D01*
G75*
G02*
X138925000Y-104025000I0J125000D01*
G01*
X138925000Y-102700000D01*
G75*
G02*
X139050000Y-102575000I125000J0D01*
G01*
X139300000Y-102575000D01*
G75*
G02*
X139425000Y-102700000I0J-125000D01*
G01*
X139425000Y-104025000D01*
G75*
G02*
X139300000Y-104150000I-125000J0D01*
G01*
G37*
G36*
G01*
X139950000Y-104150000D02*
X139700000Y-104150000D01*
G75*
G02*
X139575000Y-104025000I0J125000D01*
G01*
X139575000Y-102700000D01*
G75*
G02*
X139700000Y-102575000I125000J0D01*
G01*
X139950000Y-102575000D01*
G75*
G02*
X140075000Y-102700000I0J-125000D01*
G01*
X140075000Y-104025000D01*
G75*
G02*
X139950000Y-104150000I-125000J0D01*
G01*
G37*
G36*
G01*
X140600000Y-104150000D02*
X140350000Y-104150000D01*
G75*
G02*
X140225000Y-104025000I0J125000D01*
G01*
X140225000Y-102700000D01*
G75*
G02*
X140350000Y-102575000I125000J0D01*
G01*
X140600000Y-102575000D01*
G75*
G02*
X140725000Y-102700000I0J-125000D01*
G01*
X140725000Y-104025000D01*
G75*
G02*
X140600000Y-104150000I-125000J0D01*
G01*
G37*
G36*
G01*
X141250000Y-104150000D02*
X141000000Y-104150000D01*
G75*
G02*
X140875000Y-104025000I0J125000D01*
G01*
X140875000Y-102700000D01*
G75*
G02*
X141000000Y-102575000I125000J0D01*
G01*
X141250000Y-102575000D01*
G75*
G02*
X141375000Y-102700000I0J-125000D01*
G01*
X141375000Y-104025000D01*
G75*
G02*
X141250000Y-104150000I-125000J0D01*
G01*
G37*
G36*
G01*
X141900000Y-104150000D02*
X141650000Y-104150000D01*
G75*
G02*
X141525000Y-104025000I0J125000D01*
G01*
X141525000Y-102700000D01*
G75*
G02*
X141650000Y-102575000I125000J0D01*
G01*
X141900000Y-102575000D01*
G75*
G02*
X142025000Y-102700000I0J-125000D01*
G01*
X142025000Y-104025000D01*
G75*
G02*
X141900000Y-104150000I-125000J0D01*
G01*
G37*
G36*
G01*
X142550000Y-104150000D02*
X142300000Y-104150000D01*
G75*
G02*
X142175000Y-104025000I0J125000D01*
G01*
X142175000Y-102700000D01*
G75*
G02*
X142300000Y-102575000I125000J0D01*
G01*
X142550000Y-102575000D01*
G75*
G02*
X142675000Y-102700000I0J-125000D01*
G01*
X142675000Y-104025000D01*
G75*
G02*
X142550000Y-104150000I-125000J0D01*
G01*
G37*
G36*
G01*
X142550000Y-98425000D02*
X142300000Y-98425000D01*
G75*
G02*
X142175000Y-98300000I0J125000D01*
G01*
X142175000Y-96975000D01*
G75*
G02*
X142300000Y-96850000I125000J0D01*
G01*
X142550000Y-96850000D01*
G75*
G02*
X142675000Y-96975000I0J-125000D01*
G01*
X142675000Y-98300000D01*
G75*
G02*
X142550000Y-98425000I-125000J0D01*
G01*
G37*
G36*
G01*
X141900000Y-98425000D02*
X141650000Y-98425000D01*
G75*
G02*
X141525000Y-98300000I0J125000D01*
G01*
X141525000Y-96975000D01*
G75*
G02*
X141650000Y-96850000I125000J0D01*
G01*
X141900000Y-96850000D01*
G75*
G02*
X142025000Y-96975000I0J-125000D01*
G01*
X142025000Y-98300000D01*
G75*
G02*
X141900000Y-98425000I-125000J0D01*
G01*
G37*
G36*
G01*
X141250000Y-98425000D02*
X141000000Y-98425000D01*
G75*
G02*
X140875000Y-98300000I0J125000D01*
G01*
X140875000Y-96975000D01*
G75*
G02*
X141000000Y-96850000I125000J0D01*
G01*
X141250000Y-96850000D01*
G75*
G02*
X141375000Y-96975000I0J-125000D01*
G01*
X141375000Y-98300000D01*
G75*
G02*
X141250000Y-98425000I-125000J0D01*
G01*
G37*
G36*
G01*
X140600000Y-98425000D02*
X140350000Y-98425000D01*
G75*
G02*
X140225000Y-98300000I0J125000D01*
G01*
X140225000Y-96975000D01*
G75*
G02*
X140350000Y-96850000I125000J0D01*
G01*
X140600000Y-96850000D01*
G75*
G02*
X140725000Y-96975000I0J-125000D01*
G01*
X140725000Y-98300000D01*
G75*
G02*
X140600000Y-98425000I-125000J0D01*
G01*
G37*
G36*
G01*
X139950000Y-98425000D02*
X139700000Y-98425000D01*
G75*
G02*
X139575000Y-98300000I0J125000D01*
G01*
X139575000Y-96975000D01*
G75*
G02*
X139700000Y-96850000I125000J0D01*
G01*
X139950000Y-96850000D01*
G75*
G02*
X140075000Y-96975000I0J-125000D01*
G01*
X140075000Y-98300000D01*
G75*
G02*
X139950000Y-98425000I-125000J0D01*
G01*
G37*
G36*
G01*
X139300000Y-98425000D02*
X139050000Y-98425000D01*
G75*
G02*
X138925000Y-98300000I0J125000D01*
G01*
X138925000Y-96975000D01*
G75*
G02*
X139050000Y-96850000I125000J0D01*
G01*
X139300000Y-96850000D01*
G75*
G02*
X139425000Y-96975000I0J-125000D01*
G01*
X139425000Y-98300000D01*
G75*
G02*
X139300000Y-98425000I-125000J0D01*
G01*
G37*
G36*
G01*
X138650000Y-98425000D02*
X138400000Y-98425000D01*
G75*
G02*
X138275000Y-98300000I0J125000D01*
G01*
X138275000Y-96975000D01*
G75*
G02*
X138400000Y-96850000I125000J0D01*
G01*
X138650000Y-96850000D01*
G75*
G02*
X138775000Y-96975000I0J-125000D01*
G01*
X138775000Y-98300000D01*
G75*
G02*
X138650000Y-98425000I-125000J0D01*
G01*
G37*
G36*
G01*
X138000000Y-98425000D02*
X137750000Y-98425000D01*
G75*
G02*
X137625000Y-98300000I0J125000D01*
G01*
X137625000Y-96975000D01*
G75*
G02*
X137750000Y-96850000I125000J0D01*
G01*
X138000000Y-96850000D01*
G75*
G02*
X138125000Y-96975000I0J-125000D01*
G01*
X138125000Y-98300000D01*
G75*
G02*
X138000000Y-98425000I-125000J0D01*
G01*
G37*
G36*
G01*
X137350000Y-98425000D02*
X137100000Y-98425000D01*
G75*
G02*
X136975000Y-98300000I0J125000D01*
G01*
X136975000Y-96975000D01*
G75*
G02*
X137100000Y-96850000I125000J0D01*
G01*
X137350000Y-96850000D01*
G75*
G02*
X137475000Y-96975000I0J-125000D01*
G01*
X137475000Y-98300000D01*
G75*
G02*
X137350000Y-98425000I-125000J0D01*
G01*
G37*
G36*
G01*
X136700000Y-98425000D02*
X136450000Y-98425000D01*
G75*
G02*
X136325000Y-98300000I0J125000D01*
G01*
X136325000Y-96975000D01*
G75*
G02*
X136450000Y-96850000I125000J0D01*
G01*
X136700000Y-96850000D01*
G75*
G02*
X136825000Y-96975000I0J-125000D01*
G01*
X136825000Y-98300000D01*
G75*
G02*
X136700000Y-98425000I-125000J0D01*
G01*
G37*
D15*
X120250000Y-118510000D03*
D16*
X119000000Y-121000000D03*
X114500000Y-121000000D03*
D15*
X113240000Y-118510000D03*
G36*
G01*
X111450000Y-97370000D02*
X111450000Y-97020000D01*
G75*
G02*
X111625000Y-96845000I175000J0D01*
G01*
X113125000Y-96845000D01*
G75*
G02*
X113300000Y-97020000I0J-175000D01*
G01*
X113300000Y-97370000D01*
G75*
G02*
X113125000Y-97545000I-175000J0D01*
G01*
X111625000Y-97545000D01*
G75*
G02*
X111450000Y-97370000I0J175000D01*
G01*
G37*
G36*
G01*
X111450000Y-98640000D02*
X111450000Y-98290000D01*
G75*
G02*
X111625000Y-98115000I175000J0D01*
G01*
X113125000Y-98115000D01*
G75*
G02*
X113300000Y-98290000I0J-175000D01*
G01*
X113300000Y-98640000D01*
G75*
G02*
X113125000Y-98815000I-175000J0D01*
G01*
X111625000Y-98815000D01*
G75*
G02*
X111450000Y-98640000I0J175000D01*
G01*
G37*
G36*
G01*
X111450000Y-99910000D02*
X111450000Y-99560000D01*
G75*
G02*
X111625000Y-99385000I175000J0D01*
G01*
X113125000Y-99385000D01*
G75*
G02*
X113300000Y-99560000I0J-175000D01*
G01*
X113300000Y-99910000D01*
G75*
G02*
X113125000Y-100085000I-175000J0D01*
G01*
X111625000Y-100085000D01*
G75*
G02*
X111450000Y-99910000I0J175000D01*
G01*
G37*
G36*
G01*
X111450000Y-101180000D02*
X111450000Y-100830000D01*
G75*
G02*
X111625000Y-100655000I175000J0D01*
G01*
X113125000Y-100655000D01*
G75*
G02*
X113300000Y-100830000I0J-175000D01*
G01*
X113300000Y-101180000D01*
G75*
G02*
X113125000Y-101355000I-175000J0D01*
G01*
X111625000Y-101355000D01*
G75*
G02*
X111450000Y-101180000I0J175000D01*
G01*
G37*
G36*
G01*
X106300000Y-101180000D02*
X106300000Y-100830000D01*
G75*
G02*
X106475000Y-100655000I175000J0D01*
G01*
X107975000Y-100655000D01*
G75*
G02*
X108150000Y-100830000I0J-175000D01*
G01*
X108150000Y-101180000D01*
G75*
G02*
X107975000Y-101355000I-175000J0D01*
G01*
X106475000Y-101355000D01*
G75*
G02*
X106300000Y-101180000I0J175000D01*
G01*
G37*
G36*
G01*
X106300000Y-99910000D02*
X106300000Y-99560000D01*
G75*
G02*
X106475000Y-99385000I175000J0D01*
G01*
X107975000Y-99385000D01*
G75*
G02*
X108150000Y-99560000I0J-175000D01*
G01*
X108150000Y-99910000D01*
G75*
G02*
X107975000Y-100085000I-175000J0D01*
G01*
X106475000Y-100085000D01*
G75*
G02*
X106300000Y-99910000I0J175000D01*
G01*
G37*
G36*
G01*
X106300000Y-98640000D02*
X106300000Y-98290000D01*
G75*
G02*
X106475000Y-98115000I175000J0D01*
G01*
X107975000Y-98115000D01*
G75*
G02*
X108150000Y-98290000I0J-175000D01*
G01*
X108150000Y-98640000D01*
G75*
G02*
X107975000Y-98815000I-175000J0D01*
G01*
X106475000Y-98815000D01*
G75*
G02*
X106300000Y-98640000I0J175000D01*
G01*
G37*
G36*
G01*
X106300000Y-97370000D02*
X106300000Y-97020000D01*
G75*
G02*
X106475000Y-96845000I175000J0D01*
G01*
X107975000Y-96845000D01*
G75*
G02*
X108150000Y-97020000I0J-175000D01*
G01*
X108150000Y-97370000D01*
G75*
G02*
X107975000Y-97545000I-175000J0D01*
G01*
X106475000Y-97545000D01*
G75*
G02*
X106300000Y-97370000I0J175000D01*
G01*
G37*
X142250000Y-118510000D03*
D16*
X141000000Y-121000000D03*
X136500000Y-121000000D03*
D15*
X135240000Y-118510000D03*
X131250000Y-118510000D03*
D16*
X130000000Y-121000000D03*
X125500000Y-121000000D03*
D15*
X124240000Y-118510000D03*
X109250000Y-118510000D03*
D16*
X108000000Y-121000000D03*
X103500000Y-121000000D03*
D15*
X102240000Y-118510000D03*
G36*
G01*
X89137500Y-84076276D02*
X89137500Y-85083724D01*
G75*
G02*
X88866224Y-85355000I-271276J0D01*
G01*
X88133776Y-85355000D01*
G75*
G02*
X87862500Y-85083724I0J271276D01*
G01*
X87862500Y-84076276D01*
G75*
G02*
X88133776Y-83805000I271276J0D01*
G01*
X88866224Y-83805000D01*
G75*
G02*
X89137500Y-84076276I0J-271276D01*
G01*
G37*
G36*
G01*
X87062500Y-84076276D02*
X87062500Y-85083724D01*
G75*
G02*
X86791224Y-85355000I-271276J0D01*
G01*
X86058776Y-85355000D01*
G75*
G02*
X85787500Y-85083724I0J271276D01*
G01*
X85787500Y-84076276D01*
G75*
G02*
X86058776Y-83805000I271276J0D01*
G01*
X86791224Y-83805000D01*
G75*
G02*
X87062500Y-84076276I0J-271276D01*
G01*
G37*
G36*
G01*
X140600000Y-106603724D02*
X140600000Y-105596276D01*
G75*
G02*
X140871276Y-105325000I271276J0D01*
G01*
X141603724Y-105325000D01*
G75*
G02*
X141875000Y-105596276I0J-271276D01*
G01*
X141875000Y-106603724D01*
G75*
G02*
X141603724Y-106875000I-271276J0D01*
G01*
X140871276Y-106875000D01*
G75*
G02*
X140600000Y-106603724I0J271276D01*
G01*
G37*
G36*
G01*
X138525000Y-106603724D02*
X138525000Y-105596276D01*
G75*
G02*
X138796276Y-105325000I271276J0D01*
G01*
X139528724Y-105325000D01*
G75*
G02*
X139800000Y-105596276I0J-271276D01*
G01*
X139800000Y-106603724D01*
G75*
G02*
X139528724Y-106875000I-271276J0D01*
G01*
X138796276Y-106875000D01*
G75*
G02*
X138525000Y-106603724I0J271276D01*
G01*
G37*
G36*
G01*
X139900000Y-94496276D02*
X139900000Y-95503724D01*
G75*
G02*
X139628724Y-95775000I-271276J0D01*
G01*
X138896276Y-95775000D01*
G75*
G02*
X138625000Y-95503724I0J271276D01*
G01*
X138625000Y-94496276D01*
G75*
G02*
X138896276Y-94225000I271276J0D01*
G01*
X139628724Y-94225000D01*
G75*
G02*
X139900000Y-94496276I0J-271276D01*
G01*
G37*
G36*
G01*
X141975000Y-94496276D02*
X141975000Y-95503724D01*
G75*
G02*
X141703724Y-95775000I-271276J0D01*
G01*
X140971276Y-95775000D01*
G75*
G02*
X140700000Y-95503724I0J271276D01*
G01*
X140700000Y-94496276D01*
G75*
G02*
X140971276Y-94225000I271276J0D01*
G01*
X141703724Y-94225000D01*
G75*
G02*
X141975000Y-94496276I0J-271276D01*
G01*
G37*
G36*
G01*
X104162500Y-92896276D02*
X104162500Y-93903724D01*
G75*
G02*
X103891224Y-94175000I-271276J0D01*
G01*
X103158776Y-94175000D01*
G75*
G02*
X102887500Y-93903724I0J271276D01*
G01*
X102887500Y-92896276D01*
G75*
G02*
X103158776Y-92625000I271276J0D01*
G01*
X103891224Y-92625000D01*
G75*
G02*
X104162500Y-92896276I0J-271276D01*
G01*
G37*
G36*
G01*
X106237500Y-92896276D02*
X106237500Y-93903724D01*
G75*
G02*
X105966224Y-94175000I-271276J0D01*
G01*
X105233776Y-94175000D01*
G75*
G02*
X104962500Y-93903724I0J271276D01*
G01*
X104962500Y-92896276D01*
G75*
G02*
X105233776Y-92625000I271276J0D01*
G01*
X105966224Y-92625000D01*
G75*
G02*
X106237500Y-92896276I0J-271276D01*
G01*
G37*
G36*
G01*
X121975000Y-109596276D02*
X121975000Y-110603724D01*
G75*
G02*
X121703724Y-110875000I-271276J0D01*
G01*
X120971276Y-110875000D01*
G75*
G02*
X120700000Y-110603724I0J271276D01*
G01*
X120700000Y-109596276D01*
G75*
G02*
X120971276Y-109325000I271276J0D01*
G01*
X121703724Y-109325000D01*
G75*
G02*
X121975000Y-109596276I0J-271276D01*
G01*
G37*
G36*
G01*
X119900000Y-109596276D02*
X119900000Y-110603724D01*
G75*
G02*
X119628724Y-110875000I-271276J0D01*
G01*
X118896276Y-110875000D01*
G75*
G02*
X118625000Y-110603724I0J271276D01*
G01*
X118625000Y-109596276D01*
G75*
G02*
X118896276Y-109325000I271276J0D01*
G01*
X119628724Y-109325000D01*
G75*
G02*
X119900000Y-109596276I0J-271276D01*
G01*
G37*
G36*
G01*
X127712500Y-98996276D02*
X127712500Y-100003724D01*
G75*
G02*
X127441224Y-100275000I-271276J0D01*
G01*
X126708776Y-100275000D01*
G75*
G02*
X126437500Y-100003724I0J271276D01*
G01*
X126437500Y-98996276D01*
G75*
G02*
X126708776Y-98725000I271276J0D01*
G01*
X127441224Y-98725000D01*
G75*
G02*
X127712500Y-98996276I0J-271276D01*
G01*
G37*
G36*
G01*
X125637500Y-98996276D02*
X125637500Y-100003724D01*
G75*
G02*
X125366224Y-100275000I-271276J0D01*
G01*
X124633776Y-100275000D01*
G75*
G02*
X124362500Y-100003724I0J271276D01*
G01*
X124362500Y-98996276D01*
G75*
G02*
X124633776Y-98725000I271276J0D01*
G01*
X125366224Y-98725000D01*
G75*
G02*
X125637500Y-98996276I0J-271276D01*
G01*
G37*
G36*
G01*
X136850000Y-85400000D02*
X135150000Y-85400000D01*
G75*
G02*
X135100000Y-85350000I0J50000D01*
G01*
X135100000Y-83650000D01*
G75*
G02*
X135150000Y-83600000I50000J0D01*
G01*
X136850000Y-83600000D01*
G75*
G02*
X136900000Y-83650000I0J-50000D01*
G01*
X136900000Y-85350000D01*
G75*
G02*
X136850000Y-85400000I-50000J0D01*
G01*
G37*
D13*
X138540000Y-84500000D03*
X141080000Y-84500000D03*
X143620000Y-84500000D03*
X149900000Y-102640000D03*
X149900000Y-100100000D03*
X149900000Y-97560000D03*
G36*
G01*
X149000000Y-95870000D02*
X149000000Y-94170000D01*
G75*
G02*
X149050000Y-94120000I50000J0D01*
G01*
X150750000Y-94120000D01*
G75*
G02*
X150800000Y-94170000I0J-50000D01*
G01*
X150800000Y-95870000D01*
G75*
G02*
X150750000Y-95920000I-50000J0D01*
G01*
X149050000Y-95920000D01*
G75*
G02*
X149000000Y-95870000I0J50000D01*
G01*
G37*
G36*
G01*
X111479168Y-109450000D02*
X110520832Y-109450000D01*
G75*
G02*
X110250000Y-109179168I0J270832D01*
G01*
X110250000Y-108420832D01*
G75*
G02*
X110520832Y-108150000I270832J0D01*
G01*
X111479168Y-108150000D01*
G75*
G02*
X111750000Y-108420832I0J-270832D01*
G01*
X111750000Y-109179168D01*
G75*
G02*
X111479168Y-109450000I-270832J0D01*
G01*
G37*
G36*
G01*
X111479168Y-111450000D02*
X110520832Y-111450000D01*
G75*
G02*
X110250000Y-111179168I0J270832D01*
G01*
X110250000Y-110420832D01*
G75*
G02*
X110520832Y-110150000I270832J0D01*
G01*
X111479168Y-110150000D01*
G75*
G02*
X111750000Y-110420832I0J-270832D01*
G01*
X111750000Y-111179168D01*
G75*
G02*
X111479168Y-111450000I-270832J0D01*
G01*
G37*
G36*
G01*
X105879168Y-104850000D02*
X104920832Y-104850000D01*
G75*
G02*
X104650000Y-104579168I0J270832D01*
G01*
X104650000Y-103820832D01*
G75*
G02*
X104920832Y-103550000I270832J0D01*
G01*
X105879168Y-103550000D01*
G75*
G02*
X106150000Y-103820832I0J-270832D01*
G01*
X106150000Y-104579168D01*
G75*
G02*
X105879168Y-104850000I-270832J0D01*
G01*
G37*
G36*
G01*
X105879168Y-106850000D02*
X104920832Y-106850000D01*
G75*
G02*
X104650000Y-106579168I0J270832D01*
G01*
X104650000Y-105820832D01*
G75*
G02*
X104920832Y-105550000I270832J0D01*
G01*
X105879168Y-105550000D01*
G75*
G02*
X106150000Y-105820832I0J-270832D01*
G01*
X106150000Y-106579168D01*
G75*
G02*
X105879168Y-106850000I-270832J0D01*
G01*
G37*
G36*
G01*
X115260832Y-109410000D02*
X116219168Y-109410000D01*
G75*
G02*
X116490000Y-109680832I0J-270832D01*
G01*
X116490000Y-110439168D01*
G75*
G02*
X116219168Y-110710000I-270832J0D01*
G01*
X115260832Y-110710000D01*
G75*
G02*
X114990000Y-110439168I0J270832D01*
G01*
X114990000Y-109680832D01*
G75*
G02*
X115260832Y-109410000I270832J0D01*
G01*
G37*
G36*
G01*
X115260832Y-107410000D02*
X116219168Y-107410000D01*
G75*
G02*
X116490000Y-107680832I0J-270832D01*
G01*
X116490000Y-108439168D01*
G75*
G02*
X116219168Y-108710000I-270832J0D01*
G01*
X115260832Y-108710000D01*
G75*
G02*
X114990000Y-108439168I0J270832D01*
G01*
X114990000Y-107680832D01*
G75*
G02*
X115260832Y-107410000I270832J0D01*
G01*
G37*
G36*
G01*
X121950000Y-106020832D02*
X121950000Y-106979168D01*
G75*
G02*
X121679168Y-107250000I-270832J0D01*
G01*
X120920832Y-107250000D01*
G75*
G02*
X120650000Y-106979168I0J270832D01*
G01*
X120650000Y-106020832D01*
G75*
G02*
X120920832Y-105750000I270832J0D01*
G01*
X121679168Y-105750000D01*
G75*
G02*
X121950000Y-106020832I0J-270832D01*
G01*
G37*
G36*
G01*
X119950000Y-106020832D02*
X119950000Y-106979168D01*
G75*
G02*
X119679168Y-107250000I-270832J0D01*
G01*
X118920832Y-107250000D01*
G75*
G02*
X118650000Y-106979168I0J270832D01*
G01*
X118650000Y-106020832D01*
G75*
G02*
X118920832Y-105750000I270832J0D01*
G01*
X119679168Y-105750000D01*
G75*
G02*
X119950000Y-106020832I0J-270832D01*
G01*
G37*
D17*
X126700000Y-93300000D03*
X113500000Y-93300000D03*
G36*
G01*
X90350000Y-90060000D02*
X86550000Y-90060000D01*
G75*
G02*
X86500000Y-90010000I0J50000D01*
G01*
X86500000Y-88010000D01*
G75*
G02*
X86550000Y-87960000I50000J0D01*
G01*
X90350000Y-87960000D01*
G75*
G02*
X90400000Y-88010000I0J-50000D01*
G01*
X90400000Y-90010000D01*
G75*
G02*
X90350000Y-90060000I-50000J0D01*
G01*
G37*
G36*
G01*
X89200000Y-96360000D02*
X87700000Y-96360000D01*
G75*
G02*
X87650000Y-96310000I0J50000D01*
G01*
X87650000Y-94310000D01*
G75*
G02*
X87700000Y-94260000I50000J0D01*
G01*
X89200000Y-94260000D01*
G75*
G02*
X89250000Y-94310000I0J-50000D01*
G01*
X89250000Y-96310000D01*
G75*
G02*
X89200000Y-96360000I-50000J0D01*
G01*
G37*
G36*
G01*
X91500000Y-96360000D02*
X90000000Y-96360000D01*
G75*
G02*
X89950000Y-96310000I0J50000D01*
G01*
X89950000Y-94310000D01*
G75*
G02*
X90000000Y-94260000I50000J0D01*
G01*
X91500000Y-94260000D01*
G75*
G02*
X91550000Y-94310000I0J-50000D01*
G01*
X91550000Y-96310000D01*
G75*
G02*
X91500000Y-96360000I-50000J0D01*
G01*
G37*
G36*
G01*
X86900000Y-96360000D02*
X85400000Y-96360000D01*
G75*
G02*
X85350000Y-96310000I0J50000D01*
G01*
X85350000Y-94310000D01*
G75*
G02*
X85400000Y-94260000I50000J0D01*
G01*
X86900000Y-94260000D01*
G75*
G02*
X86950000Y-94310000I0J-50000D01*
G01*
X86950000Y-96310000D01*
G75*
G02*
X86900000Y-96360000I-50000J0D01*
G01*
G37*
G36*
G01*
X97920000Y-93575000D02*
X97920000Y-92925000D01*
G75*
G02*
X97970000Y-92875000I50000J0D01*
G01*
X99030000Y-92875000D01*
G75*
G02*
X99080000Y-92925000I0J-50000D01*
G01*
X99080000Y-93575000D01*
G75*
G02*
X99030000Y-93625000I-50000J0D01*
G01*
X97970000Y-93625000D01*
G75*
G02*
X97920000Y-93575000I0J50000D01*
G01*
G37*
G36*
G01*
X97920000Y-94525000D02*
X97920000Y-93875000D01*
G75*
G02*
X97970000Y-93825000I50000J0D01*
G01*
X99030000Y-93825000D01*
G75*
G02*
X99080000Y-93875000I0J-50000D01*
G01*
X99080000Y-94525000D01*
G75*
G02*
X99030000Y-94575000I-50000J0D01*
G01*
X97970000Y-94575000D01*
G75*
G02*
X97920000Y-94525000I0J50000D01*
G01*
G37*
G36*
G01*
X97920000Y-95475000D02*
X97920000Y-94825000D01*
G75*
G02*
X97970000Y-94775000I50000J0D01*
G01*
X99030000Y-94775000D01*
G75*
G02*
X99080000Y-94825000I0J-50000D01*
G01*
X99080000Y-95475000D01*
G75*
G02*
X99030000Y-95525000I-50000J0D01*
G01*
X97970000Y-95525000D01*
G75*
G02*
X97920000Y-95475000I0J50000D01*
G01*
G37*
G36*
G01*
X100120000Y-95475000D02*
X100120000Y-94825000D01*
G75*
G02*
X100170000Y-94775000I50000J0D01*
G01*
X101230000Y-94775000D01*
G75*
G02*
X101280000Y-94825000I0J-50000D01*
G01*
X101280000Y-95475000D01*
G75*
G02*
X101230000Y-95525000I-50000J0D01*
G01*
X100170000Y-95525000D01*
G75*
G02*
X100120000Y-95475000I0J50000D01*
G01*
G37*
G36*
G01*
X100120000Y-93575000D02*
X100120000Y-92925000D01*
G75*
G02*
X100170000Y-92875000I50000J0D01*
G01*
X101230000Y-92875000D01*
G75*
G02*
X101280000Y-92925000I0J-50000D01*
G01*
X101280000Y-93575000D01*
G75*
G02*
X101230000Y-93625000I-50000J0D01*
G01*
X100170000Y-93625000D01*
G75*
G02*
X100120000Y-93575000I0J50000D01*
G01*
G37*
G36*
G01*
X100120000Y-94525000D02*
X100120000Y-93875000D01*
G75*
G02*
X100170000Y-93825000I50000J0D01*
G01*
X101230000Y-93825000D01*
G75*
G02*
X101280000Y-93875000I0J-50000D01*
G01*
X101280000Y-94525000D01*
G75*
G02*
X101230000Y-94575000I-50000J0D01*
G01*
X100170000Y-94575000D01*
G75*
G02*
X100120000Y-94525000I0J50000D01*
G01*
G37*
G36*
G01*
X120775000Y-98770000D02*
X121425000Y-98770000D01*
G75*
G02*
X121475000Y-98820000I0J-50000D01*
G01*
X121475000Y-100380000D01*
G75*
G02*
X121425000Y-100430000I-50000J0D01*
G01*
X120775000Y-100430000D01*
G75*
G02*
X120725000Y-100380000I0J50000D01*
G01*
X120725000Y-98820000D01*
G75*
G02*
X120775000Y-98770000I50000J0D01*
G01*
G37*
G36*
G01*
X119825000Y-98770000D02*
X120475000Y-98770000D01*
G75*
G02*
X120525000Y-98820000I0J-50000D01*
G01*
X120525000Y-100380000D01*
G75*
G02*
X120475000Y-100430000I-50000J0D01*
G01*
X119825000Y-100430000D01*
G75*
G02*
X119775000Y-100380000I0J50000D01*
G01*
X119775000Y-98820000D01*
G75*
G02*
X119825000Y-98770000I50000J0D01*
G01*
G37*
G36*
G01*
X118875000Y-98770000D02*
X119525000Y-98770000D01*
G75*
G02*
X119575000Y-98820000I0J-50000D01*
G01*
X119575000Y-100380000D01*
G75*
G02*
X119525000Y-100430000I-50000J0D01*
G01*
X118875000Y-100430000D01*
G75*
G02*
X118825000Y-100380000I0J50000D01*
G01*
X118825000Y-98820000D01*
G75*
G02*
X118875000Y-98770000I50000J0D01*
G01*
G37*
G36*
G01*
X118875000Y-101470000D02*
X119525000Y-101470000D01*
G75*
G02*
X119575000Y-101520000I0J-50000D01*
G01*
X119575000Y-103080000D01*
G75*
G02*
X119525000Y-103130000I-50000J0D01*
G01*
X118875000Y-103130000D01*
G75*
G02*
X118825000Y-103080000I0J50000D01*
G01*
X118825000Y-101520000D01*
G75*
G02*
X118875000Y-101470000I50000J0D01*
G01*
G37*
G36*
G01*
X120775000Y-101470000D02*
X121425000Y-101470000D01*
G75*
G02*
X121475000Y-101520000I0J-50000D01*
G01*
X121475000Y-103080000D01*
G75*
G02*
X121425000Y-103130000I-50000J0D01*
G01*
X120775000Y-103130000D01*
G75*
G02*
X120725000Y-103080000I0J50000D01*
G01*
X120725000Y-101520000D01*
G75*
G02*
X120775000Y-101470000I50000J0D01*
G01*
G37*
G36*
G01*
X97300000Y-101055770D02*
X97300000Y-99744230D01*
G75*
G02*
X97569230Y-99475000I269230J0D01*
G01*
X98430770Y-99475000D01*
G75*
G02*
X98700000Y-99744230I0J-269230D01*
G01*
X98700000Y-101055770D01*
G75*
G02*
X98430770Y-101325000I-269230J0D01*
G01*
X97569230Y-101325000D01*
G75*
G02*
X97300000Y-101055770I0J269230D01*
G01*
G37*
G36*
G01*
X100400000Y-101055770D02*
X100400000Y-99744230D01*
G75*
G02*
X100669230Y-99475000I269230J0D01*
G01*
X101530770Y-99475000D01*
G75*
G02*
X101800000Y-99744230I0J-269230D01*
G01*
X101800000Y-101055770D01*
G75*
G02*
X101530770Y-101325000I-269230J0D01*
G01*
X100669230Y-101325000D01*
G75*
G02*
X100400000Y-101055770I0J269230D01*
G01*
G37*
D12*
X104890000Y-75400000D03*
X93890000Y-75400000D03*
G36*
G01*
X100090000Y-87150000D02*
X100090000Y-83650000D01*
G75*
G02*
X100140000Y-83600000I50000J0D01*
G01*
X103640000Y-83600000D01*
G75*
G02*
X103690000Y-83650000I0J-50000D01*
G01*
X103690000Y-87150000D01*
G75*
G02*
X103640000Y-87200000I-50000J0D01*
G01*
X100140000Y-87200000D01*
G75*
G02*
X100090000Y-87150000I0J50000D01*
G01*
G37*
D18*
X96890000Y-85400000D03*
G36*
G01*
X119000000Y-94150000D02*
X119000000Y-92450000D01*
G75*
G02*
X119050000Y-92400000I50000J0D01*
G01*
X120750000Y-92400000D01*
G75*
G02*
X120800000Y-92450000I0J-50000D01*
G01*
X120800000Y-94150000D01*
G75*
G02*
X120750000Y-94200000I-50000J0D01*
G01*
X119050000Y-94200000D01*
G75*
G02*
X119000000Y-94150000I0J50000D01*
G01*
G37*
G36*
G01*
X136350000Y-112200000D02*
X138050000Y-112200000D01*
G75*
G02*
X138100000Y-112250000I0J-50000D01*
G01*
X138100000Y-113950000D01*
G75*
G02*
X138050000Y-114000000I-50000J0D01*
G01*
X136350000Y-114000000D01*
G75*
G02*
X136300000Y-113950000I0J50000D01*
G01*
X136300000Y-112250000D01*
G75*
G02*
X136350000Y-112200000I50000J0D01*
G01*
G37*
D13*
X134660000Y-113100000D03*
X132120000Y-113100000D03*
X129580000Y-113100000D03*
X127040000Y-113100000D03*
G36*
G01*
X149000000Y-111050000D02*
X149000000Y-109350000D01*
G75*
G02*
X149050000Y-109300000I50000J0D01*
G01*
X150750000Y-109300000D01*
G75*
G02*
X150800000Y-109350000I0J-50000D01*
G01*
X150800000Y-111050000D01*
G75*
G02*
X150750000Y-111100000I-50000J0D01*
G01*
X149050000Y-111100000D01*
G75*
G02*
X149000000Y-111050000I0J50000D01*
G01*
G37*
G36*
G01*
X108600000Y-110250000D02*
X108600000Y-111050000D01*
G75*
G02*
X108550000Y-111100000I-50000J0D01*
G01*
X106650000Y-111100000D01*
G75*
G02*
X106600000Y-111050000I0J50000D01*
G01*
X106600000Y-110250000D01*
G75*
G02*
X106650000Y-110200000I50000J0D01*
G01*
X108550000Y-110200000D01*
G75*
G02*
X108600000Y-110250000I0J-50000D01*
G01*
G37*
G36*
G01*
X108600000Y-108350000D02*
X108600000Y-109150000D01*
G75*
G02*
X108550000Y-109200000I-50000J0D01*
G01*
X106650000Y-109200000D01*
G75*
G02*
X106600000Y-109150000I0J50000D01*
G01*
X106600000Y-108350000D01*
G75*
G02*
X106650000Y-108300000I50000J0D01*
G01*
X108550000Y-108300000D01*
G75*
G02*
X108600000Y-108350000I0J-50000D01*
G01*
G37*
G36*
G01*
X105600000Y-109300000D02*
X105600000Y-110100000D01*
G75*
G02*
X105550000Y-110150000I-50000J0D01*
G01*
X103650000Y-110150000D01*
G75*
G02*
X103600000Y-110100000I0J50000D01*
G01*
X103600000Y-109300000D01*
G75*
G02*
X103650000Y-109250000I50000J0D01*
G01*
X105550000Y-109250000D01*
G75*
G02*
X105600000Y-109300000I0J-50000D01*
G01*
G37*
M02*
