%FSLAX45Y45*%
G04 Gerber Fmt 4.5, Leading zero omitted, Abs format (unit mm)*
G04 Created by KiCad (PCBNEW 5.1.10) date 2021-08-08 14:00:25*
%MOMM*%
%LPD*%
G01*
G04 APERTURE LIST*
%TA.AperFunction,Profile*%
%ADD10C,0.050000*%
%TD*%
%ADD11C,0.200000*%
%ADD12C,0.300000*%
G04 APERTURE END LIST*
D10*
X8300000Y-12400000D02*
X8300000Y-7400000D01*
X15300000Y-12400000D02*
X8300000Y-12400000D01*
X15300000Y-7400000D02*
X15300000Y-12400000D01*
X8300000Y-7400000D02*
X15300000Y-7400000D01*
D11*
D12*
X8583928Y-12868214D02*
X8583928Y-12568214D01*
X8655357Y-12568214D01*
X8698214Y-12582500D01*
X8726786Y-12611071D01*
X8741071Y-12639643D01*
X8755357Y-12696786D01*
X8755357Y-12739643D01*
X8741071Y-12796786D01*
X8726786Y-12825357D01*
X8698214Y-12853929D01*
X8655357Y-12868214D01*
X8583928Y-12868214D01*
X8883928Y-12868214D02*
X8883928Y-12668214D01*
X8883928Y-12725357D02*
X8898214Y-12696786D01*
X8912500Y-12682500D01*
X8941071Y-12668214D01*
X8969643Y-12668214D01*
X9069643Y-12868214D02*
X9069643Y-12668214D01*
X9069643Y-12568214D02*
X9055357Y-12582500D01*
X9069643Y-12596786D01*
X9083928Y-12582500D01*
X9069643Y-12568214D01*
X9069643Y-12596786D01*
X9255357Y-12868214D02*
X9226786Y-12853929D01*
X9212500Y-12825357D01*
X9212500Y-12568214D01*
X9412500Y-12868214D02*
X9383928Y-12853929D01*
X9369643Y-12825357D01*
X9369643Y-12568214D01*
X9755357Y-12868214D02*
X9755357Y-12568214D01*
X9855357Y-12782500D01*
X9955357Y-12568214D01*
X9955357Y-12868214D01*
X10226786Y-12868214D02*
X10226786Y-12711071D01*
X10212500Y-12682500D01*
X10183928Y-12668214D01*
X10126786Y-12668214D01*
X10098214Y-12682500D01*
X10226786Y-12853929D02*
X10198214Y-12868214D01*
X10126786Y-12868214D01*
X10098214Y-12853929D01*
X10083928Y-12825357D01*
X10083928Y-12796786D01*
X10098214Y-12768214D01*
X10126786Y-12753929D01*
X10198214Y-12753929D01*
X10226786Y-12739643D01*
X10369643Y-12668214D02*
X10369643Y-12968214D01*
X10369643Y-12682500D02*
X10398214Y-12668214D01*
X10455357Y-12668214D01*
X10483928Y-12682500D01*
X10498214Y-12696786D01*
X10512500Y-12725357D01*
X10512500Y-12811071D01*
X10498214Y-12839643D01*
X10483928Y-12853929D01*
X10455357Y-12868214D01*
X10398214Y-12868214D01*
X10369643Y-12853929D01*
X10641071Y-12839643D02*
X10655357Y-12853929D01*
X10641071Y-12868214D01*
X10626786Y-12853929D01*
X10641071Y-12839643D01*
X10641071Y-12868214D01*
X10641071Y-12682500D02*
X10655357Y-12696786D01*
X10641071Y-12711071D01*
X10626786Y-12696786D01*
X10641071Y-12682500D01*
X10641071Y-12711071D01*
M02*
