%FSLAX45Y45*%
G04 Gerber Fmt 4.5, Leading zero omitted, Abs format (unit mm)*
G04 Created by KiCad (PCBNEW 5.1.10) date 2021-08-08 14:00:25*
%MOMM*%
%LPD*%
G01*
G04 APERTURE LIST*
%TA.AperFunction,Profile*%
%ADD10C,0.050000*%
%TD*%
%ADD11C,0.200000*%
%ADD12C,0.300000*%
G04 APERTURE END LIST*
D10*
X8300000Y-12400000D02*
X8300000Y-7400000D01*
X15300000Y-12400000D02*
X8300000Y-12400000D01*
X15300000Y-7400000D02*
X15300000Y-12400000D01*
X8300000Y-7400000D02*
X15300000Y-7400000D01*
D11*
X8530000Y-9900000D02*
X8550000Y-9920000D01*
X8550000Y-9900000D02*
X8530000Y-9920000D01*
X9420000Y-10410000D02*
X9440000Y-10430000D01*
X9440000Y-10410000D02*
X9420000Y-10430000D01*
X9550000Y-11330000D02*
X9570000Y-11350000D01*
X9570000Y-11330000D02*
X9550000Y-11350000D01*
X9950000Y-9690000D02*
X9970000Y-9710000D01*
X9970000Y-9690000D02*
X9950000Y-9710000D01*
X9950000Y-10030000D02*
X9970000Y-10050000D01*
X9970000Y-10030000D02*
X9950000Y-10050000D01*
X10120000Y-9000000D02*
X10140000Y-9020000D01*
X10140000Y-9000000D02*
X10120000Y-9020000D01*
X10220000Y-9510000D02*
X10240000Y-9530000D01*
X10240000Y-9510000D02*
X10220000Y-9530000D01*
X10930000Y-9730000D02*
X10950000Y-9750000D01*
X10950000Y-9730000D02*
X10930000Y-9750000D01*
X10930000Y-9820000D02*
X10950000Y-9840000D01*
X10950000Y-9820000D02*
X10930000Y-9840000D01*
X10930000Y-9910000D02*
X10950000Y-9930000D01*
X10950000Y-9910000D02*
X10930000Y-9930000D01*
X10930000Y-10000000D02*
X10950000Y-10020000D01*
X10950000Y-10000000D02*
X10930000Y-10020000D01*
X10930000Y-10090000D02*
X10950000Y-10110000D01*
X10950000Y-10090000D02*
X10930000Y-10110000D01*
X10930000Y-10950000D02*
X10950000Y-10970000D01*
X10950000Y-10950000D02*
X10930000Y-10970000D01*
X11100000Y-10505001D02*
X11120000Y-10525001D01*
X11120000Y-10505001D02*
X11100000Y-10525001D01*
X11330000Y-10730000D02*
X11350000Y-10750000D01*
X11350000Y-10730000D02*
X11330000Y-10750000D01*
X11480000Y-10330000D02*
X11500000Y-10350000D01*
X11500000Y-10330000D02*
X11480000Y-10350000D01*
X11610000Y-10620000D02*
X11630000Y-10640000D01*
X11630000Y-10620000D02*
X11610000Y-10640000D01*
X11740000Y-10020000D02*
X11760000Y-10040000D01*
X11760000Y-10020000D02*
X11740000Y-10040000D01*
X12160000Y-10395001D02*
X12180000Y-10415001D01*
X12180000Y-10395001D02*
X12160000Y-10415001D01*
X12460000Y-10220000D02*
X12480000Y-10240000D01*
X12480000Y-10220000D02*
X12460000Y-10240000D01*
X12530000Y-10630000D02*
X12550000Y-10650000D01*
X12550000Y-10630000D02*
X12530000Y-10650000D01*
X12760000Y-10100000D02*
X12780000Y-10120000D01*
X12780000Y-10100000D02*
X12760000Y-10120000D01*
X12852000Y-9928000D02*
X12872000Y-9948000D01*
X12872000Y-9928000D02*
X12852000Y-9948000D01*
X12950000Y-9990000D02*
X12970000Y-10010000D01*
X12970000Y-9990000D02*
X12950000Y-10010000D01*
X13270000Y-10030000D02*
X13290000Y-10050000D01*
X13290000Y-10030000D02*
X13270000Y-10050000D01*
X13270000Y-10505001D02*
X13290000Y-10525001D01*
X13290000Y-10505001D02*
X13270000Y-10525001D01*
X13300000Y-10850000D02*
X13320000Y-10870000D01*
X13320000Y-10850000D02*
X13300000Y-10870000D01*
X13550000Y-10980000D02*
X13570000Y-11000000D01*
X13570000Y-10980000D02*
X13550000Y-11000000D01*
X13620000Y-10740000D02*
X13640000Y-10760000D01*
X13640000Y-10740000D02*
X13620000Y-10760000D01*
X13670000Y-10110000D02*
X13690000Y-10130000D01*
X13690000Y-10110000D02*
X13670000Y-10130000D01*
X13750000Y-10170000D02*
X13770000Y-10190000D01*
X13770000Y-10170000D02*
X13750000Y-10190000D01*
X13766380Y-10044999D02*
X13786380Y-10064999D01*
X13786380Y-10044999D02*
X13766380Y-10064999D01*
X13840000Y-10470000D02*
X13860000Y-10490000D01*
X13860000Y-10470000D02*
X13840000Y-10490000D01*
X13842000Y-10155001D02*
X13862000Y-10175001D01*
X13862000Y-10155001D02*
X13842000Y-10175001D01*
X13991502Y-10195002D02*
X14011502Y-10215002D01*
X14011502Y-10195002D02*
X13991502Y-10215002D01*
X14030000Y-10050000D02*
X14050000Y-10070000D01*
X14050000Y-10050000D02*
X14030000Y-10070000D01*
X14076000Y-10180001D02*
X14096000Y-10200001D01*
X14096000Y-10180001D02*
X14076000Y-10200001D01*
X14130000Y-10770000D02*
X14150000Y-10790000D01*
X14150000Y-10770000D02*
X14130000Y-10790000D01*
X14137498Y-9873825D02*
X14157498Y-9893825D01*
X14157498Y-9873825D02*
X14137498Y-9893825D01*
X14182441Y-9969998D02*
X14202441Y-9989998D01*
X14202441Y-9969998D02*
X14182441Y-9989998D01*
X14200000Y-10930000D02*
X14220000Y-10950000D01*
X14220000Y-10930000D02*
X14200000Y-10950000D01*
X14250000Y-10850000D02*
X14270000Y-10870000D01*
X14270000Y-10850000D02*
X14250000Y-10870000D01*
X14270000Y-9490000D02*
X14290000Y-9510000D01*
X14290000Y-9490000D02*
X14270000Y-9510000D01*
X14335000Y-9997000D02*
X14355000Y-10017000D01*
X14355000Y-9997000D02*
X14335000Y-10017000D01*
X14405000Y-10178000D02*
X14425000Y-10198000D01*
X14425000Y-10178000D02*
X14405000Y-10198000D01*
X14440000Y-8990000D02*
X14460000Y-9010000D01*
X14460000Y-8990000D02*
X14440000Y-9010000D01*
X14500000Y-10470000D02*
X14520000Y-10490000D01*
X14520000Y-10470000D02*
X14500000Y-10490000D01*
X8865000Y-9185000D02*
G75*
G03*
X8865000Y-9185000I-20000J0D01*
G01*
X10050000Y-10760000D02*
G75*
G03*
X10050000Y-10760000I-20000J0D01*
G01*
X10180000Y-9160000D02*
G75*
G03*
X10180000Y-9160000I-20000J0D01*
G01*
X12280000Y-9680000D02*
G75*
G03*
X12280000Y-9680000I-20000J0D01*
G01*
X13400000Y-9680000D02*
G75*
G03*
X13400000Y-9680000I-20000J0D01*
G01*
X13450000Y-10620000D02*
G75*
G03*
X13450000Y-10620000I-20000J0D01*
G01*
X13790000Y-10620000D02*
G75*
G03*
X13790000Y-10620000I-20000J0D01*
G01*
X13900000Y-9330000D02*
G75*
G03*
X13900000Y-9330000I-20000J0D01*
G01*
X9300000Y-11905000D02*
X9300000Y-11995000D01*
X9255000Y-11950000D02*
X9345000Y-11950000D01*
X9300000Y-12235000D02*
X9300000Y-12325000D01*
X9255000Y-12280000D02*
X9345000Y-12280000D01*
X9550000Y-11905000D02*
X9550000Y-11995000D01*
X9505000Y-11950000D02*
X9595000Y-11950000D01*
X9550000Y-12235000D02*
X9550000Y-12325000D01*
X9505000Y-12280000D02*
X9595000Y-12280000D01*
X9800000Y-11905000D02*
X9800000Y-11995000D01*
X9755000Y-11950000D02*
X9845000Y-11950000D01*
X9800000Y-12235000D02*
X9800000Y-12325000D01*
X9755000Y-12280000D02*
X9845000Y-12280000D01*
X10385002Y-12135002D02*
X10385002Y-12064998D01*
X10314998Y-12064998D01*
X10314998Y-12135002D01*
X10385002Y-12135002D01*
X10835002Y-12135002D02*
X10835002Y-12064998D01*
X10764998Y-12064998D01*
X10764998Y-12135002D01*
X10835002Y-12135002D01*
X11485002Y-12135002D02*
X11485002Y-12064998D01*
X11414998Y-12064998D01*
X11414998Y-12135002D01*
X11485002Y-12135002D01*
X11935002Y-12135002D02*
X11935002Y-12064998D01*
X11864998Y-12064998D01*
X11864998Y-12135002D01*
X11935002Y-12135002D01*
X12585002Y-12135002D02*
X12585002Y-12064998D01*
X12514998Y-12064998D01*
X12514998Y-12135002D01*
X12585002Y-12135002D01*
X13035002Y-12135002D02*
X13035002Y-12064998D01*
X12964998Y-12064998D01*
X12964998Y-12135002D01*
X13035002Y-12135002D01*
X13685002Y-12135002D02*
X13685002Y-12064998D01*
X13614998Y-12064998D01*
X13614998Y-12135002D01*
X13685002Y-12135002D01*
X14135002Y-12135002D02*
X14135002Y-12064998D01*
X14064998Y-12064998D01*
X14064998Y-12135002D01*
X14135002Y-12135002D01*
X8690000Y-10810000D02*
X8740000Y-10760000D01*
X8690000Y-10710000D01*
X8640000Y-10760000D01*
X8690000Y-10810000D01*
X8944000Y-10810000D02*
X8994000Y-10760000D01*
X8944000Y-10710000D01*
X8894000Y-10760000D01*
X8944000Y-10810000D01*
X9198000Y-10810000D02*
X9248000Y-10760000D01*
X9198000Y-10710000D01*
X9148000Y-10760000D01*
X9198000Y-10810000D01*
X9389000Y-7590000D02*
X9439000Y-7540000D01*
X9389000Y-7490000D01*
X9339000Y-7540000D01*
X9389000Y-7590000D01*
X9452000Y-10810000D02*
X9502000Y-10760000D01*
X9452000Y-10710000D01*
X9402000Y-10760000D01*
X9452000Y-10810000D01*
X10489000Y-7590000D02*
X10539000Y-7540000D01*
X10489000Y-7490000D01*
X10439000Y-7540000D01*
X10489000Y-7590000D01*
X11990000Y-9380000D02*
X12040000Y-9330000D01*
X11990000Y-9280000D01*
X11940000Y-9330000D01*
X11990000Y-9380000D01*
X12704000Y-11360000D02*
X12754000Y-11310000D01*
X12704000Y-11260000D01*
X12654000Y-11310000D01*
X12704000Y-11360000D01*
X12958000Y-11360000D02*
X13008000Y-11310000D01*
X12958000Y-11260000D01*
X12908000Y-11310000D01*
X12958000Y-11360000D01*
X13212000Y-11360000D02*
X13262000Y-11310000D01*
X13212000Y-11260000D01*
X13162000Y-11310000D01*
X13212000Y-11360000D01*
X13466000Y-11360000D02*
X13516000Y-11310000D01*
X13466000Y-11260000D01*
X13416000Y-11310000D01*
X13466000Y-11360000D01*
X13600000Y-8500000D02*
X13650000Y-8450000D01*
X13600000Y-8400000D01*
X13550000Y-8450000D01*
X13600000Y-8500000D01*
X13720000Y-11360000D02*
X13770000Y-11310000D01*
X13720000Y-11260000D01*
X13670000Y-11310000D01*
X13720000Y-11360000D01*
X13854000Y-8500000D02*
X13904000Y-8450000D01*
X13854000Y-8400000D01*
X13804000Y-8450000D01*
X13854000Y-8500000D01*
X14108000Y-8500000D02*
X14158000Y-8450000D01*
X14108000Y-8400000D01*
X14058000Y-8450000D01*
X14108000Y-8500000D01*
X14362000Y-8500000D02*
X14412000Y-8450000D01*
X14362000Y-8400000D01*
X14312000Y-8450000D01*
X14362000Y-8500000D01*
X14990000Y-9552000D02*
X15040000Y-9502000D01*
X14990000Y-9452000D01*
X14940000Y-9502000D01*
X14990000Y-9552000D01*
X14990000Y-9806000D02*
X15040000Y-9756000D01*
X14990000Y-9706000D01*
X14940000Y-9756000D01*
X14990000Y-9806000D01*
X14990000Y-10060000D02*
X15040000Y-10010000D01*
X14990000Y-9960000D01*
X14940000Y-10010000D01*
X14990000Y-10060000D01*
X14990000Y-10314000D02*
X15040000Y-10264000D01*
X14990000Y-10214000D01*
X14940000Y-10264000D01*
X14990000Y-10314000D01*
X14990000Y-11070000D02*
X15040000Y-11020000D01*
X14990000Y-10970000D01*
X14940000Y-11020000D01*
X14990000Y-11070000D01*
X10159000Y-11786000D02*
X10289000Y-11916000D01*
X10289000Y-11786000D02*
X10159000Y-11916000D01*
X10289000Y-11851000D02*
G75*
G03*
X10289000Y-11851000I-65000J0D01*
G01*
X10860000Y-11786000D02*
X10990000Y-11916000D01*
X10990000Y-11786000D02*
X10860000Y-11916000D01*
X10990000Y-11851000D02*
G75*
G03*
X10990000Y-11851000I-65000J0D01*
G01*
X11259000Y-11786000D02*
X11389000Y-11916000D01*
X11389000Y-11786000D02*
X11259000Y-11916000D01*
X11389000Y-11851000D02*
G75*
G03*
X11389000Y-11851000I-65000J0D01*
G01*
X11960000Y-11786000D02*
X12090000Y-11916000D01*
X12090000Y-11786000D02*
X11960000Y-11916000D01*
X12090000Y-11851000D02*
G75*
G03*
X12090000Y-11851000I-65000J0D01*
G01*
X12359000Y-11786000D02*
X12489000Y-11916000D01*
X12489000Y-11786000D02*
X12359000Y-11916000D01*
X12489000Y-11851000D02*
G75*
G03*
X12489000Y-11851000I-65000J0D01*
G01*
X13060000Y-11786000D02*
X13190000Y-11916000D01*
X13190000Y-11786000D02*
X13060000Y-11916000D01*
X13190000Y-11851000D02*
G75*
G03*
X13190000Y-11851000I-65000J0D01*
G01*
X13459000Y-11786000D02*
X13589000Y-11916000D01*
X13589000Y-11786000D02*
X13459000Y-11916000D01*
X13589000Y-11851000D02*
G75*
G03*
X13589000Y-11851000I-65000J0D01*
G01*
X14160000Y-11786000D02*
X14290000Y-11916000D01*
X14290000Y-11786000D02*
X14160000Y-11916000D01*
X14290000Y-11851000D02*
G75*
G03*
X14290000Y-11851000I-65000J0D01*
G01*
X9594000Y-8445000D02*
X9784000Y-8635000D01*
X9784000Y-8445000D02*
X9594000Y-8635000D01*
X9689000Y-8445000D02*
X9689000Y-8635000D01*
X9594000Y-8540000D02*
X9784000Y-8540000D01*
X10094000Y-8445000D02*
X10284000Y-8635000D01*
X10284000Y-8445000D02*
X10094000Y-8635000D01*
X10189000Y-8445000D02*
X10189000Y-8635000D01*
X10094000Y-8540000D02*
X10284000Y-8540000D01*
X11250000Y-9230000D02*
X11450000Y-9430000D01*
X11450000Y-9230000D02*
X11250000Y-9430000D01*
X11420711Y-9400711D02*
X11420711Y-9259289D01*
X11279289Y-9259289D01*
X11279289Y-9400711D01*
X11420711Y-9400711D01*
X12570000Y-9230000D02*
X12770000Y-9430000D01*
X12770000Y-9230000D02*
X12570000Y-9430000D01*
X12740711Y-9400711D02*
X12740711Y-9259289D01*
X12599289Y-9259289D01*
X12599289Y-9400711D01*
X12740711Y-9400711D01*
X8540000Y-7640000D02*
X8860000Y-7960000D01*
X8860000Y-7640000D02*
X8540000Y-7960000D01*
X8700000Y-7960000D02*
X8860000Y-7800000D01*
X8700000Y-7640000D01*
X8540000Y-7800000D01*
X8700000Y-7960000D01*
X8540000Y-11840000D02*
X8860000Y-12160000D01*
X8860000Y-11840000D02*
X8540000Y-12160000D01*
X8700000Y-12160000D02*
X8860000Y-12000000D01*
X8700000Y-11840000D01*
X8540000Y-12000000D01*
X8700000Y-12160000D01*
X14740000Y-7640000D02*
X15060000Y-7960000D01*
X15060000Y-7640000D02*
X14740000Y-7960000D01*
X14900000Y-7960000D02*
X15060000Y-7800000D01*
X14900000Y-7640000D01*
X14740000Y-7800000D01*
X14900000Y-7960000D01*
X14740000Y-11840000D02*
X15060000Y-12160000D01*
X15060000Y-11840000D02*
X14740000Y-12160000D01*
X14900000Y-12160000D02*
X15060000Y-12000000D01*
X14900000Y-11840000D01*
X14740000Y-12000000D01*
X14900000Y-12160000D01*
D12*
X8583928Y-12868214D02*
X8583928Y-12568214D01*
X8655357Y-12568214D01*
X8698214Y-12582500D01*
X8726786Y-12611071D01*
X8741071Y-12639643D01*
X8755357Y-12696786D01*
X8755357Y-12739643D01*
X8741071Y-12796786D01*
X8726786Y-12825357D01*
X8698214Y-12853929D01*
X8655357Y-12868214D01*
X8583928Y-12868214D01*
X8883928Y-12868214D02*
X8883928Y-12668214D01*
X8883928Y-12725357D02*
X8898214Y-12696786D01*
X8912500Y-12682500D01*
X8941071Y-12668214D01*
X8969643Y-12668214D01*
X9069643Y-12868214D02*
X9069643Y-12668214D01*
X9069643Y-12568214D02*
X9055357Y-12582500D01*
X9069643Y-12596786D01*
X9083928Y-12582500D01*
X9069643Y-12568214D01*
X9069643Y-12596786D01*
X9255357Y-12868214D02*
X9226786Y-12853929D01*
X9212500Y-12825357D01*
X9212500Y-12568214D01*
X9412500Y-12868214D02*
X9383928Y-12853929D01*
X9369643Y-12825357D01*
X9369643Y-12568214D01*
X9755357Y-12868214D02*
X9755357Y-12568214D01*
X9855357Y-12782500D01*
X9955357Y-12568214D01*
X9955357Y-12868214D01*
X10226786Y-12868214D02*
X10226786Y-12711071D01*
X10212500Y-12682500D01*
X10183928Y-12668214D01*
X10126786Y-12668214D01*
X10098214Y-12682500D01*
X10226786Y-12853929D02*
X10198214Y-12868214D01*
X10126786Y-12868214D01*
X10098214Y-12853929D01*
X10083928Y-12825357D01*
X10083928Y-12796786D01*
X10098214Y-12768214D01*
X10126786Y-12753929D01*
X10198214Y-12753929D01*
X10226786Y-12739643D01*
X10369643Y-12668214D02*
X10369643Y-12968214D01*
X10369643Y-12682500D02*
X10398214Y-12668214D01*
X10455357Y-12668214D01*
X10483928Y-12682500D01*
X10498214Y-12696786D01*
X10512500Y-12725357D01*
X10512500Y-12811071D01*
X10498214Y-12839643D01*
X10483928Y-12853929D01*
X10455357Y-12868214D01*
X10398214Y-12868214D01*
X10369643Y-12853929D01*
X10641071Y-12839643D02*
X10655357Y-12853929D01*
X10641071Y-12868214D01*
X10626786Y-12853929D01*
X10641071Y-12839643D01*
X10641071Y-12868214D01*
X10641071Y-12682500D02*
X10655357Y-12696786D01*
X10641071Y-12711071D01*
X10626786Y-12696786D01*
X10641071Y-12682500D01*
X10641071Y-12711071D01*
X8277500Y-13352500D02*
X8297500Y-13372500D01*
X8297500Y-13352500D02*
X8277500Y-13372500D01*
X8641071Y-13198214D02*
X8669643Y-13198214D01*
X8698214Y-13212500D01*
X8712500Y-13226786D01*
X8726786Y-13255357D01*
X8741071Y-13312500D01*
X8741071Y-13383929D01*
X8726786Y-13441071D01*
X8712500Y-13469643D01*
X8698214Y-13483929D01*
X8669643Y-13498214D01*
X8641071Y-13498214D01*
X8612500Y-13483929D01*
X8598214Y-13469643D01*
X8583928Y-13441071D01*
X8569643Y-13383929D01*
X8569643Y-13312500D01*
X8583928Y-13255357D01*
X8598214Y-13226786D01*
X8612500Y-13212500D01*
X8641071Y-13198214D01*
X8869643Y-13469643D02*
X8883928Y-13483929D01*
X8869643Y-13498214D01*
X8855357Y-13483929D01*
X8869643Y-13469643D01*
X8869643Y-13498214D01*
X8998214Y-13226786D02*
X9012500Y-13212500D01*
X9041071Y-13198214D01*
X9112500Y-13198214D01*
X9141071Y-13212500D01*
X9155357Y-13226786D01*
X9169643Y-13255357D01*
X9169643Y-13283929D01*
X9155357Y-13326786D01*
X8983928Y-13498214D01*
X9169643Y-13498214D01*
X9355357Y-13198214D02*
X9383928Y-13198214D01*
X9412500Y-13212500D01*
X9426786Y-13226786D01*
X9441071Y-13255357D01*
X9455357Y-13312500D01*
X9455357Y-13383929D01*
X9441071Y-13441071D01*
X9426786Y-13469643D01*
X9412500Y-13483929D01*
X9383928Y-13498214D01*
X9355357Y-13498214D01*
X9326786Y-13483929D01*
X9312500Y-13469643D01*
X9298214Y-13441071D01*
X9283928Y-13383929D01*
X9283928Y-13312500D01*
X9298214Y-13255357D01*
X9312500Y-13226786D01*
X9326786Y-13212500D01*
X9355357Y-13198214D01*
X9641071Y-13198214D02*
X9669643Y-13198214D01*
X9698214Y-13212500D01*
X9712500Y-13226786D01*
X9726786Y-13255357D01*
X9741071Y-13312500D01*
X9741071Y-13383929D01*
X9726786Y-13441071D01*
X9712500Y-13469643D01*
X9698214Y-13483929D01*
X9669643Y-13498214D01*
X9641071Y-13498214D01*
X9612500Y-13483929D01*
X9598214Y-13469643D01*
X9583928Y-13441071D01*
X9569643Y-13383929D01*
X9569643Y-13312500D01*
X9583928Y-13255357D01*
X9598214Y-13226786D01*
X9612500Y-13212500D01*
X9641071Y-13198214D01*
X9869643Y-13498214D02*
X9869643Y-13298214D01*
X9869643Y-13326786D02*
X9883928Y-13312500D01*
X9912500Y-13298214D01*
X9955357Y-13298214D01*
X9983928Y-13312500D01*
X9998214Y-13341071D01*
X9998214Y-13498214D01*
X9998214Y-13341071D02*
X10012500Y-13312500D01*
X10041071Y-13298214D01*
X10083928Y-13298214D01*
X10112500Y-13312500D01*
X10126786Y-13341071D01*
X10126786Y-13498214D01*
X10269643Y-13498214D02*
X10269643Y-13298214D01*
X10269643Y-13326786D02*
X10283928Y-13312500D01*
X10312500Y-13298214D01*
X10355357Y-13298214D01*
X10383928Y-13312500D01*
X10398214Y-13341071D01*
X10398214Y-13498214D01*
X10398214Y-13341071D02*
X10412500Y-13312500D01*
X10441071Y-13298214D01*
X10483928Y-13298214D01*
X10512500Y-13312500D01*
X10526786Y-13341071D01*
X10526786Y-13498214D01*
X11112500Y-13183929D02*
X10855357Y-13569643D01*
X11498214Y-13198214D02*
X11526786Y-13198214D01*
X11555357Y-13212500D01*
X11569643Y-13226786D01*
X11583928Y-13255357D01*
X11598214Y-13312500D01*
X11598214Y-13383929D01*
X11583928Y-13441071D01*
X11569643Y-13469643D01*
X11555357Y-13483929D01*
X11526786Y-13498214D01*
X11498214Y-13498214D01*
X11469643Y-13483929D01*
X11455357Y-13469643D01*
X11441071Y-13441071D01*
X11426786Y-13383929D01*
X11426786Y-13312500D01*
X11441071Y-13255357D01*
X11455357Y-13226786D01*
X11469643Y-13212500D01*
X11498214Y-13198214D01*
X11726786Y-13469643D02*
X11741071Y-13483929D01*
X11726786Y-13498214D01*
X11712500Y-13483929D01*
X11726786Y-13469643D01*
X11726786Y-13498214D01*
X11926786Y-13198214D02*
X11955357Y-13198214D01*
X11983928Y-13212500D01*
X11998214Y-13226786D01*
X12012500Y-13255357D01*
X12026786Y-13312500D01*
X12026786Y-13383929D01*
X12012500Y-13441071D01*
X11998214Y-13469643D01*
X11983928Y-13483929D01*
X11955357Y-13498214D01*
X11926786Y-13498214D01*
X11898214Y-13483929D01*
X11883928Y-13469643D01*
X11869643Y-13441071D01*
X11855357Y-13383929D01*
X11855357Y-13312500D01*
X11869643Y-13255357D01*
X11883928Y-13226786D01*
X11898214Y-13212500D01*
X11926786Y-13198214D01*
X12212500Y-13198214D02*
X12241071Y-13198214D01*
X12269643Y-13212500D01*
X12283928Y-13226786D01*
X12298214Y-13255357D01*
X12312500Y-13312500D01*
X12312500Y-13383929D01*
X12298214Y-13441071D01*
X12283928Y-13469643D01*
X12269643Y-13483929D01*
X12241071Y-13498214D01*
X12212500Y-13498214D01*
X12183928Y-13483929D01*
X12169643Y-13469643D01*
X12155357Y-13441071D01*
X12141071Y-13383929D01*
X12141071Y-13312500D01*
X12155357Y-13255357D01*
X12169643Y-13226786D01*
X12183928Y-13212500D01*
X12212500Y-13198214D01*
X12412500Y-13198214D02*
X12612500Y-13198214D01*
X12483928Y-13498214D01*
X12741071Y-13498214D02*
X12798214Y-13498214D01*
X12826786Y-13483929D01*
X12841071Y-13469643D01*
X12869643Y-13426786D01*
X12883928Y-13369643D01*
X12883928Y-13255357D01*
X12869643Y-13226786D01*
X12855357Y-13212500D01*
X12826786Y-13198214D01*
X12769643Y-13198214D01*
X12741071Y-13212500D01*
X12726786Y-13226786D01*
X12712500Y-13255357D01*
X12712500Y-13326786D01*
X12726786Y-13355357D01*
X12741071Y-13369643D01*
X12769643Y-13383929D01*
X12826786Y-13383929D01*
X12855357Y-13369643D01*
X12869643Y-13355357D01*
X12883928Y-13326786D01*
X12998214Y-13198214D02*
X12998214Y-13255357D01*
X13112500Y-13198214D02*
X13112500Y-13255357D01*
X13555357Y-13612500D02*
X13541071Y-13598214D01*
X13512500Y-13555357D01*
X13498214Y-13526786D01*
X13483928Y-13483929D01*
X13469643Y-13412500D01*
X13469643Y-13355357D01*
X13483928Y-13283929D01*
X13498214Y-13241071D01*
X13512500Y-13212500D01*
X13541071Y-13169643D01*
X13555357Y-13155357D01*
X13798214Y-13298214D02*
X13798214Y-13498214D01*
X13726786Y-13183929D02*
X13655357Y-13398214D01*
X13841071Y-13398214D01*
X13926786Y-13198214D02*
X14126786Y-13198214D01*
X13998214Y-13498214D01*
X14469643Y-13498214D02*
X14469643Y-13198214D01*
X14598214Y-13498214D02*
X14598214Y-13341071D01*
X14583928Y-13312500D01*
X14555357Y-13298214D01*
X14512500Y-13298214D01*
X14483928Y-13312500D01*
X14469643Y-13326786D01*
X14783928Y-13498214D02*
X14755357Y-13483929D01*
X14741071Y-13469643D01*
X14726786Y-13441071D01*
X14726786Y-13355357D01*
X14741071Y-13326786D01*
X14755357Y-13312500D01*
X14783928Y-13298214D01*
X14826786Y-13298214D01*
X14855357Y-13312500D01*
X14869643Y-13326786D01*
X14883928Y-13355357D01*
X14883928Y-13441071D01*
X14869643Y-13469643D01*
X14855357Y-13483929D01*
X14826786Y-13498214D01*
X14783928Y-13498214D01*
X15055357Y-13498214D02*
X15026786Y-13483929D01*
X15012500Y-13455357D01*
X15012500Y-13198214D01*
X15283928Y-13483929D02*
X15255357Y-13498214D01*
X15198214Y-13498214D01*
X15169643Y-13483929D01*
X15155357Y-13455357D01*
X15155357Y-13341071D01*
X15169643Y-13312500D01*
X15198214Y-13298214D01*
X15255357Y-13298214D01*
X15283928Y-13312500D01*
X15298214Y-13341071D01*
X15298214Y-13369643D01*
X15155357Y-13398214D01*
X15412500Y-13483929D02*
X15441071Y-13498214D01*
X15498214Y-13498214D01*
X15526786Y-13483929D01*
X15541071Y-13455357D01*
X15541071Y-13441071D01*
X15526786Y-13412500D01*
X15498214Y-13398214D01*
X15455357Y-13398214D01*
X15426786Y-13383929D01*
X15412500Y-13355357D01*
X15412500Y-13341071D01*
X15426786Y-13312500D01*
X15455357Y-13298214D01*
X15498214Y-13298214D01*
X15526786Y-13312500D01*
X15641071Y-13612500D02*
X15655357Y-13598214D01*
X15683928Y-13555357D01*
X15698214Y-13526786D01*
X15712500Y-13483929D01*
X15726786Y-13412500D01*
X15726786Y-13355357D01*
X15712500Y-13283929D01*
X15698214Y-13241071D01*
X15683928Y-13212500D01*
X15655357Y-13169643D01*
X15641071Y-13155357D01*
X8297500Y-13758500D02*
G75*
G03*
X8297500Y-13758500I-20000J0D01*
G01*
X8641071Y-13594214D02*
X8669643Y-13594214D01*
X8698214Y-13608500D01*
X8712500Y-13622786D01*
X8726786Y-13651357D01*
X8741071Y-13708500D01*
X8741071Y-13779929D01*
X8726786Y-13837071D01*
X8712500Y-13865643D01*
X8698214Y-13879929D01*
X8669643Y-13894214D01*
X8641071Y-13894214D01*
X8612500Y-13879929D01*
X8598214Y-13865643D01*
X8583928Y-13837071D01*
X8569643Y-13779929D01*
X8569643Y-13708500D01*
X8583928Y-13651357D01*
X8598214Y-13622786D01*
X8612500Y-13608500D01*
X8641071Y-13594214D01*
X8869643Y-13865643D02*
X8883928Y-13879929D01*
X8869643Y-13894214D01*
X8855357Y-13879929D01*
X8869643Y-13865643D01*
X8869643Y-13894214D01*
X9141071Y-13694214D02*
X9141071Y-13894214D01*
X9069643Y-13579929D02*
X8998214Y-13794214D01*
X9183928Y-13794214D01*
X9355357Y-13594214D02*
X9383928Y-13594214D01*
X9412500Y-13608500D01*
X9426786Y-13622786D01*
X9441071Y-13651357D01*
X9455357Y-13708500D01*
X9455357Y-13779929D01*
X9441071Y-13837071D01*
X9426786Y-13865643D01*
X9412500Y-13879929D01*
X9383928Y-13894214D01*
X9355357Y-13894214D01*
X9326786Y-13879929D01*
X9312500Y-13865643D01*
X9298214Y-13837071D01*
X9283928Y-13779929D01*
X9283928Y-13708500D01*
X9298214Y-13651357D01*
X9312500Y-13622786D01*
X9326786Y-13608500D01*
X9355357Y-13594214D01*
X9641071Y-13594214D02*
X9669643Y-13594214D01*
X9698214Y-13608500D01*
X9712500Y-13622786D01*
X9726786Y-13651357D01*
X9741071Y-13708500D01*
X9741071Y-13779929D01*
X9726786Y-13837071D01*
X9712500Y-13865643D01*
X9698214Y-13879929D01*
X9669643Y-13894214D01*
X9641071Y-13894214D01*
X9612500Y-13879929D01*
X9598214Y-13865643D01*
X9583928Y-13837071D01*
X9569643Y-13779929D01*
X9569643Y-13708500D01*
X9583928Y-13651357D01*
X9598214Y-13622786D01*
X9612500Y-13608500D01*
X9641071Y-13594214D01*
X9869643Y-13894214D02*
X9869643Y-13694214D01*
X9869643Y-13722786D02*
X9883928Y-13708500D01*
X9912500Y-13694214D01*
X9955357Y-13694214D01*
X9983928Y-13708500D01*
X9998214Y-13737071D01*
X9998214Y-13894214D01*
X9998214Y-13737071D02*
X10012500Y-13708500D01*
X10041071Y-13694214D01*
X10083928Y-13694214D01*
X10112500Y-13708500D01*
X10126786Y-13737071D01*
X10126786Y-13894214D01*
X10269643Y-13894214D02*
X10269643Y-13694214D01*
X10269643Y-13722786D02*
X10283928Y-13708500D01*
X10312500Y-13694214D01*
X10355357Y-13694214D01*
X10383928Y-13708500D01*
X10398214Y-13737071D01*
X10398214Y-13894214D01*
X10398214Y-13737071D02*
X10412500Y-13708500D01*
X10441071Y-13694214D01*
X10483928Y-13694214D01*
X10512500Y-13708500D01*
X10526786Y-13737071D01*
X10526786Y-13894214D01*
X11112500Y-13579929D02*
X10855357Y-13965643D01*
X11498214Y-13594214D02*
X11526786Y-13594214D01*
X11555357Y-13608500D01*
X11569643Y-13622786D01*
X11583928Y-13651357D01*
X11598214Y-13708500D01*
X11598214Y-13779929D01*
X11583928Y-13837071D01*
X11569643Y-13865643D01*
X11555357Y-13879929D01*
X11526786Y-13894214D01*
X11498214Y-13894214D01*
X11469643Y-13879929D01*
X11455357Y-13865643D01*
X11441071Y-13837071D01*
X11426786Y-13779929D01*
X11426786Y-13708500D01*
X11441071Y-13651357D01*
X11455357Y-13622786D01*
X11469643Y-13608500D01*
X11498214Y-13594214D01*
X11726786Y-13865643D02*
X11741071Y-13879929D01*
X11726786Y-13894214D01*
X11712500Y-13879929D01*
X11726786Y-13865643D01*
X11726786Y-13894214D01*
X11926786Y-13594214D02*
X11955357Y-13594214D01*
X11983928Y-13608500D01*
X11998214Y-13622786D01*
X12012500Y-13651357D01*
X12026786Y-13708500D01*
X12026786Y-13779929D01*
X12012500Y-13837071D01*
X11998214Y-13865643D01*
X11983928Y-13879929D01*
X11955357Y-13894214D01*
X11926786Y-13894214D01*
X11898214Y-13879929D01*
X11883928Y-13865643D01*
X11869643Y-13837071D01*
X11855357Y-13779929D01*
X11855357Y-13708500D01*
X11869643Y-13651357D01*
X11883928Y-13622786D01*
X11898214Y-13608500D01*
X11926786Y-13594214D01*
X12312500Y-13894214D02*
X12141071Y-13894214D01*
X12226786Y-13894214D02*
X12226786Y-13594214D01*
X12198214Y-13637071D01*
X12169643Y-13665643D01*
X12141071Y-13679929D01*
X12583928Y-13594214D02*
X12441071Y-13594214D01*
X12426786Y-13737071D01*
X12441071Y-13722786D01*
X12469643Y-13708500D01*
X12541071Y-13708500D01*
X12569643Y-13722786D01*
X12583928Y-13737071D01*
X12598214Y-13765643D01*
X12598214Y-13837071D01*
X12583928Y-13865643D01*
X12569643Y-13879929D01*
X12541071Y-13894214D01*
X12469643Y-13894214D01*
X12441071Y-13879929D01*
X12426786Y-13865643D01*
X12698214Y-13594214D02*
X12898214Y-13594214D01*
X12769643Y-13894214D01*
X12998214Y-13594214D02*
X12998214Y-13651357D01*
X13112500Y-13594214D02*
X13112500Y-13651357D01*
X13555357Y-14008500D02*
X13541071Y-13994214D01*
X13512500Y-13951357D01*
X13498214Y-13922786D01*
X13483928Y-13879929D01*
X13469643Y-13808500D01*
X13469643Y-13751357D01*
X13483928Y-13679929D01*
X13498214Y-13637071D01*
X13512500Y-13608500D01*
X13541071Y-13565643D01*
X13555357Y-13551357D01*
X13712500Y-13722786D02*
X13683928Y-13708500D01*
X13669643Y-13694214D01*
X13655357Y-13665643D01*
X13655357Y-13651357D01*
X13669643Y-13622786D01*
X13683928Y-13608500D01*
X13712500Y-13594214D01*
X13769643Y-13594214D01*
X13798214Y-13608500D01*
X13812500Y-13622786D01*
X13826786Y-13651357D01*
X13826786Y-13665643D01*
X13812500Y-13694214D01*
X13798214Y-13708500D01*
X13769643Y-13722786D01*
X13712500Y-13722786D01*
X13683928Y-13737071D01*
X13669643Y-13751357D01*
X13655357Y-13779929D01*
X13655357Y-13837071D01*
X13669643Y-13865643D01*
X13683928Y-13879929D01*
X13712500Y-13894214D01*
X13769643Y-13894214D01*
X13798214Y-13879929D01*
X13812500Y-13865643D01*
X13826786Y-13837071D01*
X13826786Y-13779929D01*
X13812500Y-13751357D01*
X13798214Y-13737071D01*
X13769643Y-13722786D01*
X14183928Y-13894214D02*
X14183928Y-13594214D01*
X14312500Y-13894214D02*
X14312500Y-13737071D01*
X14298214Y-13708500D01*
X14269643Y-13694214D01*
X14226786Y-13694214D01*
X14198214Y-13708500D01*
X14183928Y-13722786D01*
X14498214Y-13894214D02*
X14469643Y-13879929D01*
X14455357Y-13865643D01*
X14441071Y-13837071D01*
X14441071Y-13751357D01*
X14455357Y-13722786D01*
X14469643Y-13708500D01*
X14498214Y-13694214D01*
X14541071Y-13694214D01*
X14569643Y-13708500D01*
X14583928Y-13722786D01*
X14598214Y-13751357D01*
X14598214Y-13837071D01*
X14583928Y-13865643D01*
X14569643Y-13879929D01*
X14541071Y-13894214D01*
X14498214Y-13894214D01*
X14769643Y-13894214D02*
X14741071Y-13879929D01*
X14726786Y-13851357D01*
X14726786Y-13594214D01*
X14998214Y-13879929D02*
X14969643Y-13894214D01*
X14912500Y-13894214D01*
X14883928Y-13879929D01*
X14869643Y-13851357D01*
X14869643Y-13737071D01*
X14883928Y-13708500D01*
X14912500Y-13694214D01*
X14969643Y-13694214D01*
X14998214Y-13708500D01*
X15012500Y-13737071D01*
X15012500Y-13765643D01*
X14869643Y-13794214D01*
X15126786Y-13879929D02*
X15155357Y-13894214D01*
X15212500Y-13894214D01*
X15241071Y-13879929D01*
X15255357Y-13851357D01*
X15255357Y-13837071D01*
X15241071Y-13808500D01*
X15212500Y-13794214D01*
X15169643Y-13794214D01*
X15141071Y-13779929D01*
X15126786Y-13751357D01*
X15126786Y-13737071D01*
X15141071Y-13708500D01*
X15169643Y-13694214D01*
X15212500Y-13694214D01*
X15241071Y-13708500D01*
X15355357Y-14008500D02*
X15369643Y-13994214D01*
X15398214Y-13951357D01*
X15412500Y-13922786D01*
X15426786Y-13879929D01*
X15441071Y-13808500D01*
X15441071Y-13751357D01*
X15426786Y-13679929D01*
X15412500Y-13637071D01*
X15398214Y-13608500D01*
X15369643Y-13565643D01*
X15355357Y-13551357D01*
X8252500Y-14109500D02*
X8252500Y-14199500D01*
X8207500Y-14154500D02*
X8297500Y-14154500D01*
X8641071Y-13990214D02*
X8669643Y-13990214D01*
X8698214Y-14004500D01*
X8712500Y-14018786D01*
X8726786Y-14047357D01*
X8741071Y-14104500D01*
X8741071Y-14175929D01*
X8726786Y-14233071D01*
X8712500Y-14261643D01*
X8698214Y-14275929D01*
X8669643Y-14290214D01*
X8641071Y-14290214D01*
X8612500Y-14275929D01*
X8598214Y-14261643D01*
X8583928Y-14233071D01*
X8569643Y-14175929D01*
X8569643Y-14104500D01*
X8583928Y-14047357D01*
X8598214Y-14018786D01*
X8612500Y-14004500D01*
X8641071Y-13990214D01*
X8869643Y-14261643D02*
X8883928Y-14275929D01*
X8869643Y-14290214D01*
X8855357Y-14275929D01*
X8869643Y-14261643D01*
X8869643Y-14290214D01*
X9026786Y-14290214D02*
X9083928Y-14290214D01*
X9112500Y-14275929D01*
X9126786Y-14261643D01*
X9155357Y-14218786D01*
X9169643Y-14161643D01*
X9169643Y-14047357D01*
X9155357Y-14018786D01*
X9141071Y-14004500D01*
X9112500Y-13990214D01*
X9055357Y-13990214D01*
X9026786Y-14004500D01*
X9012500Y-14018786D01*
X8998214Y-14047357D01*
X8998214Y-14118786D01*
X9012500Y-14147357D01*
X9026786Y-14161643D01*
X9055357Y-14175929D01*
X9112500Y-14175929D01*
X9141071Y-14161643D01*
X9155357Y-14147357D01*
X9169643Y-14118786D01*
X9355357Y-13990214D02*
X9383928Y-13990214D01*
X9412500Y-14004500D01*
X9426786Y-14018786D01*
X9441071Y-14047357D01*
X9455357Y-14104500D01*
X9455357Y-14175929D01*
X9441071Y-14233071D01*
X9426786Y-14261643D01*
X9412500Y-14275929D01*
X9383928Y-14290214D01*
X9355357Y-14290214D01*
X9326786Y-14275929D01*
X9312500Y-14261643D01*
X9298214Y-14233071D01*
X9283928Y-14175929D01*
X9283928Y-14104500D01*
X9298214Y-14047357D01*
X9312500Y-14018786D01*
X9326786Y-14004500D01*
X9355357Y-13990214D01*
X9641071Y-13990214D02*
X9669643Y-13990214D01*
X9698214Y-14004500D01*
X9712500Y-14018786D01*
X9726786Y-14047357D01*
X9741071Y-14104500D01*
X9741071Y-14175929D01*
X9726786Y-14233071D01*
X9712500Y-14261643D01*
X9698214Y-14275929D01*
X9669643Y-14290214D01*
X9641071Y-14290214D01*
X9612500Y-14275929D01*
X9598214Y-14261643D01*
X9583928Y-14233071D01*
X9569643Y-14175929D01*
X9569643Y-14104500D01*
X9583928Y-14047357D01*
X9598214Y-14018786D01*
X9612500Y-14004500D01*
X9641071Y-13990214D01*
X9869643Y-14290214D02*
X9869643Y-14090214D01*
X9869643Y-14118786D02*
X9883928Y-14104500D01*
X9912500Y-14090214D01*
X9955357Y-14090214D01*
X9983928Y-14104500D01*
X9998214Y-14133071D01*
X9998214Y-14290214D01*
X9998214Y-14133071D02*
X10012500Y-14104500D01*
X10041071Y-14090214D01*
X10083928Y-14090214D01*
X10112500Y-14104500D01*
X10126786Y-14133071D01*
X10126786Y-14290214D01*
X10269643Y-14290214D02*
X10269643Y-14090214D01*
X10269643Y-14118786D02*
X10283928Y-14104500D01*
X10312500Y-14090214D01*
X10355357Y-14090214D01*
X10383928Y-14104500D01*
X10398214Y-14133071D01*
X10398214Y-14290214D01*
X10398214Y-14133071D02*
X10412500Y-14104500D01*
X10441071Y-14090214D01*
X10483928Y-14090214D01*
X10512500Y-14104500D01*
X10526786Y-14133071D01*
X10526786Y-14290214D01*
X11112500Y-13975929D02*
X10855357Y-14361643D01*
X11498214Y-13990214D02*
X11526786Y-13990214D01*
X11555357Y-14004500D01*
X11569643Y-14018786D01*
X11583928Y-14047357D01*
X11598214Y-14104500D01*
X11598214Y-14175929D01*
X11583928Y-14233071D01*
X11569643Y-14261643D01*
X11555357Y-14275929D01*
X11526786Y-14290214D01*
X11498214Y-14290214D01*
X11469643Y-14275929D01*
X11455357Y-14261643D01*
X11441071Y-14233071D01*
X11426786Y-14175929D01*
X11426786Y-14104500D01*
X11441071Y-14047357D01*
X11455357Y-14018786D01*
X11469643Y-14004500D01*
X11498214Y-13990214D01*
X11726786Y-14261643D02*
X11741071Y-14275929D01*
X11726786Y-14290214D01*
X11712500Y-14275929D01*
X11726786Y-14261643D01*
X11726786Y-14290214D01*
X11926786Y-13990214D02*
X11955357Y-13990214D01*
X11983928Y-14004500D01*
X11998214Y-14018786D01*
X12012500Y-14047357D01*
X12026786Y-14104500D01*
X12026786Y-14175929D01*
X12012500Y-14233071D01*
X11998214Y-14261643D01*
X11983928Y-14275929D01*
X11955357Y-14290214D01*
X11926786Y-14290214D01*
X11898214Y-14275929D01*
X11883928Y-14261643D01*
X11869643Y-14233071D01*
X11855357Y-14175929D01*
X11855357Y-14104500D01*
X11869643Y-14047357D01*
X11883928Y-14018786D01*
X11898214Y-14004500D01*
X11926786Y-13990214D01*
X12126786Y-13990214D02*
X12312500Y-13990214D01*
X12212500Y-14104500D01*
X12255357Y-14104500D01*
X12283928Y-14118786D01*
X12298214Y-14133071D01*
X12312500Y-14161643D01*
X12312500Y-14233071D01*
X12298214Y-14261643D01*
X12283928Y-14275929D01*
X12255357Y-14290214D01*
X12169643Y-14290214D01*
X12141071Y-14275929D01*
X12126786Y-14261643D01*
X12583928Y-13990214D02*
X12441071Y-13990214D01*
X12426786Y-14133071D01*
X12441071Y-14118786D01*
X12469643Y-14104500D01*
X12541071Y-14104500D01*
X12569643Y-14118786D01*
X12583928Y-14133071D01*
X12598214Y-14161643D01*
X12598214Y-14233071D01*
X12583928Y-14261643D01*
X12569643Y-14275929D01*
X12541071Y-14290214D01*
X12469643Y-14290214D01*
X12441071Y-14275929D01*
X12426786Y-14261643D01*
X12855357Y-14090214D02*
X12855357Y-14290214D01*
X12783928Y-13975929D02*
X12712500Y-14190214D01*
X12898214Y-14190214D01*
X12998214Y-13990214D02*
X12998214Y-14047357D01*
X13112500Y-13990214D02*
X13112500Y-14047357D01*
X13555357Y-14404500D02*
X13541071Y-14390214D01*
X13512500Y-14347357D01*
X13498214Y-14318786D01*
X13483928Y-14275929D01*
X13469643Y-14204500D01*
X13469643Y-14147357D01*
X13483928Y-14075929D01*
X13498214Y-14033071D01*
X13512500Y-14004500D01*
X13541071Y-13961643D01*
X13555357Y-13947357D01*
X13798214Y-13990214D02*
X13741071Y-13990214D01*
X13712500Y-14004500D01*
X13698214Y-14018786D01*
X13669643Y-14061643D01*
X13655357Y-14118786D01*
X13655357Y-14233071D01*
X13669643Y-14261643D01*
X13683928Y-14275929D01*
X13712500Y-14290214D01*
X13769643Y-14290214D01*
X13798214Y-14275929D01*
X13812500Y-14261643D01*
X13826786Y-14233071D01*
X13826786Y-14161643D01*
X13812500Y-14133071D01*
X13798214Y-14118786D01*
X13769643Y-14104500D01*
X13712500Y-14104500D01*
X13683928Y-14118786D01*
X13669643Y-14133071D01*
X13655357Y-14161643D01*
X14183928Y-14290214D02*
X14183928Y-13990214D01*
X14312500Y-14290214D02*
X14312500Y-14133071D01*
X14298214Y-14104500D01*
X14269643Y-14090214D01*
X14226786Y-14090214D01*
X14198214Y-14104500D01*
X14183928Y-14118786D01*
X14498214Y-14290214D02*
X14469643Y-14275929D01*
X14455357Y-14261643D01*
X14441071Y-14233071D01*
X14441071Y-14147357D01*
X14455357Y-14118786D01*
X14469643Y-14104500D01*
X14498214Y-14090214D01*
X14541071Y-14090214D01*
X14569643Y-14104500D01*
X14583928Y-14118786D01*
X14598214Y-14147357D01*
X14598214Y-14233071D01*
X14583928Y-14261643D01*
X14569643Y-14275929D01*
X14541071Y-14290214D01*
X14498214Y-14290214D01*
X14769643Y-14290214D02*
X14741071Y-14275929D01*
X14726786Y-14247357D01*
X14726786Y-13990214D01*
X14998214Y-14275929D02*
X14969643Y-14290214D01*
X14912500Y-14290214D01*
X14883928Y-14275929D01*
X14869643Y-14247357D01*
X14869643Y-14133071D01*
X14883928Y-14104500D01*
X14912500Y-14090214D01*
X14969643Y-14090214D01*
X14998214Y-14104500D01*
X15012500Y-14133071D01*
X15012500Y-14161643D01*
X14869643Y-14190214D01*
X15126786Y-14275929D02*
X15155357Y-14290214D01*
X15212500Y-14290214D01*
X15241071Y-14275929D01*
X15255357Y-14247357D01*
X15255357Y-14233071D01*
X15241071Y-14204500D01*
X15212500Y-14190214D01*
X15169643Y-14190214D01*
X15141071Y-14175929D01*
X15126786Y-14147357D01*
X15126786Y-14133071D01*
X15141071Y-14104500D01*
X15169643Y-14090214D01*
X15212500Y-14090214D01*
X15241071Y-14104500D01*
X15355357Y-14404500D02*
X15369643Y-14390214D01*
X15398214Y-14347357D01*
X15412500Y-14318786D01*
X15426786Y-14275929D01*
X15441071Y-14204500D01*
X15441071Y-14147357D01*
X15426786Y-14075929D01*
X15412500Y-14033071D01*
X15398214Y-14004500D01*
X15369643Y-13961643D01*
X15355357Y-13947357D01*
X8283002Y-14585502D02*
X8283002Y-14515498D01*
X8212998Y-14515498D01*
X8212998Y-14585502D01*
X8283002Y-14585502D01*
X8641071Y-14386214D02*
X8669643Y-14386214D01*
X8698214Y-14400500D01*
X8712500Y-14414786D01*
X8726786Y-14443357D01*
X8741071Y-14500500D01*
X8741071Y-14571929D01*
X8726786Y-14629071D01*
X8712500Y-14657643D01*
X8698214Y-14671929D01*
X8669643Y-14686214D01*
X8641071Y-14686214D01*
X8612500Y-14671929D01*
X8598214Y-14657643D01*
X8583928Y-14629071D01*
X8569643Y-14571929D01*
X8569643Y-14500500D01*
X8583928Y-14443357D01*
X8598214Y-14414786D01*
X8612500Y-14400500D01*
X8641071Y-14386214D01*
X8869643Y-14657643D02*
X8883928Y-14671929D01*
X8869643Y-14686214D01*
X8855357Y-14671929D01*
X8869643Y-14657643D01*
X8869643Y-14686214D01*
X9026786Y-14686214D02*
X9083928Y-14686214D01*
X9112500Y-14671929D01*
X9126786Y-14657643D01*
X9155357Y-14614786D01*
X9169643Y-14557643D01*
X9169643Y-14443357D01*
X9155357Y-14414786D01*
X9141071Y-14400500D01*
X9112500Y-14386214D01*
X9055357Y-14386214D01*
X9026786Y-14400500D01*
X9012500Y-14414786D01*
X8998214Y-14443357D01*
X8998214Y-14514786D01*
X9012500Y-14543357D01*
X9026786Y-14557643D01*
X9055357Y-14571929D01*
X9112500Y-14571929D01*
X9141071Y-14557643D01*
X9155357Y-14543357D01*
X9169643Y-14514786D01*
X9312500Y-14686214D02*
X9369643Y-14686214D01*
X9398214Y-14671929D01*
X9412500Y-14657643D01*
X9441071Y-14614786D01*
X9455357Y-14557643D01*
X9455357Y-14443357D01*
X9441071Y-14414786D01*
X9426786Y-14400500D01*
X9398214Y-14386214D01*
X9341071Y-14386214D01*
X9312500Y-14400500D01*
X9298214Y-14414786D01*
X9283928Y-14443357D01*
X9283928Y-14514786D01*
X9298214Y-14543357D01*
X9312500Y-14557643D01*
X9341071Y-14571929D01*
X9398214Y-14571929D01*
X9426786Y-14557643D01*
X9441071Y-14543357D01*
X9455357Y-14514786D01*
X9641071Y-14386214D02*
X9669643Y-14386214D01*
X9698214Y-14400500D01*
X9712500Y-14414786D01*
X9726786Y-14443357D01*
X9741071Y-14500500D01*
X9741071Y-14571929D01*
X9726786Y-14629071D01*
X9712500Y-14657643D01*
X9698214Y-14671929D01*
X9669643Y-14686214D01*
X9641071Y-14686214D01*
X9612500Y-14671929D01*
X9598214Y-14657643D01*
X9583928Y-14629071D01*
X9569643Y-14571929D01*
X9569643Y-14500500D01*
X9583928Y-14443357D01*
X9598214Y-14414786D01*
X9612500Y-14400500D01*
X9641071Y-14386214D01*
X9869643Y-14686214D02*
X9869643Y-14486214D01*
X9869643Y-14514786D02*
X9883928Y-14500500D01*
X9912500Y-14486214D01*
X9955357Y-14486214D01*
X9983928Y-14500500D01*
X9998214Y-14529071D01*
X9998214Y-14686214D01*
X9998214Y-14529071D02*
X10012500Y-14500500D01*
X10041071Y-14486214D01*
X10083928Y-14486214D01*
X10112500Y-14500500D01*
X10126786Y-14529071D01*
X10126786Y-14686214D01*
X10269643Y-14686214D02*
X10269643Y-14486214D01*
X10269643Y-14514786D02*
X10283928Y-14500500D01*
X10312500Y-14486214D01*
X10355357Y-14486214D01*
X10383928Y-14500500D01*
X10398214Y-14529071D01*
X10398214Y-14686214D01*
X10398214Y-14529071D02*
X10412500Y-14500500D01*
X10441071Y-14486214D01*
X10483928Y-14486214D01*
X10512500Y-14500500D01*
X10526786Y-14529071D01*
X10526786Y-14686214D01*
X11112500Y-14371929D02*
X10855357Y-14757643D01*
X11498214Y-14386214D02*
X11526786Y-14386214D01*
X11555357Y-14400500D01*
X11569643Y-14414786D01*
X11583928Y-14443357D01*
X11598214Y-14500500D01*
X11598214Y-14571929D01*
X11583928Y-14629071D01*
X11569643Y-14657643D01*
X11555357Y-14671929D01*
X11526786Y-14686214D01*
X11498214Y-14686214D01*
X11469643Y-14671929D01*
X11455357Y-14657643D01*
X11441071Y-14629071D01*
X11426786Y-14571929D01*
X11426786Y-14500500D01*
X11441071Y-14443357D01*
X11455357Y-14414786D01*
X11469643Y-14400500D01*
X11498214Y-14386214D01*
X11726786Y-14657643D02*
X11741071Y-14671929D01*
X11726786Y-14686214D01*
X11712500Y-14671929D01*
X11726786Y-14657643D01*
X11726786Y-14686214D01*
X11926786Y-14386214D02*
X11955357Y-14386214D01*
X11983928Y-14400500D01*
X11998214Y-14414786D01*
X12012500Y-14443357D01*
X12026786Y-14500500D01*
X12026786Y-14571929D01*
X12012500Y-14629071D01*
X11998214Y-14657643D01*
X11983928Y-14671929D01*
X11955357Y-14686214D01*
X11926786Y-14686214D01*
X11898214Y-14671929D01*
X11883928Y-14657643D01*
X11869643Y-14629071D01*
X11855357Y-14571929D01*
X11855357Y-14500500D01*
X11869643Y-14443357D01*
X11883928Y-14414786D01*
X11898214Y-14400500D01*
X11926786Y-14386214D01*
X12126786Y-14386214D02*
X12312500Y-14386214D01*
X12212500Y-14500500D01*
X12255357Y-14500500D01*
X12283928Y-14514786D01*
X12298214Y-14529071D01*
X12312500Y-14557643D01*
X12312500Y-14629071D01*
X12298214Y-14657643D01*
X12283928Y-14671929D01*
X12255357Y-14686214D01*
X12169643Y-14686214D01*
X12141071Y-14671929D01*
X12126786Y-14657643D01*
X12455357Y-14686214D02*
X12512500Y-14686214D01*
X12541071Y-14671929D01*
X12555357Y-14657643D01*
X12583928Y-14614786D01*
X12598214Y-14557643D01*
X12598214Y-14443357D01*
X12583928Y-14414786D01*
X12569643Y-14400500D01*
X12541071Y-14386214D01*
X12483928Y-14386214D01*
X12455357Y-14400500D01*
X12441071Y-14414786D01*
X12426786Y-14443357D01*
X12426786Y-14514786D01*
X12441071Y-14543357D01*
X12455357Y-14557643D01*
X12483928Y-14571929D01*
X12541071Y-14571929D01*
X12569643Y-14557643D01*
X12583928Y-14543357D01*
X12598214Y-14514786D01*
X12783928Y-14386214D02*
X12812500Y-14386214D01*
X12841071Y-14400500D01*
X12855357Y-14414786D01*
X12869643Y-14443357D01*
X12883928Y-14500500D01*
X12883928Y-14571929D01*
X12869643Y-14629071D01*
X12855357Y-14657643D01*
X12841071Y-14671929D01*
X12812500Y-14686214D01*
X12783928Y-14686214D01*
X12755357Y-14671929D01*
X12741071Y-14657643D01*
X12726786Y-14629071D01*
X12712500Y-14571929D01*
X12712500Y-14500500D01*
X12726786Y-14443357D01*
X12741071Y-14414786D01*
X12755357Y-14400500D01*
X12783928Y-14386214D01*
X12998214Y-14386214D02*
X12998214Y-14443357D01*
X13112500Y-14386214D02*
X13112500Y-14443357D01*
X13555357Y-14800500D02*
X13541071Y-14786214D01*
X13512500Y-14743357D01*
X13498214Y-14714786D01*
X13483928Y-14671929D01*
X13469643Y-14600500D01*
X13469643Y-14543357D01*
X13483928Y-14471929D01*
X13498214Y-14429071D01*
X13512500Y-14400500D01*
X13541071Y-14357643D01*
X13555357Y-14343357D01*
X13712500Y-14514786D02*
X13683928Y-14500500D01*
X13669643Y-14486214D01*
X13655357Y-14457643D01*
X13655357Y-14443357D01*
X13669643Y-14414786D01*
X13683928Y-14400500D01*
X13712500Y-14386214D01*
X13769643Y-14386214D01*
X13798214Y-14400500D01*
X13812500Y-14414786D01*
X13826786Y-14443357D01*
X13826786Y-14457643D01*
X13812500Y-14486214D01*
X13798214Y-14500500D01*
X13769643Y-14514786D01*
X13712500Y-14514786D01*
X13683928Y-14529071D01*
X13669643Y-14543357D01*
X13655357Y-14571929D01*
X13655357Y-14629071D01*
X13669643Y-14657643D01*
X13683928Y-14671929D01*
X13712500Y-14686214D01*
X13769643Y-14686214D01*
X13798214Y-14671929D01*
X13812500Y-14657643D01*
X13826786Y-14629071D01*
X13826786Y-14571929D01*
X13812500Y-14543357D01*
X13798214Y-14529071D01*
X13769643Y-14514786D01*
X14183928Y-14686214D02*
X14183928Y-14386214D01*
X14312500Y-14686214D02*
X14312500Y-14529071D01*
X14298214Y-14500500D01*
X14269643Y-14486214D01*
X14226786Y-14486214D01*
X14198214Y-14500500D01*
X14183928Y-14514786D01*
X14498214Y-14686214D02*
X14469643Y-14671929D01*
X14455357Y-14657643D01*
X14441071Y-14629071D01*
X14441071Y-14543357D01*
X14455357Y-14514786D01*
X14469643Y-14500500D01*
X14498214Y-14486214D01*
X14541071Y-14486214D01*
X14569643Y-14500500D01*
X14583928Y-14514786D01*
X14598214Y-14543357D01*
X14598214Y-14629071D01*
X14583928Y-14657643D01*
X14569643Y-14671929D01*
X14541071Y-14686214D01*
X14498214Y-14686214D01*
X14769643Y-14686214D02*
X14741071Y-14671929D01*
X14726786Y-14643357D01*
X14726786Y-14386214D01*
X14998214Y-14671929D02*
X14969643Y-14686214D01*
X14912500Y-14686214D01*
X14883928Y-14671929D01*
X14869643Y-14643357D01*
X14869643Y-14529071D01*
X14883928Y-14500500D01*
X14912500Y-14486214D01*
X14969643Y-14486214D01*
X14998214Y-14500500D01*
X15012500Y-14529071D01*
X15012500Y-14557643D01*
X14869643Y-14586214D01*
X15126786Y-14671929D02*
X15155357Y-14686214D01*
X15212500Y-14686214D01*
X15241071Y-14671929D01*
X15255357Y-14643357D01*
X15255357Y-14629071D01*
X15241071Y-14600500D01*
X15212500Y-14586214D01*
X15169643Y-14586214D01*
X15141071Y-14571929D01*
X15126786Y-14543357D01*
X15126786Y-14529071D01*
X15141071Y-14500500D01*
X15169643Y-14486214D01*
X15212500Y-14486214D01*
X15241071Y-14500500D01*
X15355357Y-14800500D02*
X15369643Y-14786214D01*
X15398214Y-14743357D01*
X15412500Y-14714786D01*
X15426786Y-14671929D01*
X15441071Y-14600500D01*
X15441071Y-14543357D01*
X15426786Y-14471929D01*
X15412500Y-14429071D01*
X15398214Y-14400500D01*
X15369643Y-14357643D01*
X15355357Y-14343357D01*
X8247500Y-14996500D02*
X8297500Y-14946500D01*
X8247500Y-14896500D01*
X8197500Y-14946500D01*
X8247500Y-14996500D01*
X8741071Y-15082214D02*
X8569643Y-15082214D01*
X8655357Y-15082214D02*
X8655357Y-14782214D01*
X8626786Y-14825071D01*
X8598214Y-14853643D01*
X8569643Y-14867929D01*
X8869643Y-15053643D02*
X8883928Y-15067929D01*
X8869643Y-15082214D01*
X8855357Y-15067929D01*
X8869643Y-15053643D01*
X8869643Y-15082214D01*
X9069643Y-14782214D02*
X9098214Y-14782214D01*
X9126786Y-14796500D01*
X9141071Y-14810786D01*
X9155357Y-14839357D01*
X9169643Y-14896500D01*
X9169643Y-14967929D01*
X9155357Y-15025071D01*
X9141071Y-15053643D01*
X9126786Y-15067929D01*
X9098214Y-15082214D01*
X9069643Y-15082214D01*
X9041071Y-15067929D01*
X9026786Y-15053643D01*
X9012500Y-15025071D01*
X8998214Y-14967929D01*
X8998214Y-14896500D01*
X9012500Y-14839357D01*
X9026786Y-14810786D01*
X9041071Y-14796500D01*
X9069643Y-14782214D01*
X9355357Y-14782214D02*
X9383928Y-14782214D01*
X9412500Y-14796500D01*
X9426786Y-14810786D01*
X9441071Y-14839357D01*
X9455357Y-14896500D01*
X9455357Y-14967929D01*
X9441071Y-15025071D01*
X9426786Y-15053643D01*
X9412500Y-15067929D01*
X9383928Y-15082214D01*
X9355357Y-15082214D01*
X9326786Y-15067929D01*
X9312500Y-15053643D01*
X9298214Y-15025071D01*
X9283928Y-14967929D01*
X9283928Y-14896500D01*
X9298214Y-14839357D01*
X9312500Y-14810786D01*
X9326786Y-14796500D01*
X9355357Y-14782214D01*
X9641071Y-14782214D02*
X9669643Y-14782214D01*
X9698214Y-14796500D01*
X9712500Y-14810786D01*
X9726786Y-14839357D01*
X9741071Y-14896500D01*
X9741071Y-14967929D01*
X9726786Y-15025071D01*
X9712500Y-15053643D01*
X9698214Y-15067929D01*
X9669643Y-15082214D01*
X9641071Y-15082214D01*
X9612500Y-15067929D01*
X9598214Y-15053643D01*
X9583928Y-15025071D01*
X9569643Y-14967929D01*
X9569643Y-14896500D01*
X9583928Y-14839357D01*
X9598214Y-14810786D01*
X9612500Y-14796500D01*
X9641071Y-14782214D01*
X9869643Y-15082214D02*
X9869643Y-14882214D01*
X9869643Y-14910786D02*
X9883928Y-14896500D01*
X9912500Y-14882214D01*
X9955357Y-14882214D01*
X9983928Y-14896500D01*
X9998214Y-14925071D01*
X9998214Y-15082214D01*
X9998214Y-14925071D02*
X10012500Y-14896500D01*
X10041071Y-14882214D01*
X10083928Y-14882214D01*
X10112500Y-14896500D01*
X10126786Y-14925071D01*
X10126786Y-15082214D01*
X10269643Y-15082214D02*
X10269643Y-14882214D01*
X10269643Y-14910786D02*
X10283928Y-14896500D01*
X10312500Y-14882214D01*
X10355357Y-14882214D01*
X10383928Y-14896500D01*
X10398214Y-14925071D01*
X10398214Y-15082214D01*
X10398214Y-14925071D02*
X10412500Y-14896500D01*
X10441071Y-14882214D01*
X10483928Y-14882214D01*
X10512500Y-14896500D01*
X10526786Y-14925071D01*
X10526786Y-15082214D01*
X11112500Y-14767929D02*
X10855357Y-15153643D01*
X11498214Y-14782214D02*
X11526786Y-14782214D01*
X11555357Y-14796500D01*
X11569643Y-14810786D01*
X11583928Y-14839357D01*
X11598214Y-14896500D01*
X11598214Y-14967929D01*
X11583928Y-15025071D01*
X11569643Y-15053643D01*
X11555357Y-15067929D01*
X11526786Y-15082214D01*
X11498214Y-15082214D01*
X11469643Y-15067929D01*
X11455357Y-15053643D01*
X11441071Y-15025071D01*
X11426786Y-14967929D01*
X11426786Y-14896500D01*
X11441071Y-14839357D01*
X11455357Y-14810786D01*
X11469643Y-14796500D01*
X11498214Y-14782214D01*
X11726786Y-15053643D02*
X11741071Y-15067929D01*
X11726786Y-15082214D01*
X11712500Y-15067929D01*
X11726786Y-15053643D01*
X11726786Y-15082214D01*
X11926786Y-14782214D02*
X11955357Y-14782214D01*
X11983928Y-14796500D01*
X11998214Y-14810786D01*
X12012500Y-14839357D01*
X12026786Y-14896500D01*
X12026786Y-14967929D01*
X12012500Y-15025071D01*
X11998214Y-15053643D01*
X11983928Y-15067929D01*
X11955357Y-15082214D01*
X11926786Y-15082214D01*
X11898214Y-15067929D01*
X11883928Y-15053643D01*
X11869643Y-15025071D01*
X11855357Y-14967929D01*
X11855357Y-14896500D01*
X11869643Y-14839357D01*
X11883928Y-14810786D01*
X11898214Y-14796500D01*
X11926786Y-14782214D01*
X12126786Y-14782214D02*
X12312500Y-14782214D01*
X12212500Y-14896500D01*
X12255357Y-14896500D01*
X12283928Y-14910786D01*
X12298214Y-14925071D01*
X12312500Y-14953643D01*
X12312500Y-15025071D01*
X12298214Y-15053643D01*
X12283928Y-15067929D01*
X12255357Y-15082214D01*
X12169643Y-15082214D01*
X12141071Y-15067929D01*
X12126786Y-15053643D01*
X12455357Y-15082214D02*
X12512500Y-15082214D01*
X12541071Y-15067929D01*
X12555357Y-15053643D01*
X12583928Y-15010786D01*
X12598214Y-14953643D01*
X12598214Y-14839357D01*
X12583928Y-14810786D01*
X12569643Y-14796500D01*
X12541071Y-14782214D01*
X12483928Y-14782214D01*
X12455357Y-14796500D01*
X12441071Y-14810786D01*
X12426786Y-14839357D01*
X12426786Y-14910786D01*
X12441071Y-14939357D01*
X12455357Y-14953643D01*
X12483928Y-14967929D01*
X12541071Y-14967929D01*
X12569643Y-14953643D01*
X12583928Y-14939357D01*
X12598214Y-14910786D01*
X12855357Y-14882214D02*
X12855357Y-15082214D01*
X12783928Y-14767929D02*
X12712500Y-14982214D01*
X12898214Y-14982214D01*
X12998214Y-14782214D02*
X12998214Y-14839357D01*
X13112500Y-14782214D02*
X13112500Y-14839357D01*
X13555357Y-15196500D02*
X13541071Y-15182214D01*
X13512500Y-15139357D01*
X13498214Y-15110786D01*
X13483928Y-15067929D01*
X13469643Y-14996500D01*
X13469643Y-14939357D01*
X13483928Y-14867929D01*
X13498214Y-14825071D01*
X13512500Y-14796500D01*
X13541071Y-14753643D01*
X13555357Y-14739357D01*
X13655357Y-14810786D02*
X13669643Y-14796500D01*
X13698214Y-14782214D01*
X13769643Y-14782214D01*
X13798214Y-14796500D01*
X13812500Y-14810786D01*
X13826786Y-14839357D01*
X13826786Y-14867929D01*
X13812500Y-14910786D01*
X13641071Y-15082214D01*
X13826786Y-15082214D01*
X14112500Y-15082214D02*
X13941071Y-15082214D01*
X14026786Y-15082214D02*
X14026786Y-14782214D01*
X13998214Y-14825071D01*
X13969643Y-14853643D01*
X13941071Y-14867929D01*
X14469643Y-15082214D02*
X14469643Y-14782214D01*
X14598214Y-15082214D02*
X14598214Y-14925071D01*
X14583928Y-14896500D01*
X14555357Y-14882214D01*
X14512500Y-14882214D01*
X14483928Y-14896500D01*
X14469643Y-14910786D01*
X14783928Y-15082214D02*
X14755357Y-15067929D01*
X14741071Y-15053643D01*
X14726786Y-15025071D01*
X14726786Y-14939357D01*
X14741071Y-14910786D01*
X14755357Y-14896500D01*
X14783928Y-14882214D01*
X14826786Y-14882214D01*
X14855357Y-14896500D01*
X14869643Y-14910786D01*
X14883928Y-14939357D01*
X14883928Y-15025071D01*
X14869643Y-15053643D01*
X14855357Y-15067929D01*
X14826786Y-15082214D01*
X14783928Y-15082214D01*
X15055357Y-15082214D02*
X15026786Y-15067929D01*
X15012500Y-15039357D01*
X15012500Y-14782214D01*
X15283928Y-15067929D02*
X15255357Y-15082214D01*
X15198214Y-15082214D01*
X15169643Y-15067929D01*
X15155357Y-15039357D01*
X15155357Y-14925071D01*
X15169643Y-14896500D01*
X15198214Y-14882214D01*
X15255357Y-14882214D01*
X15283928Y-14896500D01*
X15298214Y-14925071D01*
X15298214Y-14953643D01*
X15155357Y-14982214D01*
X15412500Y-15067929D02*
X15441071Y-15082214D01*
X15498214Y-15082214D01*
X15526786Y-15067929D01*
X15541071Y-15039357D01*
X15541071Y-15025071D01*
X15526786Y-14996500D01*
X15498214Y-14982214D01*
X15455357Y-14982214D01*
X15426786Y-14967929D01*
X15412500Y-14939357D01*
X15412500Y-14925071D01*
X15426786Y-14896500D01*
X15455357Y-14882214D01*
X15498214Y-14882214D01*
X15526786Y-14896500D01*
X15641071Y-15196500D02*
X15655357Y-15182214D01*
X15683928Y-15139357D01*
X15698214Y-15110786D01*
X15712500Y-15067929D01*
X15726786Y-14996500D01*
X15726786Y-14939357D01*
X15712500Y-14867929D01*
X15698214Y-14825071D01*
X15683928Y-14796500D01*
X15655357Y-14753643D01*
X15641071Y-14739357D01*
X8167500Y-15277500D02*
X8297500Y-15407500D01*
X8297500Y-15277500D02*
X8167500Y-15407500D01*
X8297500Y-15342500D02*
G75*
G03*
X8297500Y-15342500I-65000J0D01*
G01*
X8741071Y-15478214D02*
X8569643Y-15478214D01*
X8655357Y-15478214D02*
X8655357Y-15178214D01*
X8626786Y-15221071D01*
X8598214Y-15249643D01*
X8569643Y-15263929D01*
X8869643Y-15449643D02*
X8883928Y-15463929D01*
X8869643Y-15478214D01*
X8855357Y-15463929D01*
X8869643Y-15449643D01*
X8869643Y-15478214D01*
X8983928Y-15178214D02*
X9169643Y-15178214D01*
X9069643Y-15292500D01*
X9112500Y-15292500D01*
X9141071Y-15306786D01*
X9155357Y-15321071D01*
X9169643Y-15349643D01*
X9169643Y-15421071D01*
X9155357Y-15449643D01*
X9141071Y-15463929D01*
X9112500Y-15478214D01*
X9026786Y-15478214D01*
X8998214Y-15463929D01*
X8983928Y-15449643D01*
X9355357Y-15178214D02*
X9383928Y-15178214D01*
X9412500Y-15192500D01*
X9426786Y-15206786D01*
X9441071Y-15235357D01*
X9455357Y-15292500D01*
X9455357Y-15363929D01*
X9441071Y-15421071D01*
X9426786Y-15449643D01*
X9412500Y-15463929D01*
X9383928Y-15478214D01*
X9355357Y-15478214D01*
X9326786Y-15463929D01*
X9312500Y-15449643D01*
X9298214Y-15421071D01*
X9283928Y-15363929D01*
X9283928Y-15292500D01*
X9298214Y-15235357D01*
X9312500Y-15206786D01*
X9326786Y-15192500D01*
X9355357Y-15178214D01*
X9641071Y-15178214D02*
X9669643Y-15178214D01*
X9698214Y-15192500D01*
X9712500Y-15206786D01*
X9726786Y-15235357D01*
X9741071Y-15292500D01*
X9741071Y-15363929D01*
X9726786Y-15421071D01*
X9712500Y-15449643D01*
X9698214Y-15463929D01*
X9669643Y-15478214D01*
X9641071Y-15478214D01*
X9612500Y-15463929D01*
X9598214Y-15449643D01*
X9583928Y-15421071D01*
X9569643Y-15363929D01*
X9569643Y-15292500D01*
X9583928Y-15235357D01*
X9598214Y-15206786D01*
X9612500Y-15192500D01*
X9641071Y-15178214D01*
X9869643Y-15478214D02*
X9869643Y-15278214D01*
X9869643Y-15306786D02*
X9883928Y-15292500D01*
X9912500Y-15278214D01*
X9955357Y-15278214D01*
X9983928Y-15292500D01*
X9998214Y-15321071D01*
X9998214Y-15478214D01*
X9998214Y-15321071D02*
X10012500Y-15292500D01*
X10041071Y-15278214D01*
X10083928Y-15278214D01*
X10112500Y-15292500D01*
X10126786Y-15321071D01*
X10126786Y-15478214D01*
X10269643Y-15478214D02*
X10269643Y-15278214D01*
X10269643Y-15306786D02*
X10283928Y-15292500D01*
X10312500Y-15278214D01*
X10355357Y-15278214D01*
X10383928Y-15292500D01*
X10398214Y-15321071D01*
X10398214Y-15478214D01*
X10398214Y-15321071D02*
X10412500Y-15292500D01*
X10441071Y-15278214D01*
X10483928Y-15278214D01*
X10512500Y-15292500D01*
X10526786Y-15321071D01*
X10526786Y-15478214D01*
X11112500Y-15163929D02*
X10855357Y-15549643D01*
X11498214Y-15178214D02*
X11526786Y-15178214D01*
X11555357Y-15192500D01*
X11569643Y-15206786D01*
X11583928Y-15235357D01*
X11598214Y-15292500D01*
X11598214Y-15363929D01*
X11583928Y-15421071D01*
X11569643Y-15449643D01*
X11555357Y-15463929D01*
X11526786Y-15478214D01*
X11498214Y-15478214D01*
X11469643Y-15463929D01*
X11455357Y-15449643D01*
X11441071Y-15421071D01*
X11426786Y-15363929D01*
X11426786Y-15292500D01*
X11441071Y-15235357D01*
X11455357Y-15206786D01*
X11469643Y-15192500D01*
X11498214Y-15178214D01*
X11726786Y-15449643D02*
X11741071Y-15463929D01*
X11726786Y-15478214D01*
X11712500Y-15463929D01*
X11726786Y-15449643D01*
X11726786Y-15478214D01*
X11926786Y-15178214D02*
X11955357Y-15178214D01*
X11983928Y-15192500D01*
X11998214Y-15206786D01*
X12012500Y-15235357D01*
X12026786Y-15292500D01*
X12026786Y-15363929D01*
X12012500Y-15421071D01*
X11998214Y-15449643D01*
X11983928Y-15463929D01*
X11955357Y-15478214D01*
X11926786Y-15478214D01*
X11898214Y-15463929D01*
X11883928Y-15449643D01*
X11869643Y-15421071D01*
X11855357Y-15363929D01*
X11855357Y-15292500D01*
X11869643Y-15235357D01*
X11883928Y-15206786D01*
X11898214Y-15192500D01*
X11926786Y-15178214D01*
X12298214Y-15178214D02*
X12155357Y-15178214D01*
X12141071Y-15321071D01*
X12155357Y-15306786D01*
X12183928Y-15292500D01*
X12255357Y-15292500D01*
X12283928Y-15306786D01*
X12298214Y-15321071D01*
X12312500Y-15349643D01*
X12312500Y-15421071D01*
X12298214Y-15449643D01*
X12283928Y-15463929D01*
X12255357Y-15478214D01*
X12183928Y-15478214D01*
X12155357Y-15463929D01*
X12141071Y-15449643D01*
X12598214Y-15478214D02*
X12426786Y-15478214D01*
X12512500Y-15478214D02*
X12512500Y-15178214D01*
X12483928Y-15221071D01*
X12455357Y-15249643D01*
X12426786Y-15263929D01*
X12712500Y-15206786D02*
X12726786Y-15192500D01*
X12755357Y-15178214D01*
X12826786Y-15178214D01*
X12855357Y-15192500D01*
X12869643Y-15206786D01*
X12883928Y-15235357D01*
X12883928Y-15263929D01*
X12869643Y-15306786D01*
X12698214Y-15478214D01*
X12883928Y-15478214D01*
X12998214Y-15178214D02*
X12998214Y-15235357D01*
X13112500Y-15178214D02*
X13112500Y-15235357D01*
X13555357Y-15592500D02*
X13541071Y-15578214D01*
X13512500Y-15535357D01*
X13498214Y-15506786D01*
X13483928Y-15463929D01*
X13469643Y-15392500D01*
X13469643Y-15335357D01*
X13483928Y-15263929D01*
X13498214Y-15221071D01*
X13512500Y-15192500D01*
X13541071Y-15149643D01*
X13555357Y-15135357D01*
X13712500Y-15306786D02*
X13683928Y-15292500D01*
X13669643Y-15278214D01*
X13655357Y-15249643D01*
X13655357Y-15235357D01*
X13669643Y-15206786D01*
X13683928Y-15192500D01*
X13712500Y-15178214D01*
X13769643Y-15178214D01*
X13798214Y-15192500D01*
X13812500Y-15206786D01*
X13826786Y-15235357D01*
X13826786Y-15249643D01*
X13812500Y-15278214D01*
X13798214Y-15292500D01*
X13769643Y-15306786D01*
X13712500Y-15306786D01*
X13683928Y-15321071D01*
X13669643Y-15335357D01*
X13655357Y-15363929D01*
X13655357Y-15421071D01*
X13669643Y-15449643D01*
X13683928Y-15463929D01*
X13712500Y-15478214D01*
X13769643Y-15478214D01*
X13798214Y-15463929D01*
X13812500Y-15449643D01*
X13826786Y-15421071D01*
X13826786Y-15363929D01*
X13812500Y-15335357D01*
X13798214Y-15321071D01*
X13769643Y-15306786D01*
X14183928Y-15478214D02*
X14183928Y-15178214D01*
X14312500Y-15478214D02*
X14312500Y-15321071D01*
X14298214Y-15292500D01*
X14269643Y-15278214D01*
X14226786Y-15278214D01*
X14198214Y-15292500D01*
X14183928Y-15306786D01*
X14498214Y-15478214D02*
X14469643Y-15463929D01*
X14455357Y-15449643D01*
X14441071Y-15421071D01*
X14441071Y-15335357D01*
X14455357Y-15306786D01*
X14469643Y-15292500D01*
X14498214Y-15278214D01*
X14541071Y-15278214D01*
X14569643Y-15292500D01*
X14583928Y-15306786D01*
X14598214Y-15335357D01*
X14598214Y-15421071D01*
X14583928Y-15449643D01*
X14569643Y-15463929D01*
X14541071Y-15478214D01*
X14498214Y-15478214D01*
X14769643Y-15478214D02*
X14741071Y-15463929D01*
X14726786Y-15435357D01*
X14726786Y-15178214D01*
X14998214Y-15463929D02*
X14969643Y-15478214D01*
X14912500Y-15478214D01*
X14883928Y-15463929D01*
X14869643Y-15435357D01*
X14869643Y-15321071D01*
X14883928Y-15292500D01*
X14912500Y-15278214D01*
X14969643Y-15278214D01*
X14998214Y-15292500D01*
X15012500Y-15321071D01*
X15012500Y-15349643D01*
X14869643Y-15378214D01*
X15126786Y-15463929D02*
X15155357Y-15478214D01*
X15212500Y-15478214D01*
X15241071Y-15463929D01*
X15255357Y-15435357D01*
X15255357Y-15421071D01*
X15241071Y-15392500D01*
X15212500Y-15378214D01*
X15169643Y-15378214D01*
X15141071Y-15363929D01*
X15126786Y-15335357D01*
X15126786Y-15321071D01*
X15141071Y-15292500D01*
X15169643Y-15278214D01*
X15212500Y-15278214D01*
X15241071Y-15292500D01*
X15355357Y-15592500D02*
X15369643Y-15578214D01*
X15398214Y-15535357D01*
X15412500Y-15506786D01*
X15426786Y-15463929D01*
X15441071Y-15392500D01*
X15441071Y-15335357D01*
X15426786Y-15263929D01*
X15412500Y-15221071D01*
X15398214Y-15192500D01*
X15369643Y-15149643D01*
X15355357Y-15135357D01*
X8107500Y-15643500D02*
X8297500Y-15833500D01*
X8297500Y-15643500D02*
X8107500Y-15833500D01*
X8202500Y-15643500D02*
X8202500Y-15833500D01*
X8107500Y-15738500D02*
X8297500Y-15738500D01*
X8741071Y-15874214D02*
X8569643Y-15874214D01*
X8655357Y-15874214D02*
X8655357Y-15574214D01*
X8626786Y-15617071D01*
X8598214Y-15645643D01*
X8569643Y-15659929D01*
X8869643Y-15845643D02*
X8883928Y-15859929D01*
X8869643Y-15874214D01*
X8855357Y-15859929D01*
X8869643Y-15845643D01*
X8869643Y-15874214D01*
X9026786Y-15874214D02*
X9083928Y-15874214D01*
X9112500Y-15859929D01*
X9126786Y-15845643D01*
X9155357Y-15802786D01*
X9169643Y-15745643D01*
X9169643Y-15631357D01*
X9155357Y-15602786D01*
X9141071Y-15588500D01*
X9112500Y-15574214D01*
X9055357Y-15574214D01*
X9026786Y-15588500D01*
X9012500Y-15602786D01*
X8998214Y-15631357D01*
X8998214Y-15702786D01*
X9012500Y-15731357D01*
X9026786Y-15745643D01*
X9055357Y-15759929D01*
X9112500Y-15759929D01*
X9141071Y-15745643D01*
X9155357Y-15731357D01*
X9169643Y-15702786D01*
X9355357Y-15574214D02*
X9383928Y-15574214D01*
X9412500Y-15588500D01*
X9426786Y-15602786D01*
X9441071Y-15631357D01*
X9455357Y-15688500D01*
X9455357Y-15759929D01*
X9441071Y-15817071D01*
X9426786Y-15845643D01*
X9412500Y-15859929D01*
X9383928Y-15874214D01*
X9355357Y-15874214D01*
X9326786Y-15859929D01*
X9312500Y-15845643D01*
X9298214Y-15817071D01*
X9283928Y-15759929D01*
X9283928Y-15688500D01*
X9298214Y-15631357D01*
X9312500Y-15602786D01*
X9326786Y-15588500D01*
X9355357Y-15574214D01*
X9641071Y-15574214D02*
X9669643Y-15574214D01*
X9698214Y-15588500D01*
X9712500Y-15602786D01*
X9726786Y-15631357D01*
X9741071Y-15688500D01*
X9741071Y-15759929D01*
X9726786Y-15817071D01*
X9712500Y-15845643D01*
X9698214Y-15859929D01*
X9669643Y-15874214D01*
X9641071Y-15874214D01*
X9612500Y-15859929D01*
X9598214Y-15845643D01*
X9583928Y-15817071D01*
X9569643Y-15759929D01*
X9569643Y-15688500D01*
X9583928Y-15631357D01*
X9598214Y-15602786D01*
X9612500Y-15588500D01*
X9641071Y-15574214D01*
X9869643Y-15874214D02*
X9869643Y-15674214D01*
X9869643Y-15702786D02*
X9883928Y-15688500D01*
X9912500Y-15674214D01*
X9955357Y-15674214D01*
X9983928Y-15688500D01*
X9998214Y-15717071D01*
X9998214Y-15874214D01*
X9998214Y-15717071D02*
X10012500Y-15688500D01*
X10041071Y-15674214D01*
X10083928Y-15674214D01*
X10112500Y-15688500D01*
X10126786Y-15717071D01*
X10126786Y-15874214D01*
X10269643Y-15874214D02*
X10269643Y-15674214D01*
X10269643Y-15702786D02*
X10283928Y-15688500D01*
X10312500Y-15674214D01*
X10355357Y-15674214D01*
X10383928Y-15688500D01*
X10398214Y-15717071D01*
X10398214Y-15874214D01*
X10398214Y-15717071D02*
X10412500Y-15688500D01*
X10441071Y-15674214D01*
X10483928Y-15674214D01*
X10512500Y-15688500D01*
X10526786Y-15717071D01*
X10526786Y-15874214D01*
X11112500Y-15559929D02*
X10855357Y-15945643D01*
X11498214Y-15574214D02*
X11526786Y-15574214D01*
X11555357Y-15588500D01*
X11569643Y-15602786D01*
X11583928Y-15631357D01*
X11598214Y-15688500D01*
X11598214Y-15759929D01*
X11583928Y-15817071D01*
X11569643Y-15845643D01*
X11555357Y-15859929D01*
X11526786Y-15874214D01*
X11498214Y-15874214D01*
X11469643Y-15859929D01*
X11455357Y-15845643D01*
X11441071Y-15817071D01*
X11426786Y-15759929D01*
X11426786Y-15688500D01*
X11441071Y-15631357D01*
X11455357Y-15602786D01*
X11469643Y-15588500D01*
X11498214Y-15574214D01*
X11726786Y-15845643D02*
X11741071Y-15859929D01*
X11726786Y-15874214D01*
X11712500Y-15859929D01*
X11726786Y-15845643D01*
X11726786Y-15874214D01*
X11926786Y-15574214D02*
X11955357Y-15574214D01*
X11983928Y-15588500D01*
X11998214Y-15602786D01*
X12012500Y-15631357D01*
X12026786Y-15688500D01*
X12026786Y-15759929D01*
X12012500Y-15817071D01*
X11998214Y-15845643D01*
X11983928Y-15859929D01*
X11955357Y-15874214D01*
X11926786Y-15874214D01*
X11898214Y-15859929D01*
X11883928Y-15845643D01*
X11869643Y-15817071D01*
X11855357Y-15759929D01*
X11855357Y-15688500D01*
X11869643Y-15631357D01*
X11883928Y-15602786D01*
X11898214Y-15588500D01*
X11926786Y-15574214D01*
X12126786Y-15574214D02*
X12326786Y-15574214D01*
X12198214Y-15874214D01*
X12569643Y-15674214D02*
X12569643Y-15874214D01*
X12498214Y-15559929D02*
X12426786Y-15774214D01*
X12612500Y-15774214D01*
X12769643Y-15702786D02*
X12741071Y-15688500D01*
X12726786Y-15674214D01*
X12712500Y-15645643D01*
X12712500Y-15631357D01*
X12726786Y-15602786D01*
X12741071Y-15588500D01*
X12769643Y-15574214D01*
X12826786Y-15574214D01*
X12855357Y-15588500D01*
X12869643Y-15602786D01*
X12883928Y-15631357D01*
X12883928Y-15645643D01*
X12869643Y-15674214D01*
X12855357Y-15688500D01*
X12826786Y-15702786D01*
X12769643Y-15702786D01*
X12741071Y-15717071D01*
X12726786Y-15731357D01*
X12712500Y-15759929D01*
X12712500Y-15817071D01*
X12726786Y-15845643D01*
X12741071Y-15859929D01*
X12769643Y-15874214D01*
X12826786Y-15874214D01*
X12855357Y-15859929D01*
X12869643Y-15845643D01*
X12883928Y-15817071D01*
X12883928Y-15759929D01*
X12869643Y-15731357D01*
X12855357Y-15717071D01*
X12826786Y-15702786D01*
X12998214Y-15574214D02*
X12998214Y-15631357D01*
X13112500Y-15574214D02*
X13112500Y-15631357D01*
X13555357Y-15988500D02*
X13541071Y-15974214D01*
X13512500Y-15931357D01*
X13498214Y-15902786D01*
X13483928Y-15859929D01*
X13469643Y-15788500D01*
X13469643Y-15731357D01*
X13483928Y-15659929D01*
X13498214Y-15617071D01*
X13512500Y-15588500D01*
X13541071Y-15545643D01*
X13555357Y-15531357D01*
X13655357Y-15602786D02*
X13669643Y-15588500D01*
X13698214Y-15574214D01*
X13769643Y-15574214D01*
X13798214Y-15588500D01*
X13812500Y-15602786D01*
X13826786Y-15631357D01*
X13826786Y-15659929D01*
X13812500Y-15702786D01*
X13641071Y-15874214D01*
X13826786Y-15874214D01*
X14183928Y-15874214D02*
X14183928Y-15574214D01*
X14312500Y-15874214D02*
X14312500Y-15717071D01*
X14298214Y-15688500D01*
X14269643Y-15674214D01*
X14226786Y-15674214D01*
X14198214Y-15688500D01*
X14183928Y-15702786D01*
X14498214Y-15874214D02*
X14469643Y-15859929D01*
X14455357Y-15845643D01*
X14441071Y-15817071D01*
X14441071Y-15731357D01*
X14455357Y-15702786D01*
X14469643Y-15688500D01*
X14498214Y-15674214D01*
X14541071Y-15674214D01*
X14569643Y-15688500D01*
X14583928Y-15702786D01*
X14598214Y-15731357D01*
X14598214Y-15817071D01*
X14583928Y-15845643D01*
X14569643Y-15859929D01*
X14541071Y-15874214D01*
X14498214Y-15874214D01*
X14769643Y-15874214D02*
X14741071Y-15859929D01*
X14726786Y-15831357D01*
X14726786Y-15574214D01*
X14998214Y-15859929D02*
X14969643Y-15874214D01*
X14912500Y-15874214D01*
X14883928Y-15859929D01*
X14869643Y-15831357D01*
X14869643Y-15717071D01*
X14883928Y-15688500D01*
X14912500Y-15674214D01*
X14969643Y-15674214D01*
X14998214Y-15688500D01*
X15012500Y-15717071D01*
X15012500Y-15745643D01*
X14869643Y-15774214D01*
X15126786Y-15859929D02*
X15155357Y-15874214D01*
X15212500Y-15874214D01*
X15241071Y-15859929D01*
X15255357Y-15831357D01*
X15255357Y-15817071D01*
X15241071Y-15788500D01*
X15212500Y-15774214D01*
X15169643Y-15774214D01*
X15141071Y-15759929D01*
X15126786Y-15731357D01*
X15126786Y-15717071D01*
X15141071Y-15688500D01*
X15169643Y-15674214D01*
X15212500Y-15674214D01*
X15241071Y-15688500D01*
X15355357Y-15988500D02*
X15369643Y-15974214D01*
X15398214Y-15931357D01*
X15412500Y-15902786D01*
X15426786Y-15859929D01*
X15441071Y-15788500D01*
X15441071Y-15731357D01*
X15426786Y-15659929D01*
X15412500Y-15617071D01*
X15398214Y-15588500D01*
X15369643Y-15545643D01*
X15355357Y-15531357D01*
X8097500Y-16034500D02*
X8297500Y-16234500D01*
X8297500Y-16034500D02*
X8097500Y-16234500D01*
X8268211Y-16205211D02*
X8268211Y-16063789D01*
X8126788Y-16063789D01*
X8126788Y-16205211D01*
X8268211Y-16205211D01*
X8569643Y-15998786D02*
X8583928Y-15984500D01*
X8612500Y-15970214D01*
X8683928Y-15970214D01*
X8712500Y-15984500D01*
X8726786Y-15998786D01*
X8741071Y-16027357D01*
X8741071Y-16055929D01*
X8726786Y-16098786D01*
X8555357Y-16270214D01*
X8741071Y-16270214D01*
X8869643Y-16241643D02*
X8883928Y-16255929D01*
X8869643Y-16270214D01*
X8855357Y-16255929D01*
X8869643Y-16241643D01*
X8869643Y-16270214D01*
X9069643Y-15970214D02*
X9098214Y-15970214D01*
X9126786Y-15984500D01*
X9141071Y-15998786D01*
X9155357Y-16027357D01*
X9169643Y-16084500D01*
X9169643Y-16155929D01*
X9155357Y-16213071D01*
X9141071Y-16241643D01*
X9126786Y-16255929D01*
X9098214Y-16270214D01*
X9069643Y-16270214D01*
X9041071Y-16255929D01*
X9026786Y-16241643D01*
X9012500Y-16213071D01*
X8998214Y-16155929D01*
X8998214Y-16084500D01*
X9012500Y-16027357D01*
X9026786Y-15998786D01*
X9041071Y-15984500D01*
X9069643Y-15970214D01*
X9355357Y-15970214D02*
X9383928Y-15970214D01*
X9412500Y-15984500D01*
X9426786Y-15998786D01*
X9441071Y-16027357D01*
X9455357Y-16084500D01*
X9455357Y-16155929D01*
X9441071Y-16213071D01*
X9426786Y-16241643D01*
X9412500Y-16255929D01*
X9383928Y-16270214D01*
X9355357Y-16270214D01*
X9326786Y-16255929D01*
X9312500Y-16241643D01*
X9298214Y-16213071D01*
X9283928Y-16155929D01*
X9283928Y-16084500D01*
X9298214Y-16027357D01*
X9312500Y-15998786D01*
X9326786Y-15984500D01*
X9355357Y-15970214D01*
X9641071Y-15970214D02*
X9669643Y-15970214D01*
X9698214Y-15984500D01*
X9712500Y-15998786D01*
X9726786Y-16027357D01*
X9741071Y-16084500D01*
X9741071Y-16155929D01*
X9726786Y-16213071D01*
X9712500Y-16241643D01*
X9698214Y-16255929D01*
X9669643Y-16270214D01*
X9641071Y-16270214D01*
X9612500Y-16255929D01*
X9598214Y-16241643D01*
X9583928Y-16213071D01*
X9569643Y-16155929D01*
X9569643Y-16084500D01*
X9583928Y-16027357D01*
X9598214Y-15998786D01*
X9612500Y-15984500D01*
X9641071Y-15970214D01*
X9869643Y-16270214D02*
X9869643Y-16070214D01*
X9869643Y-16098786D02*
X9883928Y-16084500D01*
X9912500Y-16070214D01*
X9955357Y-16070214D01*
X9983928Y-16084500D01*
X9998214Y-16113071D01*
X9998214Y-16270214D01*
X9998214Y-16113071D02*
X10012500Y-16084500D01*
X10041071Y-16070214D01*
X10083928Y-16070214D01*
X10112500Y-16084500D01*
X10126786Y-16113071D01*
X10126786Y-16270214D01*
X10269643Y-16270214D02*
X10269643Y-16070214D01*
X10269643Y-16098786D02*
X10283928Y-16084500D01*
X10312500Y-16070214D01*
X10355357Y-16070214D01*
X10383928Y-16084500D01*
X10398214Y-16113071D01*
X10398214Y-16270214D01*
X10398214Y-16113071D02*
X10412500Y-16084500D01*
X10441071Y-16070214D01*
X10483928Y-16070214D01*
X10512500Y-16084500D01*
X10526786Y-16113071D01*
X10526786Y-16270214D01*
X11112500Y-15955929D02*
X10855357Y-16341643D01*
X11498214Y-15970214D02*
X11526786Y-15970214D01*
X11555357Y-15984500D01*
X11569643Y-15998786D01*
X11583928Y-16027357D01*
X11598214Y-16084500D01*
X11598214Y-16155929D01*
X11583928Y-16213071D01*
X11569643Y-16241643D01*
X11555357Y-16255929D01*
X11526786Y-16270214D01*
X11498214Y-16270214D01*
X11469643Y-16255929D01*
X11455357Y-16241643D01*
X11441071Y-16213071D01*
X11426786Y-16155929D01*
X11426786Y-16084500D01*
X11441071Y-16027357D01*
X11455357Y-15998786D01*
X11469643Y-15984500D01*
X11498214Y-15970214D01*
X11726786Y-16241643D02*
X11741071Y-16255929D01*
X11726786Y-16270214D01*
X11712500Y-16255929D01*
X11726786Y-16241643D01*
X11726786Y-16270214D01*
X11926786Y-15970214D02*
X11955357Y-15970214D01*
X11983928Y-15984500D01*
X11998214Y-15998786D01*
X12012500Y-16027357D01*
X12026786Y-16084500D01*
X12026786Y-16155929D01*
X12012500Y-16213071D01*
X11998214Y-16241643D01*
X11983928Y-16255929D01*
X11955357Y-16270214D01*
X11926786Y-16270214D01*
X11898214Y-16255929D01*
X11883928Y-16241643D01*
X11869643Y-16213071D01*
X11855357Y-16155929D01*
X11855357Y-16084500D01*
X11869643Y-16027357D01*
X11883928Y-15998786D01*
X11898214Y-15984500D01*
X11926786Y-15970214D01*
X12126786Y-15970214D02*
X12326786Y-15970214D01*
X12198214Y-16270214D01*
X12483928Y-16098786D02*
X12455357Y-16084500D01*
X12441071Y-16070214D01*
X12426786Y-16041643D01*
X12426786Y-16027357D01*
X12441071Y-15998786D01*
X12455357Y-15984500D01*
X12483928Y-15970214D01*
X12541071Y-15970214D01*
X12569643Y-15984500D01*
X12583928Y-15998786D01*
X12598214Y-16027357D01*
X12598214Y-16041643D01*
X12583928Y-16070214D01*
X12569643Y-16084500D01*
X12541071Y-16098786D01*
X12483928Y-16098786D01*
X12455357Y-16113071D01*
X12441071Y-16127357D01*
X12426786Y-16155929D01*
X12426786Y-16213071D01*
X12441071Y-16241643D01*
X12455357Y-16255929D01*
X12483928Y-16270214D01*
X12541071Y-16270214D01*
X12569643Y-16255929D01*
X12583928Y-16241643D01*
X12598214Y-16213071D01*
X12598214Y-16155929D01*
X12583928Y-16127357D01*
X12569643Y-16113071D01*
X12541071Y-16098786D01*
X12698214Y-15970214D02*
X12898214Y-15970214D01*
X12769643Y-16270214D01*
X12998214Y-15970214D02*
X12998214Y-16027357D01*
X13112500Y-15970214D02*
X13112500Y-16027357D01*
X13555357Y-16384500D02*
X13541071Y-16370214D01*
X13512500Y-16327357D01*
X13498214Y-16298786D01*
X13483928Y-16255929D01*
X13469643Y-16184500D01*
X13469643Y-16127357D01*
X13483928Y-16055929D01*
X13498214Y-16013071D01*
X13512500Y-15984500D01*
X13541071Y-15941643D01*
X13555357Y-15927357D01*
X13655357Y-15998786D02*
X13669643Y-15984500D01*
X13698214Y-15970214D01*
X13769643Y-15970214D01*
X13798214Y-15984500D01*
X13812500Y-15998786D01*
X13826786Y-16027357D01*
X13826786Y-16055929D01*
X13812500Y-16098786D01*
X13641071Y-16270214D01*
X13826786Y-16270214D01*
X14183928Y-16270214D02*
X14183928Y-15970214D01*
X14312500Y-16270214D02*
X14312500Y-16113071D01*
X14298214Y-16084500D01*
X14269643Y-16070214D01*
X14226786Y-16070214D01*
X14198214Y-16084500D01*
X14183928Y-16098786D01*
X14498214Y-16270214D02*
X14469643Y-16255929D01*
X14455357Y-16241643D01*
X14441071Y-16213071D01*
X14441071Y-16127357D01*
X14455357Y-16098786D01*
X14469643Y-16084500D01*
X14498214Y-16070214D01*
X14541071Y-16070214D01*
X14569643Y-16084500D01*
X14583928Y-16098786D01*
X14598214Y-16127357D01*
X14598214Y-16213071D01*
X14583928Y-16241643D01*
X14569643Y-16255929D01*
X14541071Y-16270214D01*
X14498214Y-16270214D01*
X14769643Y-16270214D02*
X14741071Y-16255929D01*
X14726786Y-16227357D01*
X14726786Y-15970214D01*
X14998214Y-16255929D02*
X14969643Y-16270214D01*
X14912500Y-16270214D01*
X14883928Y-16255929D01*
X14869643Y-16227357D01*
X14869643Y-16113071D01*
X14883928Y-16084500D01*
X14912500Y-16070214D01*
X14969643Y-16070214D01*
X14998214Y-16084500D01*
X15012500Y-16113071D01*
X15012500Y-16141643D01*
X14869643Y-16170214D01*
X15126786Y-16255929D02*
X15155357Y-16270214D01*
X15212500Y-16270214D01*
X15241071Y-16255929D01*
X15255357Y-16227357D01*
X15255357Y-16213071D01*
X15241071Y-16184500D01*
X15212500Y-16170214D01*
X15169643Y-16170214D01*
X15141071Y-16155929D01*
X15126786Y-16127357D01*
X15126786Y-16113071D01*
X15141071Y-16084500D01*
X15169643Y-16070214D01*
X15212500Y-16070214D01*
X15241071Y-16084500D01*
X15355357Y-16384500D02*
X15369643Y-16370214D01*
X15398214Y-16327357D01*
X15412500Y-16298786D01*
X15426786Y-16255929D01*
X15441071Y-16184500D01*
X15441071Y-16127357D01*
X15426786Y-16055929D01*
X15412500Y-16013071D01*
X15398214Y-15984500D01*
X15369643Y-15941643D01*
X15355357Y-15927357D01*
X7977500Y-16370500D02*
X8297500Y-16690500D01*
X8297500Y-16370500D02*
X7977500Y-16690500D01*
X8137500Y-16690500D02*
X8297500Y-16530500D01*
X8137500Y-16370500D01*
X7977500Y-16530500D01*
X8137500Y-16690500D01*
X8555357Y-16366214D02*
X8741071Y-16366214D01*
X8641071Y-16480500D01*
X8683928Y-16480500D01*
X8712500Y-16494786D01*
X8726786Y-16509071D01*
X8741071Y-16537643D01*
X8741071Y-16609071D01*
X8726786Y-16637643D01*
X8712500Y-16651929D01*
X8683928Y-16666214D01*
X8598214Y-16666214D01*
X8569643Y-16651929D01*
X8555357Y-16637643D01*
X8869643Y-16637643D02*
X8883928Y-16651929D01*
X8869643Y-16666214D01*
X8855357Y-16651929D01*
X8869643Y-16637643D01*
X8869643Y-16666214D01*
X8998214Y-16394786D02*
X9012500Y-16380500D01*
X9041071Y-16366214D01*
X9112500Y-16366214D01*
X9141071Y-16380500D01*
X9155357Y-16394786D01*
X9169643Y-16423357D01*
X9169643Y-16451929D01*
X9155357Y-16494786D01*
X8983928Y-16666214D01*
X9169643Y-16666214D01*
X9355357Y-16366214D02*
X9383928Y-16366214D01*
X9412500Y-16380500D01*
X9426786Y-16394786D01*
X9441071Y-16423357D01*
X9455357Y-16480500D01*
X9455357Y-16551929D01*
X9441071Y-16609071D01*
X9426786Y-16637643D01*
X9412500Y-16651929D01*
X9383928Y-16666214D01*
X9355357Y-16666214D01*
X9326786Y-16651929D01*
X9312500Y-16637643D01*
X9298214Y-16609071D01*
X9283928Y-16551929D01*
X9283928Y-16480500D01*
X9298214Y-16423357D01*
X9312500Y-16394786D01*
X9326786Y-16380500D01*
X9355357Y-16366214D01*
X9641071Y-16366214D02*
X9669643Y-16366214D01*
X9698214Y-16380500D01*
X9712500Y-16394786D01*
X9726786Y-16423357D01*
X9741071Y-16480500D01*
X9741071Y-16551929D01*
X9726786Y-16609071D01*
X9712500Y-16637643D01*
X9698214Y-16651929D01*
X9669643Y-16666214D01*
X9641071Y-16666214D01*
X9612500Y-16651929D01*
X9598214Y-16637643D01*
X9583928Y-16609071D01*
X9569643Y-16551929D01*
X9569643Y-16480500D01*
X9583928Y-16423357D01*
X9598214Y-16394786D01*
X9612500Y-16380500D01*
X9641071Y-16366214D01*
X9869643Y-16666214D02*
X9869643Y-16466214D01*
X9869643Y-16494786D02*
X9883928Y-16480500D01*
X9912500Y-16466214D01*
X9955357Y-16466214D01*
X9983928Y-16480500D01*
X9998214Y-16509071D01*
X9998214Y-16666214D01*
X9998214Y-16509071D02*
X10012500Y-16480500D01*
X10041071Y-16466214D01*
X10083928Y-16466214D01*
X10112500Y-16480500D01*
X10126786Y-16509071D01*
X10126786Y-16666214D01*
X10269643Y-16666214D02*
X10269643Y-16466214D01*
X10269643Y-16494786D02*
X10283928Y-16480500D01*
X10312500Y-16466214D01*
X10355357Y-16466214D01*
X10383928Y-16480500D01*
X10398214Y-16509071D01*
X10398214Y-16666214D01*
X10398214Y-16509071D02*
X10412500Y-16480500D01*
X10441071Y-16466214D01*
X10483928Y-16466214D01*
X10512500Y-16480500D01*
X10526786Y-16509071D01*
X10526786Y-16666214D01*
X11112500Y-16351929D02*
X10855357Y-16737643D01*
X11498214Y-16366214D02*
X11526786Y-16366214D01*
X11555357Y-16380500D01*
X11569643Y-16394786D01*
X11583928Y-16423357D01*
X11598214Y-16480500D01*
X11598214Y-16551929D01*
X11583928Y-16609071D01*
X11569643Y-16637643D01*
X11555357Y-16651929D01*
X11526786Y-16666214D01*
X11498214Y-16666214D01*
X11469643Y-16651929D01*
X11455357Y-16637643D01*
X11441071Y-16609071D01*
X11426786Y-16551929D01*
X11426786Y-16480500D01*
X11441071Y-16423357D01*
X11455357Y-16394786D01*
X11469643Y-16380500D01*
X11498214Y-16366214D01*
X11726786Y-16637643D02*
X11741071Y-16651929D01*
X11726786Y-16666214D01*
X11712500Y-16651929D01*
X11726786Y-16637643D01*
X11726786Y-16666214D01*
X12026786Y-16666214D02*
X11855357Y-16666214D01*
X11941071Y-16666214D02*
X11941071Y-16366214D01*
X11912500Y-16409071D01*
X11883928Y-16437643D01*
X11855357Y-16451929D01*
X12141071Y-16394786D02*
X12155357Y-16380500D01*
X12183928Y-16366214D01*
X12255357Y-16366214D01*
X12283928Y-16380500D01*
X12298214Y-16394786D01*
X12312500Y-16423357D01*
X12312500Y-16451929D01*
X12298214Y-16494786D01*
X12126786Y-16666214D01*
X12312500Y-16666214D01*
X12569643Y-16366214D02*
X12512500Y-16366214D01*
X12483928Y-16380500D01*
X12469643Y-16394786D01*
X12441071Y-16437643D01*
X12426786Y-16494786D01*
X12426786Y-16609071D01*
X12441071Y-16637643D01*
X12455357Y-16651929D01*
X12483928Y-16666214D01*
X12541071Y-16666214D01*
X12569643Y-16651929D01*
X12583928Y-16637643D01*
X12598214Y-16609071D01*
X12598214Y-16537643D01*
X12583928Y-16509071D01*
X12569643Y-16494786D01*
X12541071Y-16480500D01*
X12483928Y-16480500D01*
X12455357Y-16494786D01*
X12441071Y-16509071D01*
X12426786Y-16537643D01*
X12783928Y-16366214D02*
X12812500Y-16366214D01*
X12841071Y-16380500D01*
X12855357Y-16394786D01*
X12869643Y-16423357D01*
X12883928Y-16480500D01*
X12883928Y-16551929D01*
X12869643Y-16609071D01*
X12855357Y-16637643D01*
X12841071Y-16651929D01*
X12812500Y-16666214D01*
X12783928Y-16666214D01*
X12755357Y-16651929D01*
X12741071Y-16637643D01*
X12726786Y-16609071D01*
X12712500Y-16551929D01*
X12712500Y-16480500D01*
X12726786Y-16423357D01*
X12741071Y-16394786D01*
X12755357Y-16380500D01*
X12783928Y-16366214D01*
X12998214Y-16366214D02*
X12998214Y-16423357D01*
X13112500Y-16366214D02*
X13112500Y-16423357D01*
X13555357Y-16780500D02*
X13541071Y-16766214D01*
X13512500Y-16723357D01*
X13498214Y-16694786D01*
X13483928Y-16651929D01*
X13469643Y-16580500D01*
X13469643Y-16523357D01*
X13483928Y-16451929D01*
X13498214Y-16409071D01*
X13512500Y-16380500D01*
X13541071Y-16337643D01*
X13555357Y-16323357D01*
X13798214Y-16466214D02*
X13798214Y-16666214D01*
X13726786Y-16351929D02*
X13655357Y-16566214D01*
X13841071Y-16566214D01*
X14183928Y-16666214D02*
X14183928Y-16366214D01*
X14312500Y-16666214D02*
X14312500Y-16509071D01*
X14298214Y-16480500D01*
X14269643Y-16466214D01*
X14226786Y-16466214D01*
X14198214Y-16480500D01*
X14183928Y-16494786D01*
X14498214Y-16666214D02*
X14469643Y-16651929D01*
X14455357Y-16637643D01*
X14441071Y-16609071D01*
X14441071Y-16523357D01*
X14455357Y-16494786D01*
X14469643Y-16480500D01*
X14498214Y-16466214D01*
X14541071Y-16466214D01*
X14569643Y-16480500D01*
X14583928Y-16494786D01*
X14598214Y-16523357D01*
X14598214Y-16609071D01*
X14583928Y-16637643D01*
X14569643Y-16651929D01*
X14541071Y-16666214D01*
X14498214Y-16666214D01*
X14769643Y-16666214D02*
X14741071Y-16651929D01*
X14726786Y-16623357D01*
X14726786Y-16366214D01*
X14998214Y-16651929D02*
X14969643Y-16666214D01*
X14912500Y-16666214D01*
X14883928Y-16651929D01*
X14869643Y-16623357D01*
X14869643Y-16509071D01*
X14883928Y-16480500D01*
X14912500Y-16466214D01*
X14969643Y-16466214D01*
X14998214Y-16480500D01*
X15012500Y-16509071D01*
X15012500Y-16537643D01*
X14869643Y-16566214D01*
X15126786Y-16651929D02*
X15155357Y-16666214D01*
X15212500Y-16666214D01*
X15241071Y-16651929D01*
X15255357Y-16623357D01*
X15255357Y-16609071D01*
X15241071Y-16580500D01*
X15212500Y-16566214D01*
X15169643Y-16566214D01*
X15141071Y-16551929D01*
X15126786Y-16523357D01*
X15126786Y-16509071D01*
X15141071Y-16480500D01*
X15169643Y-16466214D01*
X15212500Y-16466214D01*
X15241071Y-16480500D01*
X15355357Y-16780500D02*
X15369643Y-16766214D01*
X15398214Y-16723357D01*
X15412500Y-16694786D01*
X15426786Y-16651929D01*
X15441071Y-16580500D01*
X15441071Y-16523357D01*
X15426786Y-16451929D01*
X15412500Y-16409071D01*
X15398214Y-16380500D01*
X15369643Y-16337643D01*
X15355357Y-16323357D01*
M02*
