G04 #@! TF.GenerationSoftware,KiCad,Pcbnew,5.1.10*
G04 #@! TF.CreationDate,2021-08-08T14:06:15+01:00*
G04 #@! TF.ProjectId,JBC controller,4a424320-636f-46e7-9472-6f6c6c65722e,rev?*
G04 #@! TF.SameCoordinates,Original*
G04 #@! TF.FileFunction,Legend,Top*
G04 #@! TF.FilePolarity,Positive*
%FSLAX46Y46*%
G04 Gerber Fmt 4.6, Leading zero omitted, Abs format (unit mm)*
G04 Created by KiCad (PCBNEW 5.1.10) date 2021-08-08 14:06:15*
%MOMM*%
%LPD*%
G01*
G04 APERTURE LIST*
%ADD10C,0.100000*%
%ADD11C,0.300000*%
%ADD12C,0.150000*%
%ADD13C,0.120000*%
%ADD14C,2.600000*%
%ADD15C,1.500000*%
%ADD16O,1.800000X1.800000*%
%ADD17C,5.700000*%
%ADD18C,2.200000*%
%ADD19C,1.850000*%
%ADD20C,4.100000*%
%ADD21C,3.600000*%
G04 APERTURE END LIST*
D10*
G36*
X151500000Y-116000000D02*
G01*
X144200000Y-116000000D01*
X144200000Y-114000000D01*
X151500000Y-114000000D01*
X151500000Y-116000000D01*
G37*
X151500000Y-116000000D02*
X144200000Y-116000000D01*
X144200000Y-114000000D01*
X151500000Y-114000000D01*
X151500000Y-116000000D01*
D11*
X140376428Y-115607142D02*
X140590714Y-115678571D01*
X140947857Y-115678571D01*
X141090714Y-115607142D01*
X141162142Y-115535714D01*
X141233571Y-115392857D01*
X141233571Y-115250000D01*
X141162142Y-115107142D01*
X141090714Y-115035714D01*
X140947857Y-114964285D01*
X140662142Y-114892857D01*
X140519285Y-114821428D01*
X140447857Y-114750000D01*
X140376428Y-114607142D01*
X140376428Y-114464285D01*
X140447857Y-114321428D01*
X140519285Y-114250000D01*
X140662142Y-114178571D01*
X141019285Y-114178571D01*
X141233571Y-114250000D01*
X141876428Y-115678571D02*
X141876428Y-114178571D01*
X142733571Y-115678571D01*
X142733571Y-114178571D01*
X143447857Y-115535714D02*
X143519285Y-115607142D01*
X143447857Y-115678571D01*
X143376428Y-115607142D01*
X143447857Y-115535714D01*
X143447857Y-115678571D01*
X143447857Y-114750000D02*
X143519285Y-114821428D01*
X143447857Y-114892857D01*
X143376428Y-114821428D01*
X143447857Y-114750000D01*
X143447857Y-114892857D01*
D12*
X136700000Y-110440595D02*
X136652380Y-110535833D01*
X136652380Y-110678690D01*
X136700000Y-110821547D01*
X136795238Y-110916785D01*
X136890476Y-110964404D01*
X137080952Y-111012023D01*
X137223809Y-111012023D01*
X137414285Y-110964404D01*
X137509523Y-110916785D01*
X137604761Y-110821547D01*
X137652380Y-110678690D01*
X137652380Y-110583452D01*
X137604761Y-110440595D01*
X137557142Y-110392976D01*
X137223809Y-110392976D01*
X137223809Y-110583452D01*
X137652380Y-109964404D02*
X136652380Y-109964404D01*
X137652380Y-109392976D01*
X136652380Y-109392976D01*
X137652380Y-108916785D02*
X136652380Y-108916785D01*
X136652380Y-108678690D01*
X136700000Y-108535833D01*
X136795238Y-108440595D01*
X136890476Y-108392976D01*
X137080952Y-108345357D01*
X137223809Y-108345357D01*
X137414285Y-108392976D01*
X137509523Y-108440595D01*
X137604761Y-108535833D01*
X137652380Y-108678690D01*
X137652380Y-108916785D01*
X143385714Y-91587976D02*
X144052380Y-91587976D01*
X143480952Y-91587976D02*
X143433333Y-91540357D01*
X143385714Y-91445119D01*
X143385714Y-91302261D01*
X143433333Y-91207023D01*
X143528571Y-91159404D01*
X144052380Y-91159404D01*
X144052380Y-90111785D02*
X143576190Y-90445119D01*
X144052380Y-90683214D02*
X143052380Y-90683214D01*
X143052380Y-90302261D01*
X143100000Y-90207023D01*
X143147619Y-90159404D01*
X143242857Y-90111785D01*
X143385714Y-90111785D01*
X143480952Y-90159404D01*
X143528571Y-90207023D01*
X143576190Y-90302261D01*
X143576190Y-90683214D01*
X143528571Y-89683214D02*
X143528571Y-89349880D01*
X144052380Y-89207023D02*
X144052380Y-89683214D01*
X143052380Y-89683214D01*
X143052380Y-89207023D01*
X144004761Y-88826071D02*
X144052380Y-88683214D01*
X144052380Y-88445119D01*
X144004761Y-88349880D01*
X143957142Y-88302261D01*
X143861904Y-88254642D01*
X143766666Y-88254642D01*
X143671428Y-88302261D01*
X143623809Y-88349880D01*
X143576190Y-88445119D01*
X143528571Y-88635595D01*
X143480952Y-88730833D01*
X143433333Y-88778452D01*
X143338095Y-88826071D01*
X143242857Y-88826071D01*
X143147619Y-88778452D01*
X143100000Y-88730833D01*
X143052380Y-88635595D01*
X143052380Y-88397500D01*
X143100000Y-88254642D01*
X143528571Y-87826071D02*
X143528571Y-87492738D01*
X144052380Y-87349880D02*
X144052380Y-87826071D01*
X143052380Y-87826071D01*
X143052380Y-87349880D01*
X143052380Y-87064166D02*
X143052380Y-86492738D01*
X144052380Y-86778452D02*
X143052380Y-86778452D01*
X141504761Y-90826071D02*
X141552380Y-90683214D01*
X141552380Y-90445119D01*
X141504761Y-90349880D01*
X141457142Y-90302261D01*
X141361904Y-90254642D01*
X141266666Y-90254642D01*
X141171428Y-90302261D01*
X141123809Y-90349880D01*
X141076190Y-90445119D01*
X141028571Y-90635595D01*
X140980952Y-90730833D01*
X140933333Y-90778452D01*
X140838095Y-90826071D01*
X140742857Y-90826071D01*
X140647619Y-90778452D01*
X140600000Y-90730833D01*
X140552380Y-90635595D01*
X140552380Y-90397500D01*
X140600000Y-90254642D01*
X140552380Y-89921309D02*
X141552380Y-89683214D01*
X140838095Y-89492738D01*
X141552380Y-89302261D01*
X140552380Y-89064166D01*
X141552380Y-88683214D02*
X140552380Y-88683214D01*
X140552380Y-88445119D01*
X140600000Y-88302261D01*
X140695238Y-88207023D01*
X140790476Y-88159404D01*
X140980952Y-88111785D01*
X141123809Y-88111785D01*
X141314285Y-88159404D01*
X141409523Y-88207023D01*
X141504761Y-88302261D01*
X141552380Y-88445119D01*
X141552380Y-88683214D01*
X141552380Y-87683214D02*
X140552380Y-87683214D01*
X140552380Y-87016547D02*
X140552380Y-86826071D01*
X140600000Y-86730833D01*
X140695238Y-86635595D01*
X140885714Y-86587976D01*
X141219047Y-86587976D01*
X141409523Y-86635595D01*
X141504761Y-86730833D01*
X141552380Y-86826071D01*
X141552380Y-87016547D01*
X141504761Y-87111785D01*
X141409523Y-87207023D01*
X141219047Y-87254642D01*
X140885714Y-87254642D01*
X140695238Y-87207023D01*
X140600000Y-87111785D01*
X140552380Y-87016547D01*
X138904761Y-92111785D02*
X138952380Y-91968928D01*
X138952380Y-91730833D01*
X138904761Y-91635595D01*
X138857142Y-91587976D01*
X138761904Y-91540357D01*
X138666666Y-91540357D01*
X138571428Y-91587976D01*
X138523809Y-91635595D01*
X138476190Y-91730833D01*
X138428571Y-91921309D01*
X138380952Y-92016547D01*
X138333333Y-92064166D01*
X138238095Y-92111785D01*
X138142857Y-92111785D01*
X138047619Y-92064166D01*
X138000000Y-92016547D01*
X137952380Y-91921309D01*
X137952380Y-91683214D01*
X138000000Y-91540357D01*
X137952380Y-91207023D02*
X138952380Y-90968928D01*
X138238095Y-90778452D01*
X138952380Y-90587976D01*
X137952380Y-90349880D01*
X138952380Y-89968928D02*
X137952380Y-89968928D01*
X137952380Y-89730833D01*
X138000000Y-89587976D01*
X138095238Y-89492738D01*
X138190476Y-89445119D01*
X138380952Y-89397500D01*
X138523809Y-89397500D01*
X138714285Y-89445119D01*
X138809523Y-89492738D01*
X138904761Y-89587976D01*
X138952380Y-89730833D01*
X138952380Y-89968928D01*
X138857142Y-88397500D02*
X138904761Y-88445119D01*
X138952380Y-88587976D01*
X138952380Y-88683214D01*
X138904761Y-88826071D01*
X138809523Y-88921309D01*
X138714285Y-88968928D01*
X138523809Y-89016547D01*
X138380952Y-89016547D01*
X138190476Y-88968928D01*
X138095238Y-88921309D01*
X138000000Y-88826071D01*
X137952380Y-88683214D01*
X137952380Y-88587976D01*
X138000000Y-88445119D01*
X138047619Y-88397500D01*
X138952380Y-87492738D02*
X138952380Y-87968928D01*
X137952380Y-87968928D01*
X138952380Y-87159404D02*
X137952380Y-87159404D01*
X138952380Y-86587976D02*
X138380952Y-87016547D01*
X137952380Y-86587976D02*
X138523809Y-87159404D01*
X135500000Y-88683214D02*
X135452380Y-88778452D01*
X135452380Y-88921309D01*
X135500000Y-89064166D01*
X135595238Y-89159404D01*
X135690476Y-89207023D01*
X135880952Y-89254642D01*
X136023809Y-89254642D01*
X136214285Y-89207023D01*
X136309523Y-89159404D01*
X136404761Y-89064166D01*
X136452380Y-88921309D01*
X136452380Y-88826071D01*
X136404761Y-88683214D01*
X136357142Y-88635595D01*
X136023809Y-88635595D01*
X136023809Y-88826071D01*
X136452380Y-88207023D02*
X135452380Y-88207023D01*
X136452380Y-87635595D01*
X135452380Y-87635595D01*
X136452380Y-87159404D02*
X135452380Y-87159404D01*
X135452380Y-86921309D01*
X135500000Y-86778452D01*
X135595238Y-86683214D01*
X135690476Y-86635595D01*
X135880952Y-86587976D01*
X136023809Y-86587976D01*
X136214285Y-86635595D01*
X136309523Y-86683214D01*
X136404761Y-86778452D01*
X136452380Y-86921309D01*
X136452380Y-87159404D01*
D11*
X118721428Y-87278571D02*
X119578571Y-87278571D01*
X119150000Y-88778571D02*
X119150000Y-87278571D01*
X120935714Y-88635714D02*
X120864285Y-88707142D01*
X120650000Y-88778571D01*
X120507142Y-88778571D01*
X120292857Y-88707142D01*
X120150000Y-88564285D01*
X120078571Y-88421428D01*
X120007142Y-88135714D01*
X120007142Y-87921428D01*
X120078571Y-87635714D01*
X120150000Y-87492857D01*
X120292857Y-87350000D01*
X120507142Y-87278571D01*
X120650000Y-87278571D01*
X120864285Y-87350000D01*
X120935714Y-87421428D01*
X125557142Y-87350000D02*
X125414285Y-87278571D01*
X125200000Y-87278571D01*
X124985714Y-87350000D01*
X124842857Y-87492857D01*
X124771428Y-87635714D01*
X124700000Y-87921428D01*
X124700000Y-88135714D01*
X124771428Y-88421428D01*
X124842857Y-88564285D01*
X124985714Y-88707142D01*
X125200000Y-88778571D01*
X125342857Y-88778571D01*
X125557142Y-88707142D01*
X125628571Y-88635714D01*
X125628571Y-88135714D01*
X125342857Y-88135714D01*
X126271428Y-88778571D02*
X126271428Y-87278571D01*
X127128571Y-88778571D01*
X127128571Y-87278571D01*
X127842857Y-88778571D02*
X127842857Y-87278571D01*
X128200000Y-87278571D01*
X128414285Y-87350000D01*
X128557142Y-87492857D01*
X128628571Y-87635714D01*
X128700000Y-87921428D01*
X128700000Y-88135714D01*
X128628571Y-88421428D01*
X128557142Y-88564285D01*
X128414285Y-88707142D01*
X128200000Y-88778571D01*
X127842857Y-88778571D01*
X112071428Y-87278571D02*
X112571428Y-88778571D01*
X113071428Y-87278571D01*
X113571428Y-88207142D02*
X114714285Y-88207142D01*
X114142857Y-88778571D02*
X114142857Y-87635714D01*
D12*
X85187976Y-101954761D02*
X85330833Y-102002380D01*
X85568928Y-102002380D01*
X85664166Y-101954761D01*
X85711785Y-101907142D01*
X85759404Y-101811904D01*
X85759404Y-101716666D01*
X85711785Y-101621428D01*
X85664166Y-101573809D01*
X85568928Y-101526190D01*
X85378452Y-101478571D01*
X85283214Y-101430952D01*
X85235595Y-101383333D01*
X85187976Y-101288095D01*
X85187976Y-101192857D01*
X85235595Y-101097619D01*
X85283214Y-101050000D01*
X85378452Y-101002380D01*
X85616547Y-101002380D01*
X85759404Y-101050000D01*
X86568928Y-101954761D02*
X86473690Y-102002380D01*
X86283214Y-102002380D01*
X86187976Y-101954761D01*
X86140357Y-101859523D01*
X86140357Y-101478571D01*
X86187976Y-101383333D01*
X86283214Y-101335714D01*
X86473690Y-101335714D01*
X86568928Y-101383333D01*
X86616547Y-101478571D01*
X86616547Y-101573809D01*
X86140357Y-101669047D01*
X86902261Y-101335714D02*
X87283214Y-101335714D01*
X87045119Y-101002380D02*
X87045119Y-101859523D01*
X87092738Y-101954761D01*
X87187976Y-102002380D01*
X87283214Y-102002380D01*
X88378452Y-102002380D02*
X88378452Y-101002380D01*
X88616547Y-101002380D01*
X88759404Y-101050000D01*
X88854642Y-101145238D01*
X88902261Y-101240476D01*
X88949880Y-101430952D01*
X88949880Y-101573809D01*
X88902261Y-101764285D01*
X88854642Y-101859523D01*
X88759404Y-101954761D01*
X88616547Y-102002380D01*
X88378452Y-102002380D01*
X89949880Y-101907142D02*
X89902261Y-101954761D01*
X89759404Y-102002380D01*
X89664166Y-102002380D01*
X89521309Y-101954761D01*
X89426071Y-101859523D01*
X89378452Y-101764285D01*
X89330833Y-101573809D01*
X89330833Y-101430952D01*
X89378452Y-101240476D01*
X89426071Y-101145238D01*
X89521309Y-101050000D01*
X89664166Y-101002380D01*
X89759404Y-101002380D01*
X89902261Y-101050000D01*
X89949880Y-101097619D01*
X90378452Y-101621428D02*
X91140357Y-101621428D01*
X91616547Y-102002380D02*
X91616547Y-101002380D01*
X91854642Y-101002380D01*
X91997500Y-101050000D01*
X92092738Y-101145238D01*
X92140357Y-101240476D01*
X92187976Y-101430952D01*
X92187976Y-101573809D01*
X92140357Y-101764285D01*
X92092738Y-101859523D01*
X91997500Y-101954761D01*
X91854642Y-102002380D01*
X91616547Y-102002380D01*
X93187976Y-101907142D02*
X93140357Y-101954761D01*
X92997500Y-102002380D01*
X92902261Y-102002380D01*
X92759404Y-101954761D01*
X92664166Y-101859523D01*
X92616547Y-101764285D01*
X92568928Y-101573809D01*
X92568928Y-101430952D01*
X92616547Y-101240476D01*
X92664166Y-101145238D01*
X92759404Y-101050000D01*
X92902261Y-101002380D01*
X92997500Y-101002380D01*
X93140357Y-101050000D01*
X93187976Y-101097619D01*
X85235595Y-103652380D02*
X85235595Y-102985714D01*
X85235595Y-103080952D02*
X85283214Y-103033333D01*
X85378452Y-102985714D01*
X85521309Y-102985714D01*
X85616547Y-103033333D01*
X85664166Y-103128571D01*
X85664166Y-103652380D01*
X85664166Y-103128571D02*
X85711785Y-103033333D01*
X85807023Y-102985714D01*
X85949880Y-102985714D01*
X86045119Y-103033333D01*
X86092738Y-103128571D01*
X86092738Y-103652380D01*
X86711785Y-103652380D02*
X86616547Y-103604761D01*
X86568928Y-103557142D01*
X86521309Y-103461904D01*
X86521309Y-103176190D01*
X86568928Y-103080952D01*
X86616547Y-103033333D01*
X86711785Y-102985714D01*
X86854642Y-102985714D01*
X86949880Y-103033333D01*
X86997500Y-103080952D01*
X87045119Y-103176190D01*
X87045119Y-103461904D01*
X86997500Y-103557142D01*
X86949880Y-103604761D01*
X86854642Y-103652380D01*
X86711785Y-103652380D01*
X87902261Y-103652380D02*
X87902261Y-102652380D01*
X87902261Y-103604761D02*
X87807023Y-103652380D01*
X87616547Y-103652380D01*
X87521309Y-103604761D01*
X87473690Y-103557142D01*
X87426071Y-103461904D01*
X87426071Y-103176190D01*
X87473690Y-103080952D01*
X87521309Y-103033333D01*
X87616547Y-102985714D01*
X87807023Y-102985714D01*
X87902261Y-103033333D01*
X88807023Y-102985714D02*
X88807023Y-103652380D01*
X88378452Y-102985714D02*
X88378452Y-103509523D01*
X88426071Y-103604761D01*
X88521309Y-103652380D01*
X88664166Y-103652380D01*
X88759404Y-103604761D01*
X88807023Y-103557142D01*
X89426071Y-103652380D02*
X89330833Y-103604761D01*
X89283214Y-103509523D01*
X89283214Y-102652380D01*
X90187976Y-103604761D02*
X90092738Y-103652380D01*
X89902261Y-103652380D01*
X89807023Y-103604761D01*
X89759404Y-103509523D01*
X89759404Y-103128571D01*
X89807023Y-103033333D01*
X89902261Y-102985714D01*
X90092738Y-102985714D01*
X90187976Y-103033333D01*
X90235595Y-103128571D01*
X90235595Y-103223809D01*
X89759404Y-103319047D01*
X85092738Y-104635714D02*
X85473690Y-104635714D01*
X85235595Y-104302380D02*
X85235595Y-105159523D01*
X85283214Y-105254761D01*
X85378452Y-105302380D01*
X85473690Y-105302380D01*
X85949880Y-105302380D02*
X85854642Y-105254761D01*
X85807023Y-105207142D01*
X85759404Y-105111904D01*
X85759404Y-104826190D01*
X85807023Y-104730952D01*
X85854642Y-104683333D01*
X85949880Y-104635714D01*
X86092738Y-104635714D01*
X86187976Y-104683333D01*
X86235595Y-104730952D01*
X86283214Y-104826190D01*
X86283214Y-105111904D01*
X86235595Y-105207142D01*
X86187976Y-105254761D01*
X86092738Y-105302380D01*
X85949880Y-105302380D01*
X87949880Y-104302380D02*
X87473690Y-104302380D01*
X87426071Y-104778571D01*
X87473690Y-104730952D01*
X87568928Y-104683333D01*
X87807023Y-104683333D01*
X87902261Y-104730952D01*
X87949880Y-104778571D01*
X87997500Y-104873809D01*
X87997500Y-105111904D01*
X87949880Y-105207142D01*
X87902261Y-105254761D01*
X87807023Y-105302380D01*
X87568928Y-105302380D01*
X87473690Y-105254761D01*
X87426071Y-105207142D01*
X88283214Y-104302380D02*
X88616547Y-105302380D01*
X88949880Y-104302380D01*
X86828571Y-111211785D02*
X86828571Y-110878452D01*
X87352380Y-110735595D02*
X87352380Y-111211785D01*
X86352380Y-111211785D01*
X86352380Y-110735595D01*
X87352380Y-110307023D02*
X86352380Y-110307023D01*
X87352380Y-109735595D01*
X86352380Y-109735595D01*
X88952380Y-111783214D02*
X89952380Y-111449880D01*
X88952380Y-111116547D01*
X89952380Y-110783214D02*
X88952380Y-110783214D01*
X89952380Y-110307023D02*
X88952380Y-110307023D01*
X89952380Y-109735595D01*
X88952380Y-109735595D01*
X91500000Y-111783214D02*
X91452380Y-111878452D01*
X91452380Y-112021309D01*
X91500000Y-112164166D01*
X91595238Y-112259404D01*
X91690476Y-112307023D01*
X91880952Y-112354642D01*
X92023809Y-112354642D01*
X92214285Y-112307023D01*
X92309523Y-112259404D01*
X92404761Y-112164166D01*
X92452380Y-112021309D01*
X92452380Y-111926071D01*
X92404761Y-111783214D01*
X92357142Y-111735595D01*
X92023809Y-111735595D01*
X92023809Y-111926071D01*
X92452380Y-111307023D02*
X91452380Y-111307023D01*
X92452380Y-110735595D01*
X91452380Y-110735595D01*
X92452380Y-110259404D02*
X91452380Y-110259404D01*
X91452380Y-110021309D01*
X91500000Y-109878452D01*
X91595238Y-109783214D01*
X91690476Y-109735595D01*
X91880952Y-109687976D01*
X92023809Y-109687976D01*
X92214285Y-109735595D01*
X92309523Y-109783214D01*
X92404761Y-109878452D01*
X92452380Y-110021309D01*
X92452380Y-110259404D01*
X94052380Y-113116547D02*
X95052380Y-112783214D01*
X94052380Y-112449880D01*
X94052380Y-111926071D02*
X94052380Y-111735595D01*
X94100000Y-111640357D01*
X94195238Y-111545119D01*
X94385714Y-111497500D01*
X94719047Y-111497500D01*
X94909523Y-111545119D01*
X95004761Y-111640357D01*
X95052380Y-111735595D01*
X95052380Y-111926071D01*
X95004761Y-112021309D01*
X94909523Y-112116547D01*
X94719047Y-112164166D01*
X94385714Y-112164166D01*
X94195238Y-112116547D01*
X94100000Y-112021309D01*
X94052380Y-111926071D01*
X94052380Y-111068928D02*
X94861904Y-111068928D01*
X94957142Y-111021309D01*
X95004761Y-110973690D01*
X95052380Y-110878452D01*
X95052380Y-110687976D01*
X95004761Y-110592738D01*
X94957142Y-110545119D01*
X94861904Y-110497500D01*
X94052380Y-110497500D01*
X94052380Y-110164166D02*
X94052380Y-109592738D01*
X95052380Y-109878452D02*
X94052380Y-109878452D01*
X135152380Y-110964404D02*
X134152380Y-110964404D01*
X134152380Y-110583452D01*
X134200000Y-110488214D01*
X134247619Y-110440595D01*
X134342857Y-110392976D01*
X134485714Y-110392976D01*
X134580952Y-110440595D01*
X134628571Y-110488214D01*
X134676190Y-110583452D01*
X134676190Y-110964404D01*
X134866666Y-110012023D02*
X134866666Y-109535833D01*
X135152380Y-110107261D02*
X134152380Y-109773928D01*
X135152380Y-109440595D01*
X134152380Y-109202500D02*
X134152380Y-108583452D01*
X134533333Y-108916785D01*
X134533333Y-108773928D01*
X134580952Y-108678690D01*
X134628571Y-108631071D01*
X134723809Y-108583452D01*
X134961904Y-108583452D01*
X135057142Y-108631071D01*
X135104761Y-108678690D01*
X135152380Y-108773928D01*
X135152380Y-109059642D01*
X135104761Y-109154880D01*
X135057142Y-109202500D01*
X132552380Y-110964404D02*
X131552380Y-110964404D01*
X131552380Y-110583452D01*
X131600000Y-110488214D01*
X131647619Y-110440595D01*
X131742857Y-110392976D01*
X131885714Y-110392976D01*
X131980952Y-110440595D01*
X132028571Y-110488214D01*
X132076190Y-110583452D01*
X132076190Y-110964404D01*
X132266666Y-110012023D02*
X132266666Y-109535833D01*
X132552380Y-110107261D02*
X131552380Y-109773928D01*
X132552380Y-109440595D01*
X131885714Y-108678690D02*
X132552380Y-108678690D01*
X131504761Y-108916785D02*
X132219047Y-109154880D01*
X132219047Y-108535833D01*
X130052380Y-110964404D02*
X129052380Y-110964404D01*
X129052380Y-110583452D01*
X129100000Y-110488214D01*
X129147619Y-110440595D01*
X129242857Y-110392976D01*
X129385714Y-110392976D01*
X129480952Y-110440595D01*
X129528571Y-110488214D01*
X129576190Y-110583452D01*
X129576190Y-110964404D01*
X129766666Y-110012023D02*
X129766666Y-109535833D01*
X130052380Y-110107261D02*
X129052380Y-109773928D01*
X130052380Y-109440595D01*
X129052380Y-108678690D02*
X129052380Y-108869166D01*
X129100000Y-108964404D01*
X129147619Y-109012023D01*
X129290476Y-109107261D01*
X129480952Y-109154880D01*
X129861904Y-109154880D01*
X129957142Y-109107261D01*
X130004761Y-109059642D01*
X130052380Y-108964404D01*
X130052380Y-108773928D01*
X130004761Y-108678690D01*
X129957142Y-108631071D01*
X129861904Y-108583452D01*
X129623809Y-108583452D01*
X129528571Y-108631071D01*
X129480952Y-108678690D01*
X129433333Y-108773928D01*
X129433333Y-108964404D01*
X129480952Y-109059642D01*
X129528571Y-109107261D01*
X129623809Y-109154880D01*
X127452380Y-110964404D02*
X126452380Y-110964404D01*
X126452380Y-110583452D01*
X126500000Y-110488214D01*
X126547619Y-110440595D01*
X126642857Y-110392976D01*
X126785714Y-110392976D01*
X126880952Y-110440595D01*
X126928571Y-110488214D01*
X126976190Y-110583452D01*
X126976190Y-110964404D01*
X127166666Y-110012023D02*
X127166666Y-109535833D01*
X127452380Y-110107261D02*
X126452380Y-109773928D01*
X127452380Y-109440595D01*
X126452380Y-109202500D02*
X126452380Y-108535833D01*
X127452380Y-108964404D01*
X140764404Y-109652380D02*
X141335833Y-109652380D01*
X141050119Y-110652380D02*
X141050119Y-109652380D01*
X141669166Y-110652380D02*
X141669166Y-109985714D01*
X141669166Y-109652380D02*
X141621547Y-109700000D01*
X141669166Y-109747619D01*
X141716785Y-109700000D01*
X141669166Y-109652380D01*
X141669166Y-109747619D01*
X142145357Y-109985714D02*
X142145357Y-110985714D01*
X142145357Y-110033333D02*
X142240595Y-109985714D01*
X142431071Y-109985714D01*
X142526309Y-110033333D01*
X142573928Y-110080952D01*
X142621547Y-110176190D01*
X142621547Y-110461904D01*
X142573928Y-110557142D01*
X142526309Y-110604761D01*
X142431071Y-110652380D01*
X142240595Y-110652380D01*
X142145357Y-110604761D01*
X144240595Y-110652380D02*
X144240595Y-110128571D01*
X144192976Y-110033333D01*
X144097738Y-109985714D01*
X143907261Y-109985714D01*
X143812023Y-110033333D01*
X144240595Y-110604761D02*
X144145357Y-110652380D01*
X143907261Y-110652380D01*
X143812023Y-110604761D01*
X143764404Y-110509523D01*
X143764404Y-110414285D01*
X143812023Y-110319047D01*
X143907261Y-110271428D01*
X144145357Y-110271428D01*
X144240595Y-110223809D01*
X145145357Y-110604761D02*
X145050119Y-110652380D01*
X144859642Y-110652380D01*
X144764404Y-110604761D01*
X144716785Y-110557142D01*
X144669166Y-110461904D01*
X144669166Y-110176190D01*
X144716785Y-110080952D01*
X144764404Y-110033333D01*
X144859642Y-109985714D01*
X145050119Y-109985714D01*
X145145357Y-110033333D01*
X145431071Y-109985714D02*
X145812023Y-109985714D01*
X145573928Y-109652380D02*
X145573928Y-110509523D01*
X145621547Y-110604761D01*
X145716785Y-110652380D01*
X145812023Y-110652380D01*
X146145357Y-110652380D02*
X146145357Y-109985714D01*
X146145357Y-109652380D02*
X146097738Y-109700000D01*
X146145357Y-109747619D01*
X146192976Y-109700000D01*
X146145357Y-109652380D01*
X146145357Y-109747619D01*
X146526309Y-109985714D02*
X146764404Y-110652380D01*
X147002500Y-109985714D01*
X147764404Y-110604761D02*
X147669166Y-110652380D01*
X147478690Y-110652380D01*
X147383452Y-110604761D01*
X147335833Y-110509523D01*
X147335833Y-110128571D01*
X147383452Y-110033333D01*
X147478690Y-109985714D01*
X147669166Y-109985714D01*
X147764404Y-110033333D01*
X147812023Y-110128571D01*
X147812023Y-110223809D01*
X147335833Y-110319047D01*
X145431071Y-103104761D02*
X145573928Y-103152380D01*
X145812023Y-103152380D01*
X145907261Y-103104761D01*
X145954880Y-103057142D01*
X146002500Y-102961904D01*
X146002500Y-102866666D01*
X145954880Y-102771428D01*
X145907261Y-102723809D01*
X145812023Y-102676190D01*
X145621547Y-102628571D01*
X145526309Y-102580952D01*
X145478690Y-102533333D01*
X145431071Y-102438095D01*
X145431071Y-102342857D01*
X145478690Y-102247619D01*
X145526309Y-102200000D01*
X145621547Y-102152380D01*
X145859642Y-102152380D01*
X146002500Y-102200000D01*
X147002500Y-103057142D02*
X146954880Y-103104761D01*
X146812023Y-103152380D01*
X146716785Y-103152380D01*
X146573928Y-103104761D01*
X146478690Y-103009523D01*
X146431071Y-102914285D01*
X146383452Y-102723809D01*
X146383452Y-102580952D01*
X146431071Y-102390476D01*
X146478690Y-102295238D01*
X146573928Y-102200000D01*
X146716785Y-102152380D01*
X146812023Y-102152380D01*
X146954880Y-102200000D01*
X147002500Y-102247619D01*
X147907261Y-103152380D02*
X147431071Y-103152380D01*
X147431071Y-102152380D01*
X145383452Y-100504761D02*
X145526309Y-100552380D01*
X145764404Y-100552380D01*
X145859642Y-100504761D01*
X145907261Y-100457142D01*
X145954880Y-100361904D01*
X145954880Y-100266666D01*
X145907261Y-100171428D01*
X145859642Y-100123809D01*
X145764404Y-100076190D01*
X145573928Y-100028571D01*
X145478690Y-99980952D01*
X145431071Y-99933333D01*
X145383452Y-99838095D01*
X145383452Y-99742857D01*
X145431071Y-99647619D01*
X145478690Y-99600000D01*
X145573928Y-99552380D01*
X145812023Y-99552380D01*
X145954880Y-99600000D01*
X146383452Y-100552380D02*
X146383452Y-99552380D01*
X146621547Y-99552380D01*
X146764404Y-99600000D01*
X146859642Y-99695238D01*
X146907261Y-99790476D01*
X146954880Y-99980952D01*
X146954880Y-100123809D01*
X146907261Y-100314285D01*
X146859642Y-100409523D01*
X146764404Y-100504761D01*
X146621547Y-100552380D01*
X146383452Y-100552380D01*
X147335833Y-100266666D02*
X147812023Y-100266666D01*
X147240595Y-100552380D02*
X147573928Y-99552380D01*
X147907261Y-100552380D01*
X146907261Y-97052380D02*
X146431071Y-97052380D01*
X146383452Y-97528571D01*
X146431071Y-97480952D01*
X146526309Y-97433333D01*
X146764404Y-97433333D01*
X146859642Y-97480952D01*
X146907261Y-97528571D01*
X146954880Y-97623809D01*
X146954880Y-97861904D01*
X146907261Y-97957142D01*
X146859642Y-98004761D01*
X146764404Y-98052380D01*
X146526309Y-98052380D01*
X146431071Y-98004761D01*
X146383452Y-97957142D01*
X147240595Y-97052380D02*
X147573928Y-98052380D01*
X147907261Y-97052380D01*
X145716785Y-94500000D02*
X145621547Y-94452380D01*
X145478690Y-94452380D01*
X145335833Y-94500000D01*
X145240595Y-94595238D01*
X145192976Y-94690476D01*
X145145357Y-94880952D01*
X145145357Y-95023809D01*
X145192976Y-95214285D01*
X145240595Y-95309523D01*
X145335833Y-95404761D01*
X145478690Y-95452380D01*
X145573928Y-95452380D01*
X145716785Y-95404761D01*
X145764404Y-95357142D01*
X145764404Y-95023809D01*
X145573928Y-95023809D01*
X146192976Y-95452380D02*
X146192976Y-94452380D01*
X146764404Y-95452380D01*
X146764404Y-94452380D01*
X147240595Y-95452380D02*
X147240595Y-94452380D01*
X147478690Y-94452380D01*
X147621547Y-94500000D01*
X147716785Y-94595238D01*
X147764404Y-94690476D01*
X147812023Y-94880952D01*
X147812023Y-95023809D01*
X147764404Y-95214285D01*
X147716785Y-95309523D01*
X147621547Y-95404761D01*
X147478690Y-95452380D01*
X147240595Y-95452380D01*
D11*
X84161071Y-115678571D02*
X84286071Y-114678571D01*
X84250357Y-114964285D02*
X84339642Y-114821428D01*
X84420000Y-114750000D01*
X84571785Y-114678571D01*
X84714642Y-114678571D01*
X85741428Y-115607142D02*
X85589642Y-115678571D01*
X85303928Y-115678571D01*
X85170000Y-115607142D01*
X85107500Y-115535714D01*
X85053928Y-115392857D01*
X85107500Y-114964285D01*
X85196785Y-114821428D01*
X85277142Y-114750000D01*
X85428928Y-114678571D01*
X85714642Y-114678571D01*
X85848571Y-114750000D01*
X86589642Y-115678571D02*
X86455714Y-115607142D01*
X86393214Y-115535714D01*
X86339642Y-115392857D01*
X86393214Y-114964285D01*
X86482500Y-114821428D01*
X86562857Y-114750000D01*
X86714642Y-114678571D01*
X86928928Y-114678571D01*
X87062857Y-114750000D01*
X87125357Y-114821428D01*
X87178928Y-114964285D01*
X87125357Y-115392857D01*
X87036071Y-115535714D01*
X86955714Y-115607142D01*
X86803928Y-115678571D01*
X86589642Y-115678571D01*
X87946785Y-115678571D02*
X87812857Y-115607142D01*
X87759285Y-115464285D01*
X87920000Y-114178571D01*
X89098571Y-115607142D02*
X88946785Y-115678571D01*
X88661071Y-115678571D01*
X88527142Y-115607142D01*
X88473571Y-115464285D01*
X88545000Y-114892857D01*
X88634285Y-114750000D01*
X88786071Y-114678571D01*
X89071785Y-114678571D01*
X89205714Y-114750000D01*
X89259285Y-114892857D01*
X89241428Y-115035714D01*
X88509285Y-115178571D01*
X89803928Y-115678571D02*
X89928928Y-114678571D01*
X89911071Y-114821428D02*
X89991428Y-114750000D01*
X90143214Y-114678571D01*
X90357500Y-114678571D01*
X90491428Y-114750000D01*
X90545000Y-114892857D01*
X90446785Y-115678571D01*
X90545000Y-114892857D02*
X90634285Y-114750000D01*
X90786071Y-114678571D01*
X91000357Y-114678571D01*
X91134285Y-114750000D01*
X91187857Y-114892857D01*
X91089642Y-115678571D01*
X92446785Y-115678571D02*
X92545000Y-114892857D01*
X92491428Y-114750000D01*
X92357500Y-114678571D01*
X92071785Y-114678571D01*
X91920000Y-114750000D01*
X92455714Y-115607142D02*
X92303928Y-115678571D01*
X91946785Y-115678571D01*
X91812857Y-115607142D01*
X91759285Y-115464285D01*
X91777142Y-115321428D01*
X91866428Y-115178571D01*
X92018214Y-115107142D01*
X92375357Y-115107142D01*
X92527142Y-115035714D01*
X93286071Y-114678571D02*
X93161071Y-115678571D01*
X93268214Y-114821428D02*
X93348571Y-114750000D01*
X93500357Y-114678571D01*
X93714642Y-114678571D01*
X93848571Y-114750000D01*
X93902142Y-114892857D01*
X93803928Y-115678571D01*
X94536071Y-115535714D02*
X94598571Y-115607142D01*
X94518214Y-115678571D01*
X94455714Y-115607142D01*
X94536071Y-115535714D01*
X94518214Y-115678571D01*
X96000357Y-114678571D02*
X95875357Y-115678571D01*
X95357500Y-114678571D02*
X95259285Y-115464285D01*
X95312857Y-115607142D01*
X95446785Y-115678571D01*
X95661071Y-115678571D01*
X95812857Y-115607142D01*
X95893214Y-115535714D01*
X96589642Y-115678571D02*
X96777142Y-114178571D01*
X96803928Y-115107142D02*
X97161071Y-115678571D01*
X97286071Y-114678571D02*
X96643214Y-115250000D01*
X99562857Y-114178571D02*
X99428928Y-115250000D01*
X99330714Y-115464285D01*
X99170000Y-115607142D01*
X98946785Y-115678571D01*
X98803928Y-115678571D01*
X100687857Y-114892857D02*
X100893214Y-114964285D01*
X100955714Y-115035714D01*
X101009285Y-115178571D01*
X100982500Y-115392857D01*
X100893214Y-115535714D01*
X100812857Y-115607142D01*
X100661071Y-115678571D01*
X100089642Y-115678571D01*
X100277142Y-114178571D01*
X100777142Y-114178571D01*
X100911071Y-114250000D01*
X100973571Y-114321428D01*
X101027142Y-114464285D01*
X101009285Y-114607142D01*
X100920000Y-114750000D01*
X100839642Y-114821428D01*
X100687857Y-114892857D01*
X100187857Y-114892857D01*
X102464642Y-115535714D02*
X102384285Y-115607142D01*
X102161071Y-115678571D01*
X102018214Y-115678571D01*
X101812857Y-115607142D01*
X101687857Y-115464285D01*
X101634285Y-115321428D01*
X101598571Y-115035714D01*
X101625357Y-114821428D01*
X101732500Y-114535714D01*
X101821785Y-114392857D01*
X101982500Y-114250000D01*
X102205714Y-114178571D01*
X102348571Y-114178571D01*
X102553928Y-114250000D01*
X102616428Y-114321428D01*
X104884285Y-115607142D02*
X104732500Y-115678571D01*
X104446785Y-115678571D01*
X104312857Y-115607142D01*
X104250357Y-115535714D01*
X104196785Y-115392857D01*
X104250357Y-114964285D01*
X104339642Y-114821428D01*
X104420000Y-114750000D01*
X104571785Y-114678571D01*
X104857500Y-114678571D01*
X104991428Y-114750000D01*
X105732500Y-115678571D02*
X105598571Y-115607142D01*
X105536071Y-115535714D01*
X105482500Y-115392857D01*
X105536071Y-114964285D01*
X105625357Y-114821428D01*
X105705714Y-114750000D01*
X105857500Y-114678571D01*
X106071785Y-114678571D01*
X106205714Y-114750000D01*
X106268214Y-114821428D01*
X106321785Y-114964285D01*
X106268214Y-115392857D01*
X106178928Y-115535714D01*
X106098571Y-115607142D01*
X105946785Y-115678571D01*
X105732500Y-115678571D01*
X107000357Y-114678571D02*
X106875357Y-115678571D01*
X106982500Y-114821428D02*
X107062857Y-114750000D01*
X107214642Y-114678571D01*
X107428928Y-114678571D01*
X107562857Y-114750000D01*
X107616428Y-114892857D01*
X107518214Y-115678571D01*
X108143214Y-114678571D02*
X108714642Y-114678571D01*
X108420000Y-114178571D02*
X108259285Y-115464285D01*
X108312857Y-115607142D01*
X108446785Y-115678571D01*
X108589642Y-115678571D01*
X109089642Y-115678571D02*
X109214642Y-114678571D01*
X109178928Y-114964285D02*
X109268214Y-114821428D01*
X109348571Y-114750000D01*
X109500357Y-114678571D01*
X109643214Y-114678571D01*
X110232500Y-115678571D02*
X110098571Y-115607142D01*
X110036071Y-115535714D01*
X109982500Y-115392857D01*
X110036071Y-114964285D01*
X110125357Y-114821428D01*
X110205714Y-114750000D01*
X110357500Y-114678571D01*
X110571785Y-114678571D01*
X110705714Y-114750000D01*
X110768214Y-114821428D01*
X110821785Y-114964285D01*
X110768214Y-115392857D01*
X110678928Y-115535714D01*
X110598571Y-115607142D01*
X110446785Y-115678571D01*
X110232500Y-115678571D01*
X111589642Y-115678571D02*
X111455714Y-115607142D01*
X111402142Y-115464285D01*
X111562857Y-114178571D01*
X112375357Y-115678571D02*
X112241428Y-115607142D01*
X112187857Y-115464285D01*
X112348571Y-114178571D01*
X113527142Y-115607142D02*
X113375357Y-115678571D01*
X113089642Y-115678571D01*
X112955714Y-115607142D01*
X112902142Y-115464285D01*
X112973571Y-114892857D01*
X113062857Y-114750000D01*
X113214642Y-114678571D01*
X113500357Y-114678571D01*
X113634285Y-114750000D01*
X113687857Y-114892857D01*
X113670000Y-115035714D01*
X112937857Y-115178571D01*
X114232500Y-115678571D02*
X114357500Y-114678571D01*
X114321785Y-114964285D02*
X114411071Y-114821428D01*
X114491428Y-114750000D01*
X114643214Y-114678571D01*
X114786071Y-114678571D01*
X116286071Y-114678571D02*
X116518214Y-115678571D01*
X117000357Y-114678571D01*
X117920000Y-114178571D02*
X118062857Y-114178571D01*
X118196785Y-114250000D01*
X118259285Y-114321428D01*
X118312857Y-114464285D01*
X118348571Y-114750000D01*
X118303928Y-115107142D01*
X118196785Y-115392857D01*
X118107500Y-115535714D01*
X118027142Y-115607142D01*
X117875357Y-115678571D01*
X117732500Y-115678571D01*
X117598571Y-115607142D01*
X117536071Y-115535714D01*
X117482500Y-115392857D01*
X117446785Y-115107142D01*
X117491428Y-114750000D01*
X117598571Y-114464285D01*
X117687857Y-114321428D01*
X117768214Y-114250000D01*
X117920000Y-114178571D01*
X118893214Y-115535714D02*
X118955714Y-115607142D01*
X118875357Y-115678571D01*
X118812857Y-115607142D01*
X118893214Y-115535714D01*
X118875357Y-115678571D01*
X120375357Y-115678571D02*
X119518214Y-115678571D01*
X119946785Y-115678571D02*
X120134285Y-114178571D01*
X119964642Y-114392857D01*
X119803928Y-114535714D01*
X119652142Y-114607142D01*
D13*
X124350000Y-112900000D02*
G75*
G03*
X124350000Y-112900000I-1450000J0D01*
G01*
X108750000Y-89600000D02*
G75*
G03*
X108750000Y-89600000I-1450000J0D01*
G01*
X114450000Y-104500000D02*
G75*
G03*
X114450000Y-104500000I-1450000J0D01*
G01*
X101750000Y-111200000D02*
G75*
G03*
X101750000Y-111200000I-1450000J0D01*
G01*
X91850000Y-81500000D02*
G75*
G03*
X91850000Y-81500000I-1450000J0D01*
G01*
X101750000Y-107600000D02*
G75*
G03*
X101750000Y-107600000I-1450000J0D01*
G01*
X90600000Y-118750000D02*
X90600000Y-119950000D01*
X91800000Y-118750000D02*
X90600000Y-118750000D01*
X100100000Y-123250000D02*
X98900000Y-123250000D01*
X100100000Y-119050000D02*
X100100000Y-123250000D01*
X98900000Y-119050000D02*
X100100000Y-119050000D01*
X90900000Y-123250000D02*
X92100000Y-123250000D01*
X90900000Y-119050000D02*
X90900000Y-123250000D01*
X92100000Y-119050000D02*
X90900000Y-119050000D01*
X107665000Y-104972936D02*
X107665000Y-105427064D01*
X109135000Y-104972936D02*
X109135000Y-105427064D01*
X95850000Y-108930000D02*
X95850000Y-106270000D01*
X88170000Y-108930000D02*
X95850000Y-108930000D01*
X88170000Y-106270000D02*
X95850000Y-106270000D01*
X88170000Y-108930000D02*
X88170000Y-106270000D01*
X86900000Y-108930000D02*
X85570000Y-108930000D01*
X85570000Y-108930000D02*
X85570000Y-107600000D01*
X142885000Y-100500000D02*
X142885000Y-98300000D01*
X142885000Y-100500000D02*
X142885000Y-102700000D01*
X136115000Y-100500000D02*
X136115000Y-98300000D01*
X136115000Y-100500000D02*
X136115000Y-104100000D01*
X118450000Y-120030000D02*
X115050000Y-120030000D01*
X120090000Y-120030000D02*
X119550000Y-120030000D01*
X112890000Y-117200000D02*
X112890000Y-116690000D01*
X113410000Y-116690000D02*
X112890000Y-116690000D01*
X113410000Y-117200000D02*
X113410000Y-116690000D01*
X113950000Y-120030000D02*
X113410000Y-120030000D01*
X120610000Y-117200000D02*
X120610000Y-116690000D01*
X120090000Y-117200000D02*
X120090000Y-116690000D01*
X113410000Y-120030000D02*
X113410000Y-119800000D01*
X120610000Y-123700000D02*
X120610000Y-119800000D01*
X120610000Y-116690000D02*
X120090000Y-116690000D01*
X112890000Y-123700000D02*
X112890000Y-119800000D01*
X120610000Y-123700000D02*
X112890000Y-123700000D01*
X120090000Y-120030000D02*
X120090000Y-119800000D01*
X109800000Y-101660000D02*
X111750000Y-101660000D01*
X109800000Y-101660000D02*
X107850000Y-101660000D01*
X109800000Y-96540000D02*
X111750000Y-96540000D01*
X109800000Y-96540000D02*
X106350000Y-96540000D01*
X140450000Y-120030000D02*
X137050000Y-120030000D01*
X142090000Y-120030000D02*
X141550000Y-120030000D01*
X134890000Y-117200000D02*
X134890000Y-116690000D01*
X135410000Y-116690000D02*
X134890000Y-116690000D01*
X135410000Y-117200000D02*
X135410000Y-116690000D01*
X135950000Y-120030000D02*
X135410000Y-120030000D01*
X142610000Y-117200000D02*
X142610000Y-116690000D01*
X142090000Y-117200000D02*
X142090000Y-116690000D01*
X135410000Y-120030000D02*
X135410000Y-119800000D01*
X142610000Y-123700000D02*
X142610000Y-119800000D01*
X142610000Y-116690000D02*
X142090000Y-116690000D01*
X134890000Y-123700000D02*
X134890000Y-119800000D01*
X142610000Y-123700000D02*
X134890000Y-123700000D01*
X142090000Y-120030000D02*
X142090000Y-119800000D01*
X129450000Y-120030000D02*
X126050000Y-120030000D01*
X131090000Y-120030000D02*
X130550000Y-120030000D01*
X123890000Y-117200000D02*
X123890000Y-116690000D01*
X124410000Y-116690000D02*
X123890000Y-116690000D01*
X124410000Y-117200000D02*
X124410000Y-116690000D01*
X124950000Y-120030000D02*
X124410000Y-120030000D01*
X131610000Y-117200000D02*
X131610000Y-116690000D01*
X131090000Y-117200000D02*
X131090000Y-116690000D01*
X124410000Y-120030000D02*
X124410000Y-119800000D01*
X131610000Y-123700000D02*
X131610000Y-119800000D01*
X131610000Y-116690000D02*
X131090000Y-116690000D01*
X123890000Y-123700000D02*
X123890000Y-119800000D01*
X131610000Y-123700000D02*
X123890000Y-123700000D01*
X131090000Y-120030000D02*
X131090000Y-119800000D01*
X107450000Y-120030000D02*
X104050000Y-120030000D01*
X109090000Y-120030000D02*
X108550000Y-120030000D01*
X101890000Y-117200000D02*
X101890000Y-116690000D01*
X102410000Y-116690000D02*
X101890000Y-116690000D01*
X102410000Y-117200000D02*
X102410000Y-116690000D01*
X102950000Y-120030000D02*
X102410000Y-120030000D01*
X109610000Y-117200000D02*
X109610000Y-116690000D01*
X109090000Y-117200000D02*
X109090000Y-116690000D01*
X102410000Y-120030000D02*
X102410000Y-119800000D01*
X109610000Y-123700000D02*
X109610000Y-119800000D01*
X109610000Y-116690000D02*
X109090000Y-116690000D01*
X101890000Y-123700000D02*
X101890000Y-119800000D01*
X109610000Y-123700000D02*
X101890000Y-123700000D01*
X109090000Y-120030000D02*
X109090000Y-119800000D01*
X87723752Y-85315000D02*
X87201248Y-85315000D01*
X87723752Y-83845000D02*
X87201248Y-83845000D01*
X139938748Y-106835000D02*
X140461252Y-106835000D01*
X139938748Y-105365000D02*
X140461252Y-105365000D01*
X140561252Y-94265000D02*
X140038748Y-94265000D01*
X140561252Y-95735000D02*
X140038748Y-95735000D01*
X104823752Y-92665000D02*
X104301248Y-92665000D01*
X104823752Y-94135000D02*
X104301248Y-94135000D01*
X120561252Y-110835000D02*
X120038748Y-110835000D01*
X120561252Y-109365000D02*
X120038748Y-109365000D01*
X126298752Y-100235000D02*
X125776248Y-100235000D01*
X126298752Y-98765000D02*
X125776248Y-98765000D01*
X134670000Y-83060000D02*
X144950000Y-83060000D01*
X144950000Y-83060000D02*
X144950000Y-80400000D01*
X144950000Y-80400000D02*
X134670000Y-80400000D01*
X134670000Y-80400000D02*
X134670000Y-83060000D01*
X135620000Y-80400000D02*
X135620000Y-74400000D01*
X135620000Y-74400000D02*
X136380000Y-74400000D01*
X136380000Y-74400000D02*
X136380000Y-80400000D01*
X135680000Y-80400000D02*
X135680000Y-74400000D01*
X135800000Y-80400000D02*
X135800000Y-74400000D01*
X135920000Y-80400000D02*
X135920000Y-74400000D01*
X136040000Y-80400000D02*
X136040000Y-74400000D01*
X136160000Y-80400000D02*
X136160000Y-74400000D01*
X136280000Y-80400000D02*
X136280000Y-74400000D01*
X135620000Y-83390000D02*
X135620000Y-83060000D01*
X136380000Y-83390000D02*
X136380000Y-83060000D01*
X137270000Y-83060000D02*
X137270000Y-80400000D01*
X138160000Y-80400000D02*
X138160000Y-74400000D01*
X138160000Y-74400000D02*
X138920000Y-74400000D01*
X138920000Y-74400000D02*
X138920000Y-80400000D01*
X138160000Y-83457071D02*
X138160000Y-83060000D01*
X138920000Y-83457071D02*
X138920000Y-83060000D01*
X139810000Y-83060000D02*
X139810000Y-80400000D01*
X140700000Y-80400000D02*
X140700000Y-74400000D01*
X140700000Y-74400000D02*
X141460000Y-74400000D01*
X141460000Y-74400000D02*
X141460000Y-80400000D01*
X140700000Y-83457071D02*
X140700000Y-83060000D01*
X141460000Y-83457071D02*
X141460000Y-83060000D01*
X142350000Y-83060000D02*
X142350000Y-80400000D01*
X143240000Y-80400000D02*
X143240000Y-74400000D01*
X143240000Y-74400000D02*
X144000000Y-74400000D01*
X144000000Y-74400000D02*
X144000000Y-80400000D01*
X143240000Y-83457071D02*
X143240000Y-83060000D01*
X144000000Y-83457071D02*
X144000000Y-83060000D01*
X136000000Y-85770000D02*
X134730000Y-85770000D01*
X134730000Y-85770000D02*
X134730000Y-84500000D01*
X148570000Y-93690000D02*
X149900000Y-93690000D01*
X148570000Y-95020000D02*
X148570000Y-93690000D01*
X148570000Y-96290000D02*
X151230000Y-96290000D01*
X151230000Y-96290000D02*
X151230000Y-103970000D01*
X148570000Y-96290000D02*
X148570000Y-103970000D01*
X148570000Y-103970000D02*
X151230000Y-103970000D01*
X111735000Y-110027064D02*
X111735000Y-109572936D01*
X110265000Y-110027064D02*
X110265000Y-109572936D01*
X106135000Y-105427064D02*
X106135000Y-104972936D01*
X104665000Y-105427064D02*
X104665000Y-104972936D01*
X115005000Y-108832936D02*
X115005000Y-109287064D01*
X116475000Y-108832936D02*
X116475000Y-109287064D01*
X120527064Y-107235000D02*
X120072936Y-107235000D01*
X120527064Y-105765000D02*
X120072936Y-105765000D01*
X128986000Y-93300000D02*
G75*
G03*
X128986000Y-93300000I-2286000J0D01*
G01*
X115786000Y-93300000D02*
G75*
G03*
X115786000Y-93300000I-2286000J0D01*
G01*
X91860000Y-90250000D02*
X90600000Y-90250000D01*
X85040000Y-90250000D02*
X86300000Y-90250000D01*
X91860000Y-94010000D02*
X91860000Y-90250000D01*
X85040000Y-96260000D02*
X85040000Y-90250000D01*
X98700000Y-95810000D02*
X100500000Y-95810000D01*
X100500000Y-92590000D02*
X98050000Y-92590000D01*
X118540000Y-100050000D02*
X118540000Y-101850000D01*
X121760000Y-101850000D02*
X121760000Y-99400000D01*
X98822936Y-99490000D02*
X100277064Y-99490000D01*
X98822936Y-101310000D02*
X100277064Y-101310000D01*
X94330000Y-72190000D02*
X104450000Y-72190000D01*
X94330000Y-81410000D02*
X104450000Y-81410000D01*
X94330000Y-76510000D02*
X94330000Y-81410000D01*
X94330000Y-72190000D02*
X94330000Y-74290000D01*
X104450000Y-76510000D02*
X104450000Y-81410000D01*
X104450000Y-76510000D02*
X105040000Y-76510000D01*
X104450000Y-74290000D02*
X105040000Y-74290000D01*
X93740000Y-74290000D02*
X94330000Y-74290000D01*
X93740000Y-76510000D02*
X94330000Y-76510000D01*
X104450000Y-72190000D02*
X104450000Y-74290000D01*
X93740000Y-76510000D02*
G75*
G02*
X93740000Y-74290000I0J1110000D01*
G01*
X105040000Y-74290000D02*
G75*
G02*
X105040000Y-76510000I0J-1110000D01*
G01*
X118570000Y-94630000D02*
X121230000Y-94630000D01*
X118570000Y-94570000D02*
X118570000Y-94630000D01*
X121230000Y-94570000D02*
X121230000Y-94630000D01*
X118570000Y-94570000D02*
X121230000Y-94570000D01*
X118570000Y-93300000D02*
X118570000Y-91970000D01*
X118570000Y-91970000D02*
X119900000Y-91970000D01*
X138530000Y-111770000D02*
X138530000Y-113100000D01*
X137200000Y-111770000D02*
X138530000Y-111770000D01*
X135930000Y-111770000D02*
X135930000Y-114430000D01*
X135930000Y-114430000D02*
X125710000Y-114430000D01*
X135930000Y-111770000D02*
X125710000Y-111770000D01*
X125710000Y-111770000D02*
X125710000Y-114430000D01*
X148570000Y-108870000D02*
X149900000Y-108870000D01*
X148570000Y-110200000D02*
X148570000Y-108870000D01*
X148570000Y-111470000D02*
X151230000Y-111470000D01*
X151230000Y-111470000D02*
X151230000Y-111530000D01*
X148570000Y-111470000D02*
X148570000Y-111530000D01*
X148570000Y-111530000D02*
X151230000Y-111530000D01*
X105340000Y-108120000D02*
X106800000Y-108120000D01*
X105340000Y-111280000D02*
X108500000Y-111280000D01*
X105340000Y-111280000D02*
X105340000Y-110350000D01*
X105340000Y-108120000D02*
X105340000Y-109050000D01*
D12*
X118538095Y-112652380D02*
X119109523Y-112652380D01*
X118823809Y-113652380D02*
X118823809Y-112652380D01*
X119442857Y-113652380D02*
X119442857Y-112652380D01*
X119823809Y-112652380D01*
X119919047Y-112700000D01*
X119966666Y-112747619D01*
X120014285Y-112842857D01*
X120014285Y-112985714D01*
X119966666Y-113080952D01*
X119919047Y-113128571D01*
X119823809Y-113176190D01*
X119442857Y-113176190D01*
X120585714Y-113080952D02*
X120490476Y-113033333D01*
X120442857Y-112985714D01*
X120395238Y-112890476D01*
X120395238Y-112842857D01*
X120442857Y-112747619D01*
X120490476Y-112700000D01*
X120585714Y-112652380D01*
X120776190Y-112652380D01*
X120871428Y-112700000D01*
X120919047Y-112747619D01*
X120966666Y-112842857D01*
X120966666Y-112890476D01*
X120919047Y-112985714D01*
X120871428Y-113033333D01*
X120776190Y-113080952D01*
X120585714Y-113080952D01*
X120490476Y-113128571D01*
X120442857Y-113176190D01*
X120395238Y-113271428D01*
X120395238Y-113461904D01*
X120442857Y-113557142D01*
X120490476Y-113604761D01*
X120585714Y-113652380D01*
X120776190Y-113652380D01*
X120871428Y-113604761D01*
X120919047Y-113557142D01*
X120966666Y-113461904D01*
X120966666Y-113271428D01*
X120919047Y-113176190D01*
X120871428Y-113128571D01*
X120776190Y-113080952D01*
X106038095Y-91200380D02*
X106609523Y-91200380D01*
X106323809Y-92200380D02*
X106323809Y-91200380D01*
X106942857Y-92200380D02*
X106942857Y-91200380D01*
X107323809Y-91200380D01*
X107419047Y-91248000D01*
X107466666Y-91295619D01*
X107514285Y-91390857D01*
X107514285Y-91533714D01*
X107466666Y-91628952D01*
X107419047Y-91676571D01*
X107323809Y-91724190D01*
X106942857Y-91724190D01*
X107847619Y-91200380D02*
X108514285Y-91200380D01*
X108085714Y-92200380D01*
X109338095Y-102152380D02*
X109909523Y-102152380D01*
X109623809Y-103152380D02*
X109623809Y-102152380D01*
X110242857Y-103152380D02*
X110242857Y-102152380D01*
X110623809Y-102152380D01*
X110719047Y-102200000D01*
X110766666Y-102247619D01*
X110814285Y-102342857D01*
X110814285Y-102485714D01*
X110766666Y-102580952D01*
X110719047Y-102628571D01*
X110623809Y-102676190D01*
X110242857Y-102676190D01*
X111671428Y-102152380D02*
X111480952Y-102152380D01*
X111385714Y-102200000D01*
X111338095Y-102247619D01*
X111242857Y-102390476D01*
X111195238Y-102580952D01*
X111195238Y-102961904D01*
X111242857Y-103057142D01*
X111290476Y-103104761D01*
X111385714Y-103152380D01*
X111576190Y-103152380D01*
X111671428Y-103104761D01*
X111719047Y-103057142D01*
X111766666Y-102961904D01*
X111766666Y-102723809D01*
X111719047Y-102628571D01*
X111671428Y-102580952D01*
X111576190Y-102533333D01*
X111385714Y-102533333D01*
X111290476Y-102580952D01*
X111242857Y-102628571D01*
X111195238Y-102723809D01*
X96038095Y-110752380D02*
X96609523Y-110752380D01*
X96323809Y-111752380D02*
X96323809Y-110752380D01*
X96942857Y-111752380D02*
X96942857Y-110752380D01*
X97323809Y-110752380D01*
X97419047Y-110800000D01*
X97466666Y-110847619D01*
X97514285Y-110942857D01*
X97514285Y-111085714D01*
X97466666Y-111180952D01*
X97419047Y-111228571D01*
X97323809Y-111276190D01*
X96942857Y-111276190D01*
X98419047Y-110752380D02*
X97942857Y-110752380D01*
X97895238Y-111228571D01*
X97942857Y-111180952D01*
X98038095Y-111133333D01*
X98276190Y-111133333D01*
X98371428Y-111180952D01*
X98419047Y-111228571D01*
X98466666Y-111323809D01*
X98466666Y-111561904D01*
X98419047Y-111657142D01*
X98371428Y-111704761D01*
X98276190Y-111752380D01*
X98038095Y-111752380D01*
X97942857Y-111704761D01*
X97895238Y-111657142D01*
X89138095Y-83100380D02*
X89709523Y-83100380D01*
X89423809Y-84100380D02*
X89423809Y-83100380D01*
X90042857Y-84100380D02*
X90042857Y-83100380D01*
X90423809Y-83100380D01*
X90519047Y-83148000D01*
X90566666Y-83195619D01*
X90614285Y-83290857D01*
X90614285Y-83433714D01*
X90566666Y-83528952D01*
X90519047Y-83576571D01*
X90423809Y-83624190D01*
X90042857Y-83624190D01*
X91471428Y-83433714D02*
X91471428Y-84100380D01*
X91233333Y-83052761D02*
X90995238Y-83767047D01*
X91614285Y-83767047D01*
X96138095Y-107152380D02*
X96709523Y-107152380D01*
X96423809Y-108152380D02*
X96423809Y-107152380D01*
X97042857Y-108152380D02*
X97042857Y-107152380D01*
X97423809Y-107152380D01*
X97519047Y-107200000D01*
X97566666Y-107247619D01*
X97614285Y-107342857D01*
X97614285Y-107485714D01*
X97566666Y-107580952D01*
X97519047Y-107628571D01*
X97423809Y-107676190D01*
X97042857Y-107676190D01*
X97947619Y-107152380D02*
X98566666Y-107152380D01*
X98233333Y-107533333D01*
X98376190Y-107533333D01*
X98471428Y-107580952D01*
X98519047Y-107628571D01*
X98566666Y-107723809D01*
X98566666Y-107961904D01*
X98519047Y-108057142D01*
X98471428Y-108104761D01*
X98376190Y-108152380D01*
X98090476Y-108152380D01*
X97995238Y-108104761D01*
X97947619Y-108057142D01*
X91666666Y-117904761D02*
X91809523Y-117952380D01*
X92047619Y-117952380D01*
X92142857Y-117904761D01*
X92190476Y-117857142D01*
X92238095Y-117761904D01*
X92238095Y-117666666D01*
X92190476Y-117571428D01*
X92142857Y-117523809D01*
X92047619Y-117476190D01*
X91857142Y-117428571D01*
X91761904Y-117380952D01*
X91714285Y-117333333D01*
X91666666Y-117238095D01*
X91666666Y-117142857D01*
X91714285Y-117047619D01*
X91761904Y-117000000D01*
X91857142Y-116952380D01*
X92095238Y-116952380D01*
X92238095Y-117000000D01*
X92571428Y-116952380D02*
X92809523Y-117952380D01*
X93000000Y-117238095D01*
X93190476Y-117952380D01*
X93428571Y-116952380D01*
X94333333Y-117952380D02*
X93761904Y-117952380D01*
X94047619Y-117952380D02*
X94047619Y-116952380D01*
X93952380Y-117095238D01*
X93857142Y-117190476D01*
X93761904Y-117238095D01*
X110502380Y-105366666D02*
X110026190Y-105700000D01*
X110502380Y-105938095D02*
X109502380Y-105938095D01*
X109502380Y-105557142D01*
X109550000Y-105461904D01*
X109597619Y-105414285D01*
X109692857Y-105366666D01*
X109835714Y-105366666D01*
X109930952Y-105414285D01*
X109978571Y-105461904D01*
X110026190Y-105557142D01*
X110026190Y-105938095D01*
X109502380Y-105033333D02*
X109502380Y-104414285D01*
X109883333Y-104747619D01*
X109883333Y-104604761D01*
X109930952Y-104509523D01*
X109978571Y-104461904D01*
X110073809Y-104414285D01*
X110311904Y-104414285D01*
X110407142Y-104461904D01*
X110454761Y-104509523D01*
X110502380Y-104604761D01*
X110502380Y-104890476D01*
X110454761Y-104985714D01*
X110407142Y-105033333D01*
X84022380Y-107933333D02*
X84736666Y-107933333D01*
X84879523Y-107980952D01*
X84974761Y-108076190D01*
X85022380Y-108219047D01*
X85022380Y-108314285D01*
X85022380Y-106933333D02*
X85022380Y-107504761D01*
X85022380Y-107219047D02*
X84022380Y-107219047D01*
X84165238Y-107314285D01*
X84260476Y-107409523D01*
X84308095Y-107504761D01*
X134752380Y-101261904D02*
X135561904Y-101261904D01*
X135657142Y-101214285D01*
X135704761Y-101166666D01*
X135752380Y-101071428D01*
X135752380Y-100880952D01*
X135704761Y-100785714D01*
X135657142Y-100738095D01*
X135561904Y-100690476D01*
X134752380Y-100690476D01*
X134847619Y-100261904D02*
X134800000Y-100214285D01*
X134752380Y-100119047D01*
X134752380Y-99880952D01*
X134800000Y-99785714D01*
X134847619Y-99738095D01*
X134942857Y-99690476D01*
X135038095Y-99690476D01*
X135180952Y-99738095D01*
X135752380Y-100309523D01*
X135752380Y-99690476D01*
X115416666Y-119724761D02*
X115559523Y-119772380D01*
X115797619Y-119772380D01*
X115892857Y-119724761D01*
X115940476Y-119677142D01*
X115988095Y-119581904D01*
X115988095Y-119486666D01*
X115940476Y-119391428D01*
X115892857Y-119343809D01*
X115797619Y-119296190D01*
X115607142Y-119248571D01*
X115511904Y-119200952D01*
X115464285Y-119153333D01*
X115416666Y-119058095D01*
X115416666Y-118962857D01*
X115464285Y-118867619D01*
X115511904Y-118820000D01*
X115607142Y-118772380D01*
X115845238Y-118772380D01*
X115988095Y-118820000D01*
X116321428Y-118772380D02*
X116559523Y-119772380D01*
X116750000Y-119058095D01*
X116940476Y-119772380D01*
X117178571Y-118772380D01*
X117464285Y-118772380D02*
X118083333Y-118772380D01*
X117750000Y-119153333D01*
X117892857Y-119153333D01*
X117988095Y-119200952D01*
X118035714Y-119248571D01*
X118083333Y-119343809D01*
X118083333Y-119581904D01*
X118035714Y-119677142D01*
X117988095Y-119724761D01*
X117892857Y-119772380D01*
X117607142Y-119772380D01*
X117511904Y-119724761D01*
X117464285Y-119677142D01*
X109704761Y-96247619D02*
X109609523Y-96200000D01*
X109514285Y-96104761D01*
X109371428Y-95961904D01*
X109276190Y-95914285D01*
X109180952Y-95914285D01*
X109228571Y-96152380D02*
X109133333Y-96104761D01*
X109038095Y-96009523D01*
X108990476Y-95819047D01*
X108990476Y-95485714D01*
X109038095Y-95295238D01*
X109133333Y-95200000D01*
X109228571Y-95152380D01*
X109419047Y-95152380D01*
X109514285Y-95200000D01*
X109609523Y-95295238D01*
X109657142Y-95485714D01*
X109657142Y-95819047D01*
X109609523Y-96009523D01*
X109514285Y-96104761D01*
X109419047Y-96152380D01*
X109228571Y-96152380D01*
X110038095Y-95247619D02*
X110085714Y-95200000D01*
X110180952Y-95152380D01*
X110419047Y-95152380D01*
X110514285Y-95200000D01*
X110561904Y-95247619D01*
X110609523Y-95342857D01*
X110609523Y-95438095D01*
X110561904Y-95580952D01*
X109990476Y-96152380D01*
X110609523Y-96152380D01*
X137416666Y-119724761D02*
X137559523Y-119772380D01*
X137797619Y-119772380D01*
X137892857Y-119724761D01*
X137940476Y-119677142D01*
X137988095Y-119581904D01*
X137988095Y-119486666D01*
X137940476Y-119391428D01*
X137892857Y-119343809D01*
X137797619Y-119296190D01*
X137607142Y-119248571D01*
X137511904Y-119200952D01*
X137464285Y-119153333D01*
X137416666Y-119058095D01*
X137416666Y-118962857D01*
X137464285Y-118867619D01*
X137511904Y-118820000D01*
X137607142Y-118772380D01*
X137845238Y-118772380D01*
X137988095Y-118820000D01*
X138321428Y-118772380D02*
X138559523Y-119772380D01*
X138750000Y-119058095D01*
X138940476Y-119772380D01*
X139178571Y-118772380D01*
X140035714Y-118772380D02*
X139559523Y-118772380D01*
X139511904Y-119248571D01*
X139559523Y-119200952D01*
X139654761Y-119153333D01*
X139892857Y-119153333D01*
X139988095Y-119200952D01*
X140035714Y-119248571D01*
X140083333Y-119343809D01*
X140083333Y-119581904D01*
X140035714Y-119677142D01*
X139988095Y-119724761D01*
X139892857Y-119772380D01*
X139654761Y-119772380D01*
X139559523Y-119724761D01*
X139511904Y-119677142D01*
X126416666Y-119724761D02*
X126559523Y-119772380D01*
X126797619Y-119772380D01*
X126892857Y-119724761D01*
X126940476Y-119677142D01*
X126988095Y-119581904D01*
X126988095Y-119486666D01*
X126940476Y-119391428D01*
X126892857Y-119343809D01*
X126797619Y-119296190D01*
X126607142Y-119248571D01*
X126511904Y-119200952D01*
X126464285Y-119153333D01*
X126416666Y-119058095D01*
X126416666Y-118962857D01*
X126464285Y-118867619D01*
X126511904Y-118820000D01*
X126607142Y-118772380D01*
X126845238Y-118772380D01*
X126988095Y-118820000D01*
X127321428Y-118772380D02*
X127559523Y-119772380D01*
X127750000Y-119058095D01*
X127940476Y-119772380D01*
X128178571Y-118772380D01*
X128988095Y-119105714D02*
X128988095Y-119772380D01*
X128750000Y-118724761D02*
X128511904Y-119439047D01*
X129130952Y-119439047D01*
X104416666Y-119724761D02*
X104559523Y-119772380D01*
X104797619Y-119772380D01*
X104892857Y-119724761D01*
X104940476Y-119677142D01*
X104988095Y-119581904D01*
X104988095Y-119486666D01*
X104940476Y-119391428D01*
X104892857Y-119343809D01*
X104797619Y-119296190D01*
X104607142Y-119248571D01*
X104511904Y-119200952D01*
X104464285Y-119153333D01*
X104416666Y-119058095D01*
X104416666Y-118962857D01*
X104464285Y-118867619D01*
X104511904Y-118820000D01*
X104607142Y-118772380D01*
X104845238Y-118772380D01*
X104988095Y-118820000D01*
X105321428Y-118772380D02*
X105559523Y-119772380D01*
X105750000Y-119058095D01*
X105940476Y-119772380D01*
X106178571Y-118772380D01*
X106511904Y-118867619D02*
X106559523Y-118820000D01*
X106654761Y-118772380D01*
X106892857Y-118772380D01*
X106988095Y-118820000D01*
X107035714Y-118867619D01*
X107083333Y-118962857D01*
X107083333Y-119058095D01*
X107035714Y-119200952D01*
X106464285Y-119772380D01*
X107083333Y-119772380D01*
X87295833Y-86617142D02*
X87248214Y-86664761D01*
X87105357Y-86712380D01*
X87010119Y-86712380D01*
X86867261Y-86664761D01*
X86772023Y-86569523D01*
X86724404Y-86474285D01*
X86676785Y-86283809D01*
X86676785Y-86140952D01*
X86724404Y-85950476D01*
X86772023Y-85855238D01*
X86867261Y-85760000D01*
X87010119Y-85712380D01*
X87105357Y-85712380D01*
X87248214Y-85760000D01*
X87295833Y-85807619D01*
X88248214Y-86712380D02*
X87676785Y-86712380D01*
X87962500Y-86712380D02*
X87962500Y-85712380D01*
X87867261Y-85855238D01*
X87772023Y-85950476D01*
X87676785Y-85998095D01*
X140070833Y-108357142D02*
X140023214Y-108404761D01*
X139880357Y-108452380D01*
X139785119Y-108452380D01*
X139642261Y-108404761D01*
X139547023Y-108309523D01*
X139499404Y-108214285D01*
X139451785Y-108023809D01*
X139451785Y-107880952D01*
X139499404Y-107690476D01*
X139547023Y-107595238D01*
X139642261Y-107500000D01*
X139785119Y-107452380D01*
X139880357Y-107452380D01*
X140023214Y-107500000D01*
X140070833Y-107547619D01*
X140451785Y-107547619D02*
X140499404Y-107500000D01*
X140594642Y-107452380D01*
X140832738Y-107452380D01*
X140927976Y-107500000D01*
X140975595Y-107547619D01*
X141023214Y-107642857D01*
X141023214Y-107738095D01*
X140975595Y-107880952D01*
X140404166Y-108452380D01*
X141023214Y-108452380D01*
X140133333Y-93557142D02*
X140085714Y-93604761D01*
X139942857Y-93652380D01*
X139847619Y-93652380D01*
X139704761Y-93604761D01*
X139609523Y-93509523D01*
X139561904Y-93414285D01*
X139514285Y-93223809D01*
X139514285Y-93080952D01*
X139561904Y-92890476D01*
X139609523Y-92795238D01*
X139704761Y-92700000D01*
X139847619Y-92652380D01*
X139942857Y-92652380D01*
X140085714Y-92700000D01*
X140133333Y-92747619D01*
X140466666Y-92652380D02*
X141085714Y-92652380D01*
X140752380Y-93033333D01*
X140895238Y-93033333D01*
X140990476Y-93080952D01*
X141038095Y-93128571D01*
X141085714Y-93223809D01*
X141085714Y-93461904D01*
X141038095Y-93557142D01*
X140990476Y-93604761D01*
X140895238Y-93652380D01*
X140609523Y-93652380D01*
X140514285Y-93604761D01*
X140466666Y-93557142D01*
X104395833Y-95437142D02*
X104348214Y-95484761D01*
X104205357Y-95532380D01*
X104110119Y-95532380D01*
X103967261Y-95484761D01*
X103872023Y-95389523D01*
X103824404Y-95294285D01*
X103776785Y-95103809D01*
X103776785Y-94960952D01*
X103824404Y-94770476D01*
X103872023Y-94675238D01*
X103967261Y-94580000D01*
X104110119Y-94532380D01*
X104205357Y-94532380D01*
X104348214Y-94580000D01*
X104395833Y-94627619D01*
X105252976Y-94865714D02*
X105252976Y-95532380D01*
X105014880Y-94484761D02*
X104776785Y-95199047D01*
X105395833Y-95199047D01*
X120133333Y-112137142D02*
X120085714Y-112184761D01*
X119942857Y-112232380D01*
X119847619Y-112232380D01*
X119704761Y-112184761D01*
X119609523Y-112089523D01*
X119561904Y-111994285D01*
X119514285Y-111803809D01*
X119514285Y-111660952D01*
X119561904Y-111470476D01*
X119609523Y-111375238D01*
X119704761Y-111280000D01*
X119847619Y-111232380D01*
X119942857Y-111232380D01*
X120085714Y-111280000D01*
X120133333Y-111327619D01*
X121038095Y-111232380D02*
X120561904Y-111232380D01*
X120514285Y-111708571D01*
X120561904Y-111660952D01*
X120657142Y-111613333D01*
X120895238Y-111613333D01*
X120990476Y-111660952D01*
X121038095Y-111708571D01*
X121085714Y-111803809D01*
X121085714Y-112041904D01*
X121038095Y-112137142D01*
X120990476Y-112184761D01*
X120895238Y-112232380D01*
X120657142Y-112232380D01*
X120561904Y-112184761D01*
X120514285Y-112137142D01*
X125870833Y-101537142D02*
X125823214Y-101584761D01*
X125680357Y-101632380D01*
X125585119Y-101632380D01*
X125442261Y-101584761D01*
X125347023Y-101489523D01*
X125299404Y-101394285D01*
X125251785Y-101203809D01*
X125251785Y-101060952D01*
X125299404Y-100870476D01*
X125347023Y-100775238D01*
X125442261Y-100680000D01*
X125585119Y-100632380D01*
X125680357Y-100632380D01*
X125823214Y-100680000D01*
X125870833Y-100727619D01*
X126727976Y-100632380D02*
X126537500Y-100632380D01*
X126442261Y-100680000D01*
X126394642Y-100727619D01*
X126299404Y-100870476D01*
X126251785Y-101060952D01*
X126251785Y-101441904D01*
X126299404Y-101537142D01*
X126347023Y-101584761D01*
X126442261Y-101632380D01*
X126632738Y-101632380D01*
X126727976Y-101584761D01*
X126775595Y-101537142D01*
X126823214Y-101441904D01*
X126823214Y-101203809D01*
X126775595Y-101108571D01*
X126727976Y-101060952D01*
X126632738Y-101013333D01*
X126442261Y-101013333D01*
X126347023Y-101060952D01*
X126299404Y-101108571D01*
X126251785Y-101203809D01*
X133182380Y-80448333D02*
X133896666Y-80448333D01*
X134039523Y-80495952D01*
X134134761Y-80591190D01*
X134182380Y-80734047D01*
X134182380Y-80829285D01*
X133182380Y-80067380D02*
X133182380Y-79448333D01*
X133563333Y-79781666D01*
X133563333Y-79638809D01*
X133610952Y-79543571D01*
X133658571Y-79495952D01*
X133753809Y-79448333D01*
X133991904Y-79448333D01*
X134087142Y-79495952D01*
X134134761Y-79543571D01*
X134182380Y-79638809D01*
X134182380Y-79924523D01*
X134134761Y-80019761D01*
X134087142Y-80067380D01*
X149566666Y-92142380D02*
X149566666Y-92856666D01*
X149519047Y-92999523D01*
X149423809Y-93094761D01*
X149280952Y-93142380D01*
X149185714Y-93142380D01*
X150519047Y-92142380D02*
X150042857Y-92142380D01*
X149995238Y-92618571D01*
X150042857Y-92570952D01*
X150138095Y-92523333D01*
X150376190Y-92523333D01*
X150471428Y-92570952D01*
X150519047Y-92618571D01*
X150566666Y-92713809D01*
X150566666Y-92951904D01*
X150519047Y-93047142D01*
X150471428Y-93094761D01*
X150376190Y-93142380D01*
X150138095Y-93142380D01*
X150042857Y-93094761D01*
X149995238Y-93047142D01*
X113052380Y-109966666D02*
X112576190Y-110300000D01*
X113052380Y-110538095D02*
X112052380Y-110538095D01*
X112052380Y-110157142D01*
X112100000Y-110061904D01*
X112147619Y-110014285D01*
X112242857Y-109966666D01*
X112385714Y-109966666D01*
X112480952Y-110014285D01*
X112528571Y-110061904D01*
X112576190Y-110157142D01*
X112576190Y-110538095D01*
X113052380Y-109014285D02*
X113052380Y-109585714D01*
X113052380Y-109300000D02*
X112052380Y-109300000D01*
X112195238Y-109395238D01*
X112290476Y-109490476D01*
X112338095Y-109585714D01*
X104202380Y-105366666D02*
X103726190Y-105700000D01*
X104202380Y-105938095D02*
X103202380Y-105938095D01*
X103202380Y-105557142D01*
X103250000Y-105461904D01*
X103297619Y-105414285D01*
X103392857Y-105366666D01*
X103535714Y-105366666D01*
X103630952Y-105414285D01*
X103678571Y-105461904D01*
X103726190Y-105557142D01*
X103726190Y-105938095D01*
X103297619Y-104985714D02*
X103250000Y-104938095D01*
X103202380Y-104842857D01*
X103202380Y-104604761D01*
X103250000Y-104509523D01*
X103297619Y-104461904D01*
X103392857Y-104414285D01*
X103488095Y-104414285D01*
X103630952Y-104461904D01*
X104202380Y-105033333D01*
X104202380Y-104414285D01*
X117842380Y-109226666D02*
X117366190Y-109560000D01*
X117842380Y-109798095D02*
X116842380Y-109798095D01*
X116842380Y-109417142D01*
X116890000Y-109321904D01*
X116937619Y-109274285D01*
X117032857Y-109226666D01*
X117175714Y-109226666D01*
X117270952Y-109274285D01*
X117318571Y-109321904D01*
X117366190Y-109417142D01*
X117366190Y-109798095D01*
X116842380Y-108321904D02*
X116842380Y-108798095D01*
X117318571Y-108845714D01*
X117270952Y-108798095D01*
X117223333Y-108702857D01*
X117223333Y-108464761D01*
X117270952Y-108369523D01*
X117318571Y-108321904D01*
X117413809Y-108274285D01*
X117651904Y-108274285D01*
X117747142Y-108321904D01*
X117794761Y-108369523D01*
X117842380Y-108464761D01*
X117842380Y-108702857D01*
X117794761Y-108798095D01*
X117747142Y-108845714D01*
X120133333Y-108602380D02*
X119800000Y-108126190D01*
X119561904Y-108602380D02*
X119561904Y-107602380D01*
X119942857Y-107602380D01*
X120038095Y-107650000D01*
X120085714Y-107697619D01*
X120133333Y-107792857D01*
X120133333Y-107935714D01*
X120085714Y-108030952D01*
X120038095Y-108078571D01*
X119942857Y-108126190D01*
X119561904Y-108126190D01*
X120990476Y-107602380D02*
X120800000Y-107602380D01*
X120704761Y-107650000D01*
X120657142Y-107697619D01*
X120561904Y-107840476D01*
X120514285Y-108030952D01*
X120514285Y-108411904D01*
X120561904Y-108507142D01*
X120609523Y-108554761D01*
X120704761Y-108602380D01*
X120895238Y-108602380D01*
X120990476Y-108554761D01*
X121038095Y-108507142D01*
X121085714Y-108411904D01*
X121085714Y-108173809D01*
X121038095Y-108078571D01*
X120990476Y-108030952D01*
X120895238Y-107983333D01*
X120704761Y-107983333D01*
X120609523Y-108030952D01*
X120561904Y-108078571D01*
X120514285Y-108173809D01*
X125438095Y-89704380D02*
X126009523Y-89704380D01*
X125723809Y-90704380D02*
X125723809Y-89704380D01*
X126342857Y-90704380D02*
X126342857Y-89704380D01*
X126723809Y-89704380D01*
X126819047Y-89752000D01*
X126866666Y-89799619D01*
X126914285Y-89894857D01*
X126914285Y-90037714D01*
X126866666Y-90132952D01*
X126819047Y-90180571D01*
X126723809Y-90228190D01*
X126342857Y-90228190D01*
X127866666Y-90704380D02*
X127295238Y-90704380D01*
X127580952Y-90704380D02*
X127580952Y-89704380D01*
X127485714Y-89847238D01*
X127390476Y-89942476D01*
X127295238Y-89990095D01*
X112238095Y-89704380D02*
X112809523Y-89704380D01*
X112523809Y-90704380D02*
X112523809Y-89704380D01*
X113142857Y-90704380D02*
X113142857Y-89704380D01*
X113523809Y-89704380D01*
X113619047Y-89752000D01*
X113666666Y-89799619D01*
X113714285Y-89894857D01*
X113714285Y-90037714D01*
X113666666Y-90132952D01*
X113619047Y-90180571D01*
X113523809Y-90228190D01*
X113142857Y-90228190D01*
X114095238Y-89799619D02*
X114142857Y-89752000D01*
X114238095Y-89704380D01*
X114476190Y-89704380D01*
X114571428Y-89752000D01*
X114619047Y-89799619D01*
X114666666Y-89894857D01*
X114666666Y-89990095D01*
X114619047Y-90132952D01*
X114047619Y-90704380D01*
X114666666Y-90704380D01*
X83402380Y-92921904D02*
X84211904Y-92921904D01*
X84307142Y-92874285D01*
X84354761Y-92826666D01*
X84402380Y-92731428D01*
X84402380Y-92540952D01*
X84354761Y-92445714D01*
X84307142Y-92398095D01*
X84211904Y-92350476D01*
X83402380Y-92350476D01*
X84402380Y-91350476D02*
X84402380Y-91921904D01*
X84402380Y-91636190D02*
X83402380Y-91636190D01*
X83545238Y-91731428D01*
X83640476Y-91826666D01*
X83688095Y-91921904D01*
X98838095Y-90752380D02*
X98838095Y-91561904D01*
X98885714Y-91657142D01*
X98933333Y-91704761D01*
X99028571Y-91752380D01*
X99219047Y-91752380D01*
X99314285Y-91704761D01*
X99361904Y-91657142D01*
X99409523Y-91561904D01*
X99409523Y-90752380D01*
X99790476Y-90752380D02*
X100409523Y-90752380D01*
X100076190Y-91133333D01*
X100219047Y-91133333D01*
X100314285Y-91180952D01*
X100361904Y-91228571D01*
X100409523Y-91323809D01*
X100409523Y-91561904D01*
X100361904Y-91657142D01*
X100314285Y-91704761D01*
X100219047Y-91752380D01*
X99933333Y-91752380D01*
X99838095Y-91704761D01*
X99790476Y-91657142D01*
X122502380Y-101711904D02*
X123311904Y-101711904D01*
X123407142Y-101664285D01*
X123454761Y-101616666D01*
X123502380Y-101521428D01*
X123502380Y-101330952D01*
X123454761Y-101235714D01*
X123407142Y-101188095D01*
X123311904Y-101140476D01*
X122502380Y-101140476D01*
X122835714Y-100235714D02*
X123502380Y-100235714D01*
X122454761Y-100473809D02*
X123169047Y-100711904D01*
X123169047Y-100092857D01*
X99383333Y-99032380D02*
X99050000Y-98556190D01*
X98811904Y-99032380D02*
X98811904Y-98032380D01*
X99192857Y-98032380D01*
X99288095Y-98080000D01*
X99335714Y-98127619D01*
X99383333Y-98222857D01*
X99383333Y-98365714D01*
X99335714Y-98460952D01*
X99288095Y-98508571D01*
X99192857Y-98556190D01*
X98811904Y-98556190D01*
X100240476Y-98365714D02*
X100240476Y-99032380D01*
X100002380Y-97984761D02*
X99764285Y-98699047D01*
X100383333Y-98699047D01*
X90866666Y-76852380D02*
X90866666Y-77566666D01*
X90819047Y-77709523D01*
X90723809Y-77804761D01*
X90580952Y-77852380D01*
X90485714Y-77852380D01*
X91295238Y-76947619D02*
X91342857Y-76900000D01*
X91438095Y-76852380D01*
X91676190Y-76852380D01*
X91771428Y-76900000D01*
X91819047Y-76947619D01*
X91866666Y-77042857D01*
X91866666Y-77138095D01*
X91819047Y-77280952D01*
X91247619Y-77852380D01*
X91866666Y-77852380D01*
X104318571Y-85507142D02*
X105461428Y-85507142D01*
X93318571Y-85507142D02*
X94461428Y-85507142D01*
X93890000Y-86078571D02*
X93890000Y-84935714D01*
X119566666Y-90422380D02*
X119566666Y-91136666D01*
X119519047Y-91279523D01*
X119423809Y-91374761D01*
X119280952Y-91422380D01*
X119185714Y-91422380D01*
X120471428Y-90755714D02*
X120471428Y-91422380D01*
X120233333Y-90374761D02*
X119995238Y-91089047D01*
X120614285Y-91089047D01*
X138982380Y-113433333D02*
X139696666Y-113433333D01*
X139839523Y-113480952D01*
X139934761Y-113576190D01*
X139982380Y-113719047D01*
X139982380Y-113814285D01*
X138982380Y-112528571D02*
X138982380Y-112719047D01*
X139030000Y-112814285D01*
X139077619Y-112861904D01*
X139220476Y-112957142D01*
X139410952Y-113004761D01*
X139791904Y-113004761D01*
X139887142Y-112957142D01*
X139934761Y-112909523D01*
X139982380Y-112814285D01*
X139982380Y-112623809D01*
X139934761Y-112528571D01*
X139887142Y-112480952D01*
X139791904Y-112433333D01*
X139553809Y-112433333D01*
X139458571Y-112480952D01*
X139410952Y-112528571D01*
X139363333Y-112623809D01*
X139363333Y-112814285D01*
X139410952Y-112909523D01*
X139458571Y-112957142D01*
X139553809Y-113004761D01*
X149566666Y-107322380D02*
X149566666Y-108036666D01*
X149519047Y-108179523D01*
X149423809Y-108274761D01*
X149280952Y-108322380D01*
X149185714Y-108322380D01*
X149947619Y-107322380D02*
X150614285Y-107322380D01*
X150185714Y-108322380D01*
X106004761Y-112747619D02*
X105909523Y-112700000D01*
X105814285Y-112604761D01*
X105671428Y-112461904D01*
X105576190Y-112414285D01*
X105480952Y-112414285D01*
X105528571Y-112652380D02*
X105433333Y-112604761D01*
X105338095Y-112509523D01*
X105290476Y-112319047D01*
X105290476Y-111985714D01*
X105338095Y-111795238D01*
X105433333Y-111700000D01*
X105528571Y-111652380D01*
X105719047Y-111652380D01*
X105814285Y-111700000D01*
X105909523Y-111795238D01*
X105957142Y-111985714D01*
X105957142Y-112319047D01*
X105909523Y-112509523D01*
X105814285Y-112604761D01*
X105719047Y-112652380D01*
X105528571Y-112652380D01*
X106909523Y-112652380D02*
X106338095Y-112652380D01*
X106623809Y-112652380D02*
X106623809Y-111652380D01*
X106528571Y-111795238D01*
X106433333Y-111890476D01*
X106338095Y-111938095D01*
%LPC*%
D10*
G36*
X116000000Y-102000000D02*
G01*
X114000000Y-102000000D01*
X114000000Y-97000000D01*
X116000000Y-97000000D01*
X116000000Y-102000000D01*
G37*
X116000000Y-102000000D02*
X114000000Y-102000000D01*
X114000000Y-97000000D01*
X116000000Y-97000000D01*
X116000000Y-102000000D01*
G36*
X105000000Y-102000000D02*
G01*
X103000000Y-102000000D01*
X103000000Y-97000000D01*
X105000000Y-97000000D01*
X105000000Y-102000000D01*
G37*
X105000000Y-102000000D02*
X103000000Y-102000000D01*
X103000000Y-97000000D01*
X105000000Y-97000000D01*
X105000000Y-102000000D01*
G36*
X98400000Y-91600000D02*
G01*
X96588380Y-91600040D01*
X96625000Y-102000000D01*
X94000000Y-102000000D01*
X93950000Y-87800000D01*
X98400000Y-87800000D01*
X98400000Y-91600000D01*
G37*
X98400000Y-91600000D02*
X96588380Y-91600040D01*
X96625000Y-102000000D01*
X94000000Y-102000000D01*
X93950000Y-87800000D01*
X98400000Y-87800000D01*
X98400000Y-91600000D01*
D14*
X122900000Y-112900000D03*
X107300000Y-89600000D03*
X113000000Y-104500000D03*
X100300000Y-111200000D03*
X90400000Y-81500000D03*
X100300000Y-107600000D03*
D15*
X98000000Y-122800000D03*
X95500000Y-122800000D03*
X93000000Y-122800000D03*
X98000000Y-119500000D03*
X95500000Y-119500000D03*
G36*
G01*
X92250000Y-120200000D02*
X92250000Y-118800000D01*
G75*
G02*
X92300000Y-118750000I50000J0D01*
G01*
X93700000Y-118750000D01*
G75*
G02*
X93750000Y-118800000I0J-50000D01*
G01*
X93750000Y-120200000D01*
G75*
G02*
X93700000Y-120250000I-50000J0D01*
G01*
X92300000Y-120250000D01*
G75*
G02*
X92250000Y-120200000I0J50000D01*
G01*
G37*
G36*
G01*
X107920832Y-103550000D02*
X108879168Y-103550000D01*
G75*
G02*
X109150000Y-103820832I0J-270832D01*
G01*
X109150000Y-104579168D01*
G75*
G02*
X108879168Y-104850000I-270832J0D01*
G01*
X107920832Y-104850000D01*
G75*
G02*
X107650000Y-104579168I0J270832D01*
G01*
X107650000Y-103820832D01*
G75*
G02*
X107920832Y-103550000I270832J0D01*
G01*
G37*
G36*
G01*
X107920832Y-105550000D02*
X108879168Y-105550000D01*
G75*
G02*
X109150000Y-105820832I0J-270832D01*
G01*
X109150000Y-106579168D01*
G75*
G02*
X108879168Y-106850000I-270832J0D01*
G01*
X107920832Y-106850000D01*
G75*
G02*
X107650000Y-106579168I0J270832D01*
G01*
X107650000Y-105820832D01*
G75*
G02*
X107920832Y-105550000I270832J0D01*
G01*
G37*
G36*
G01*
X87750000Y-108500000D02*
X86050000Y-108500000D01*
G75*
G02*
X86000000Y-108450000I0J50000D01*
G01*
X86000000Y-106750000D01*
G75*
G02*
X86050000Y-106700000I50000J0D01*
G01*
X87750000Y-106700000D01*
G75*
G02*
X87800000Y-106750000I0J-50000D01*
G01*
X87800000Y-108450000D01*
G75*
G02*
X87750000Y-108500000I-50000J0D01*
G01*
G37*
D16*
X89440000Y-107600000D03*
X91980000Y-107600000D03*
X94520000Y-107600000D03*
D17*
X87000000Y-78000000D03*
X149000000Y-78000000D03*
X149000000Y-120000000D03*
X87000000Y-120000000D03*
G36*
G01*
X136700000Y-104150000D02*
X136450000Y-104150000D01*
G75*
G02*
X136325000Y-104025000I0J125000D01*
G01*
X136325000Y-102700000D01*
G75*
G02*
X136450000Y-102575000I125000J0D01*
G01*
X136700000Y-102575000D01*
G75*
G02*
X136825000Y-102700000I0J-125000D01*
G01*
X136825000Y-104025000D01*
G75*
G02*
X136700000Y-104150000I-125000J0D01*
G01*
G37*
G36*
G01*
X137350000Y-104150000D02*
X137100000Y-104150000D01*
G75*
G02*
X136975000Y-104025000I0J125000D01*
G01*
X136975000Y-102700000D01*
G75*
G02*
X137100000Y-102575000I125000J0D01*
G01*
X137350000Y-102575000D01*
G75*
G02*
X137475000Y-102700000I0J-125000D01*
G01*
X137475000Y-104025000D01*
G75*
G02*
X137350000Y-104150000I-125000J0D01*
G01*
G37*
G36*
G01*
X138000000Y-104150000D02*
X137750000Y-104150000D01*
G75*
G02*
X137625000Y-104025000I0J125000D01*
G01*
X137625000Y-102700000D01*
G75*
G02*
X137750000Y-102575000I125000J0D01*
G01*
X138000000Y-102575000D01*
G75*
G02*
X138125000Y-102700000I0J-125000D01*
G01*
X138125000Y-104025000D01*
G75*
G02*
X138000000Y-104150000I-125000J0D01*
G01*
G37*
G36*
G01*
X138650000Y-104150000D02*
X138400000Y-104150000D01*
G75*
G02*
X138275000Y-104025000I0J125000D01*
G01*
X138275000Y-102700000D01*
G75*
G02*
X138400000Y-102575000I125000J0D01*
G01*
X138650000Y-102575000D01*
G75*
G02*
X138775000Y-102700000I0J-125000D01*
G01*
X138775000Y-104025000D01*
G75*
G02*
X138650000Y-104150000I-125000J0D01*
G01*
G37*
G36*
G01*
X139300000Y-104150000D02*
X139050000Y-104150000D01*
G75*
G02*
X138925000Y-104025000I0J125000D01*
G01*
X138925000Y-102700000D01*
G75*
G02*
X139050000Y-102575000I125000J0D01*
G01*
X139300000Y-102575000D01*
G75*
G02*
X139425000Y-102700000I0J-125000D01*
G01*
X139425000Y-104025000D01*
G75*
G02*
X139300000Y-104150000I-125000J0D01*
G01*
G37*
G36*
G01*
X139950000Y-104150000D02*
X139700000Y-104150000D01*
G75*
G02*
X139575000Y-104025000I0J125000D01*
G01*
X139575000Y-102700000D01*
G75*
G02*
X139700000Y-102575000I125000J0D01*
G01*
X139950000Y-102575000D01*
G75*
G02*
X140075000Y-102700000I0J-125000D01*
G01*
X140075000Y-104025000D01*
G75*
G02*
X139950000Y-104150000I-125000J0D01*
G01*
G37*
G36*
G01*
X140600000Y-104150000D02*
X140350000Y-104150000D01*
G75*
G02*
X140225000Y-104025000I0J125000D01*
G01*
X140225000Y-102700000D01*
G75*
G02*
X140350000Y-102575000I125000J0D01*
G01*
X140600000Y-102575000D01*
G75*
G02*
X140725000Y-102700000I0J-125000D01*
G01*
X140725000Y-104025000D01*
G75*
G02*
X140600000Y-104150000I-125000J0D01*
G01*
G37*
G36*
G01*
X141250000Y-104150000D02*
X141000000Y-104150000D01*
G75*
G02*
X140875000Y-104025000I0J125000D01*
G01*
X140875000Y-102700000D01*
G75*
G02*
X141000000Y-102575000I125000J0D01*
G01*
X141250000Y-102575000D01*
G75*
G02*
X141375000Y-102700000I0J-125000D01*
G01*
X141375000Y-104025000D01*
G75*
G02*
X141250000Y-104150000I-125000J0D01*
G01*
G37*
G36*
G01*
X141900000Y-104150000D02*
X141650000Y-104150000D01*
G75*
G02*
X141525000Y-104025000I0J125000D01*
G01*
X141525000Y-102700000D01*
G75*
G02*
X141650000Y-102575000I125000J0D01*
G01*
X141900000Y-102575000D01*
G75*
G02*
X142025000Y-102700000I0J-125000D01*
G01*
X142025000Y-104025000D01*
G75*
G02*
X141900000Y-104150000I-125000J0D01*
G01*
G37*
G36*
G01*
X142550000Y-104150000D02*
X142300000Y-104150000D01*
G75*
G02*
X142175000Y-104025000I0J125000D01*
G01*
X142175000Y-102700000D01*
G75*
G02*
X142300000Y-102575000I125000J0D01*
G01*
X142550000Y-102575000D01*
G75*
G02*
X142675000Y-102700000I0J-125000D01*
G01*
X142675000Y-104025000D01*
G75*
G02*
X142550000Y-104150000I-125000J0D01*
G01*
G37*
G36*
G01*
X142550000Y-98425000D02*
X142300000Y-98425000D01*
G75*
G02*
X142175000Y-98300000I0J125000D01*
G01*
X142175000Y-96975000D01*
G75*
G02*
X142300000Y-96850000I125000J0D01*
G01*
X142550000Y-96850000D01*
G75*
G02*
X142675000Y-96975000I0J-125000D01*
G01*
X142675000Y-98300000D01*
G75*
G02*
X142550000Y-98425000I-125000J0D01*
G01*
G37*
G36*
G01*
X141900000Y-98425000D02*
X141650000Y-98425000D01*
G75*
G02*
X141525000Y-98300000I0J125000D01*
G01*
X141525000Y-96975000D01*
G75*
G02*
X141650000Y-96850000I125000J0D01*
G01*
X141900000Y-96850000D01*
G75*
G02*
X142025000Y-96975000I0J-125000D01*
G01*
X142025000Y-98300000D01*
G75*
G02*
X141900000Y-98425000I-125000J0D01*
G01*
G37*
G36*
G01*
X141250000Y-98425000D02*
X141000000Y-98425000D01*
G75*
G02*
X140875000Y-98300000I0J125000D01*
G01*
X140875000Y-96975000D01*
G75*
G02*
X141000000Y-96850000I125000J0D01*
G01*
X141250000Y-96850000D01*
G75*
G02*
X141375000Y-96975000I0J-125000D01*
G01*
X141375000Y-98300000D01*
G75*
G02*
X141250000Y-98425000I-125000J0D01*
G01*
G37*
G36*
G01*
X140600000Y-98425000D02*
X140350000Y-98425000D01*
G75*
G02*
X140225000Y-98300000I0J125000D01*
G01*
X140225000Y-96975000D01*
G75*
G02*
X140350000Y-96850000I125000J0D01*
G01*
X140600000Y-96850000D01*
G75*
G02*
X140725000Y-96975000I0J-125000D01*
G01*
X140725000Y-98300000D01*
G75*
G02*
X140600000Y-98425000I-125000J0D01*
G01*
G37*
G36*
G01*
X139950000Y-98425000D02*
X139700000Y-98425000D01*
G75*
G02*
X139575000Y-98300000I0J125000D01*
G01*
X139575000Y-96975000D01*
G75*
G02*
X139700000Y-96850000I125000J0D01*
G01*
X139950000Y-96850000D01*
G75*
G02*
X140075000Y-96975000I0J-125000D01*
G01*
X140075000Y-98300000D01*
G75*
G02*
X139950000Y-98425000I-125000J0D01*
G01*
G37*
G36*
G01*
X139300000Y-98425000D02*
X139050000Y-98425000D01*
G75*
G02*
X138925000Y-98300000I0J125000D01*
G01*
X138925000Y-96975000D01*
G75*
G02*
X139050000Y-96850000I125000J0D01*
G01*
X139300000Y-96850000D01*
G75*
G02*
X139425000Y-96975000I0J-125000D01*
G01*
X139425000Y-98300000D01*
G75*
G02*
X139300000Y-98425000I-125000J0D01*
G01*
G37*
G36*
G01*
X138650000Y-98425000D02*
X138400000Y-98425000D01*
G75*
G02*
X138275000Y-98300000I0J125000D01*
G01*
X138275000Y-96975000D01*
G75*
G02*
X138400000Y-96850000I125000J0D01*
G01*
X138650000Y-96850000D01*
G75*
G02*
X138775000Y-96975000I0J-125000D01*
G01*
X138775000Y-98300000D01*
G75*
G02*
X138650000Y-98425000I-125000J0D01*
G01*
G37*
G36*
G01*
X138000000Y-98425000D02*
X137750000Y-98425000D01*
G75*
G02*
X137625000Y-98300000I0J125000D01*
G01*
X137625000Y-96975000D01*
G75*
G02*
X137750000Y-96850000I125000J0D01*
G01*
X138000000Y-96850000D01*
G75*
G02*
X138125000Y-96975000I0J-125000D01*
G01*
X138125000Y-98300000D01*
G75*
G02*
X138000000Y-98425000I-125000J0D01*
G01*
G37*
G36*
G01*
X137350000Y-98425000D02*
X137100000Y-98425000D01*
G75*
G02*
X136975000Y-98300000I0J125000D01*
G01*
X136975000Y-96975000D01*
G75*
G02*
X137100000Y-96850000I125000J0D01*
G01*
X137350000Y-96850000D01*
G75*
G02*
X137475000Y-96975000I0J-125000D01*
G01*
X137475000Y-98300000D01*
G75*
G02*
X137350000Y-98425000I-125000J0D01*
G01*
G37*
G36*
G01*
X136700000Y-98425000D02*
X136450000Y-98425000D01*
G75*
G02*
X136325000Y-98300000I0J125000D01*
G01*
X136325000Y-96975000D01*
G75*
G02*
X136450000Y-96850000I125000J0D01*
G01*
X136700000Y-96850000D01*
G75*
G02*
X136825000Y-96975000I0J-125000D01*
G01*
X136825000Y-98300000D01*
G75*
G02*
X136700000Y-98425000I-125000J0D01*
G01*
G37*
D18*
X120250000Y-118510000D03*
D19*
X119000000Y-121000000D03*
X114500000Y-121000000D03*
D18*
X113240000Y-118510000D03*
G36*
G01*
X111450000Y-97370000D02*
X111450000Y-97020000D01*
G75*
G02*
X111625000Y-96845000I175000J0D01*
G01*
X113125000Y-96845000D01*
G75*
G02*
X113300000Y-97020000I0J-175000D01*
G01*
X113300000Y-97370000D01*
G75*
G02*
X113125000Y-97545000I-175000J0D01*
G01*
X111625000Y-97545000D01*
G75*
G02*
X111450000Y-97370000I0J175000D01*
G01*
G37*
G36*
G01*
X111450000Y-98640000D02*
X111450000Y-98290000D01*
G75*
G02*
X111625000Y-98115000I175000J0D01*
G01*
X113125000Y-98115000D01*
G75*
G02*
X113300000Y-98290000I0J-175000D01*
G01*
X113300000Y-98640000D01*
G75*
G02*
X113125000Y-98815000I-175000J0D01*
G01*
X111625000Y-98815000D01*
G75*
G02*
X111450000Y-98640000I0J175000D01*
G01*
G37*
G36*
G01*
X111450000Y-99910000D02*
X111450000Y-99560000D01*
G75*
G02*
X111625000Y-99385000I175000J0D01*
G01*
X113125000Y-99385000D01*
G75*
G02*
X113300000Y-99560000I0J-175000D01*
G01*
X113300000Y-99910000D01*
G75*
G02*
X113125000Y-100085000I-175000J0D01*
G01*
X111625000Y-100085000D01*
G75*
G02*
X111450000Y-99910000I0J175000D01*
G01*
G37*
G36*
G01*
X111450000Y-101180000D02*
X111450000Y-100830000D01*
G75*
G02*
X111625000Y-100655000I175000J0D01*
G01*
X113125000Y-100655000D01*
G75*
G02*
X113300000Y-100830000I0J-175000D01*
G01*
X113300000Y-101180000D01*
G75*
G02*
X113125000Y-101355000I-175000J0D01*
G01*
X111625000Y-101355000D01*
G75*
G02*
X111450000Y-101180000I0J175000D01*
G01*
G37*
G36*
G01*
X106300000Y-101180000D02*
X106300000Y-100830000D01*
G75*
G02*
X106475000Y-100655000I175000J0D01*
G01*
X107975000Y-100655000D01*
G75*
G02*
X108150000Y-100830000I0J-175000D01*
G01*
X108150000Y-101180000D01*
G75*
G02*
X107975000Y-101355000I-175000J0D01*
G01*
X106475000Y-101355000D01*
G75*
G02*
X106300000Y-101180000I0J175000D01*
G01*
G37*
G36*
G01*
X106300000Y-99910000D02*
X106300000Y-99560000D01*
G75*
G02*
X106475000Y-99385000I175000J0D01*
G01*
X107975000Y-99385000D01*
G75*
G02*
X108150000Y-99560000I0J-175000D01*
G01*
X108150000Y-99910000D01*
G75*
G02*
X107975000Y-100085000I-175000J0D01*
G01*
X106475000Y-100085000D01*
G75*
G02*
X106300000Y-99910000I0J175000D01*
G01*
G37*
G36*
G01*
X106300000Y-98640000D02*
X106300000Y-98290000D01*
G75*
G02*
X106475000Y-98115000I175000J0D01*
G01*
X107975000Y-98115000D01*
G75*
G02*
X108150000Y-98290000I0J-175000D01*
G01*
X108150000Y-98640000D01*
G75*
G02*
X107975000Y-98815000I-175000J0D01*
G01*
X106475000Y-98815000D01*
G75*
G02*
X106300000Y-98640000I0J175000D01*
G01*
G37*
G36*
G01*
X106300000Y-97370000D02*
X106300000Y-97020000D01*
G75*
G02*
X106475000Y-96845000I175000J0D01*
G01*
X107975000Y-96845000D01*
G75*
G02*
X108150000Y-97020000I0J-175000D01*
G01*
X108150000Y-97370000D01*
G75*
G02*
X107975000Y-97545000I-175000J0D01*
G01*
X106475000Y-97545000D01*
G75*
G02*
X106300000Y-97370000I0J175000D01*
G01*
G37*
X142250000Y-118510000D03*
D19*
X141000000Y-121000000D03*
X136500000Y-121000000D03*
D18*
X135240000Y-118510000D03*
X131250000Y-118510000D03*
D19*
X130000000Y-121000000D03*
X125500000Y-121000000D03*
D18*
X124240000Y-118510000D03*
X109250000Y-118510000D03*
D19*
X108000000Y-121000000D03*
X103500000Y-121000000D03*
D18*
X102240000Y-118510000D03*
G36*
G01*
X89137500Y-84076276D02*
X89137500Y-85083724D01*
G75*
G02*
X88866224Y-85355000I-271276J0D01*
G01*
X88133776Y-85355000D01*
G75*
G02*
X87862500Y-85083724I0J271276D01*
G01*
X87862500Y-84076276D01*
G75*
G02*
X88133776Y-83805000I271276J0D01*
G01*
X88866224Y-83805000D01*
G75*
G02*
X89137500Y-84076276I0J-271276D01*
G01*
G37*
G36*
G01*
X87062500Y-84076276D02*
X87062500Y-85083724D01*
G75*
G02*
X86791224Y-85355000I-271276J0D01*
G01*
X86058776Y-85355000D01*
G75*
G02*
X85787500Y-85083724I0J271276D01*
G01*
X85787500Y-84076276D01*
G75*
G02*
X86058776Y-83805000I271276J0D01*
G01*
X86791224Y-83805000D01*
G75*
G02*
X87062500Y-84076276I0J-271276D01*
G01*
G37*
G36*
G01*
X140600000Y-106603724D02*
X140600000Y-105596276D01*
G75*
G02*
X140871276Y-105325000I271276J0D01*
G01*
X141603724Y-105325000D01*
G75*
G02*
X141875000Y-105596276I0J-271276D01*
G01*
X141875000Y-106603724D01*
G75*
G02*
X141603724Y-106875000I-271276J0D01*
G01*
X140871276Y-106875000D01*
G75*
G02*
X140600000Y-106603724I0J271276D01*
G01*
G37*
G36*
G01*
X138525000Y-106603724D02*
X138525000Y-105596276D01*
G75*
G02*
X138796276Y-105325000I271276J0D01*
G01*
X139528724Y-105325000D01*
G75*
G02*
X139800000Y-105596276I0J-271276D01*
G01*
X139800000Y-106603724D01*
G75*
G02*
X139528724Y-106875000I-271276J0D01*
G01*
X138796276Y-106875000D01*
G75*
G02*
X138525000Y-106603724I0J271276D01*
G01*
G37*
G36*
G01*
X139900000Y-94496276D02*
X139900000Y-95503724D01*
G75*
G02*
X139628724Y-95775000I-271276J0D01*
G01*
X138896276Y-95775000D01*
G75*
G02*
X138625000Y-95503724I0J271276D01*
G01*
X138625000Y-94496276D01*
G75*
G02*
X138896276Y-94225000I271276J0D01*
G01*
X139628724Y-94225000D01*
G75*
G02*
X139900000Y-94496276I0J-271276D01*
G01*
G37*
G36*
G01*
X141975000Y-94496276D02*
X141975000Y-95503724D01*
G75*
G02*
X141703724Y-95775000I-271276J0D01*
G01*
X140971276Y-95775000D01*
G75*
G02*
X140700000Y-95503724I0J271276D01*
G01*
X140700000Y-94496276D01*
G75*
G02*
X140971276Y-94225000I271276J0D01*
G01*
X141703724Y-94225000D01*
G75*
G02*
X141975000Y-94496276I0J-271276D01*
G01*
G37*
G36*
G01*
X104162500Y-92896276D02*
X104162500Y-93903724D01*
G75*
G02*
X103891224Y-94175000I-271276J0D01*
G01*
X103158776Y-94175000D01*
G75*
G02*
X102887500Y-93903724I0J271276D01*
G01*
X102887500Y-92896276D01*
G75*
G02*
X103158776Y-92625000I271276J0D01*
G01*
X103891224Y-92625000D01*
G75*
G02*
X104162500Y-92896276I0J-271276D01*
G01*
G37*
G36*
G01*
X106237500Y-92896276D02*
X106237500Y-93903724D01*
G75*
G02*
X105966224Y-94175000I-271276J0D01*
G01*
X105233776Y-94175000D01*
G75*
G02*
X104962500Y-93903724I0J271276D01*
G01*
X104962500Y-92896276D01*
G75*
G02*
X105233776Y-92625000I271276J0D01*
G01*
X105966224Y-92625000D01*
G75*
G02*
X106237500Y-92896276I0J-271276D01*
G01*
G37*
G36*
G01*
X121975000Y-109596276D02*
X121975000Y-110603724D01*
G75*
G02*
X121703724Y-110875000I-271276J0D01*
G01*
X120971276Y-110875000D01*
G75*
G02*
X120700000Y-110603724I0J271276D01*
G01*
X120700000Y-109596276D01*
G75*
G02*
X120971276Y-109325000I271276J0D01*
G01*
X121703724Y-109325000D01*
G75*
G02*
X121975000Y-109596276I0J-271276D01*
G01*
G37*
G36*
G01*
X119900000Y-109596276D02*
X119900000Y-110603724D01*
G75*
G02*
X119628724Y-110875000I-271276J0D01*
G01*
X118896276Y-110875000D01*
G75*
G02*
X118625000Y-110603724I0J271276D01*
G01*
X118625000Y-109596276D01*
G75*
G02*
X118896276Y-109325000I271276J0D01*
G01*
X119628724Y-109325000D01*
G75*
G02*
X119900000Y-109596276I0J-271276D01*
G01*
G37*
G36*
G01*
X127712500Y-98996276D02*
X127712500Y-100003724D01*
G75*
G02*
X127441224Y-100275000I-271276J0D01*
G01*
X126708776Y-100275000D01*
G75*
G02*
X126437500Y-100003724I0J271276D01*
G01*
X126437500Y-98996276D01*
G75*
G02*
X126708776Y-98725000I271276J0D01*
G01*
X127441224Y-98725000D01*
G75*
G02*
X127712500Y-98996276I0J-271276D01*
G01*
G37*
G36*
G01*
X125637500Y-98996276D02*
X125637500Y-100003724D01*
G75*
G02*
X125366224Y-100275000I-271276J0D01*
G01*
X124633776Y-100275000D01*
G75*
G02*
X124362500Y-100003724I0J271276D01*
G01*
X124362500Y-98996276D01*
G75*
G02*
X124633776Y-98725000I271276J0D01*
G01*
X125366224Y-98725000D01*
G75*
G02*
X125637500Y-98996276I0J-271276D01*
G01*
G37*
G36*
G01*
X136850000Y-85400000D02*
X135150000Y-85400000D01*
G75*
G02*
X135100000Y-85350000I0J50000D01*
G01*
X135100000Y-83650000D01*
G75*
G02*
X135150000Y-83600000I50000J0D01*
G01*
X136850000Y-83600000D01*
G75*
G02*
X136900000Y-83650000I0J-50000D01*
G01*
X136900000Y-85350000D01*
G75*
G02*
X136850000Y-85400000I-50000J0D01*
G01*
G37*
D16*
X138540000Y-84500000D03*
X141080000Y-84500000D03*
X143620000Y-84500000D03*
X149900000Y-102640000D03*
X149900000Y-100100000D03*
X149900000Y-97560000D03*
G36*
G01*
X149000000Y-95870000D02*
X149000000Y-94170000D01*
G75*
G02*
X149050000Y-94120000I50000J0D01*
G01*
X150750000Y-94120000D01*
G75*
G02*
X150800000Y-94170000I0J-50000D01*
G01*
X150800000Y-95870000D01*
G75*
G02*
X150750000Y-95920000I-50000J0D01*
G01*
X149050000Y-95920000D01*
G75*
G02*
X149000000Y-95870000I0J50000D01*
G01*
G37*
G36*
G01*
X111479168Y-109450000D02*
X110520832Y-109450000D01*
G75*
G02*
X110250000Y-109179168I0J270832D01*
G01*
X110250000Y-108420832D01*
G75*
G02*
X110520832Y-108150000I270832J0D01*
G01*
X111479168Y-108150000D01*
G75*
G02*
X111750000Y-108420832I0J-270832D01*
G01*
X111750000Y-109179168D01*
G75*
G02*
X111479168Y-109450000I-270832J0D01*
G01*
G37*
G36*
G01*
X111479168Y-111450000D02*
X110520832Y-111450000D01*
G75*
G02*
X110250000Y-111179168I0J270832D01*
G01*
X110250000Y-110420832D01*
G75*
G02*
X110520832Y-110150000I270832J0D01*
G01*
X111479168Y-110150000D01*
G75*
G02*
X111750000Y-110420832I0J-270832D01*
G01*
X111750000Y-111179168D01*
G75*
G02*
X111479168Y-111450000I-270832J0D01*
G01*
G37*
G36*
G01*
X105879168Y-104850000D02*
X104920832Y-104850000D01*
G75*
G02*
X104650000Y-104579168I0J270832D01*
G01*
X104650000Y-103820832D01*
G75*
G02*
X104920832Y-103550000I270832J0D01*
G01*
X105879168Y-103550000D01*
G75*
G02*
X106150000Y-103820832I0J-270832D01*
G01*
X106150000Y-104579168D01*
G75*
G02*
X105879168Y-104850000I-270832J0D01*
G01*
G37*
G36*
G01*
X105879168Y-106850000D02*
X104920832Y-106850000D01*
G75*
G02*
X104650000Y-106579168I0J270832D01*
G01*
X104650000Y-105820832D01*
G75*
G02*
X104920832Y-105550000I270832J0D01*
G01*
X105879168Y-105550000D01*
G75*
G02*
X106150000Y-105820832I0J-270832D01*
G01*
X106150000Y-106579168D01*
G75*
G02*
X105879168Y-106850000I-270832J0D01*
G01*
G37*
G36*
G01*
X115260832Y-109410000D02*
X116219168Y-109410000D01*
G75*
G02*
X116490000Y-109680832I0J-270832D01*
G01*
X116490000Y-110439168D01*
G75*
G02*
X116219168Y-110710000I-270832J0D01*
G01*
X115260832Y-110710000D01*
G75*
G02*
X114990000Y-110439168I0J270832D01*
G01*
X114990000Y-109680832D01*
G75*
G02*
X115260832Y-109410000I270832J0D01*
G01*
G37*
G36*
G01*
X115260832Y-107410000D02*
X116219168Y-107410000D01*
G75*
G02*
X116490000Y-107680832I0J-270832D01*
G01*
X116490000Y-108439168D01*
G75*
G02*
X116219168Y-108710000I-270832J0D01*
G01*
X115260832Y-108710000D01*
G75*
G02*
X114990000Y-108439168I0J270832D01*
G01*
X114990000Y-107680832D01*
G75*
G02*
X115260832Y-107410000I270832J0D01*
G01*
G37*
G36*
G01*
X121950000Y-106020832D02*
X121950000Y-106979168D01*
G75*
G02*
X121679168Y-107250000I-270832J0D01*
G01*
X120920832Y-107250000D01*
G75*
G02*
X120650000Y-106979168I0J270832D01*
G01*
X120650000Y-106020832D01*
G75*
G02*
X120920832Y-105750000I270832J0D01*
G01*
X121679168Y-105750000D01*
G75*
G02*
X121950000Y-106020832I0J-270832D01*
G01*
G37*
G36*
G01*
X119950000Y-106020832D02*
X119950000Y-106979168D01*
G75*
G02*
X119679168Y-107250000I-270832J0D01*
G01*
X118920832Y-107250000D01*
G75*
G02*
X118650000Y-106979168I0J270832D01*
G01*
X118650000Y-106020832D01*
G75*
G02*
X118920832Y-105750000I270832J0D01*
G01*
X119679168Y-105750000D01*
G75*
G02*
X119950000Y-106020832I0J-270832D01*
G01*
G37*
D20*
X126700000Y-93300000D03*
X113500000Y-93300000D03*
G36*
G01*
X90350000Y-90060000D02*
X86550000Y-90060000D01*
G75*
G02*
X86500000Y-90010000I0J50000D01*
G01*
X86500000Y-88010000D01*
G75*
G02*
X86550000Y-87960000I50000J0D01*
G01*
X90350000Y-87960000D01*
G75*
G02*
X90400000Y-88010000I0J-50000D01*
G01*
X90400000Y-90010000D01*
G75*
G02*
X90350000Y-90060000I-50000J0D01*
G01*
G37*
G36*
G01*
X89200000Y-96360000D02*
X87700000Y-96360000D01*
G75*
G02*
X87650000Y-96310000I0J50000D01*
G01*
X87650000Y-94310000D01*
G75*
G02*
X87700000Y-94260000I50000J0D01*
G01*
X89200000Y-94260000D01*
G75*
G02*
X89250000Y-94310000I0J-50000D01*
G01*
X89250000Y-96310000D01*
G75*
G02*
X89200000Y-96360000I-50000J0D01*
G01*
G37*
G36*
G01*
X91500000Y-96360000D02*
X90000000Y-96360000D01*
G75*
G02*
X89950000Y-96310000I0J50000D01*
G01*
X89950000Y-94310000D01*
G75*
G02*
X90000000Y-94260000I50000J0D01*
G01*
X91500000Y-94260000D01*
G75*
G02*
X91550000Y-94310000I0J-50000D01*
G01*
X91550000Y-96310000D01*
G75*
G02*
X91500000Y-96360000I-50000J0D01*
G01*
G37*
G36*
G01*
X86900000Y-96360000D02*
X85400000Y-96360000D01*
G75*
G02*
X85350000Y-96310000I0J50000D01*
G01*
X85350000Y-94310000D01*
G75*
G02*
X85400000Y-94260000I50000J0D01*
G01*
X86900000Y-94260000D01*
G75*
G02*
X86950000Y-94310000I0J-50000D01*
G01*
X86950000Y-96310000D01*
G75*
G02*
X86900000Y-96360000I-50000J0D01*
G01*
G37*
G36*
G01*
X97920000Y-93575000D02*
X97920000Y-92925000D01*
G75*
G02*
X97970000Y-92875000I50000J0D01*
G01*
X99030000Y-92875000D01*
G75*
G02*
X99080000Y-92925000I0J-50000D01*
G01*
X99080000Y-93575000D01*
G75*
G02*
X99030000Y-93625000I-50000J0D01*
G01*
X97970000Y-93625000D01*
G75*
G02*
X97920000Y-93575000I0J50000D01*
G01*
G37*
G36*
G01*
X97920000Y-94525000D02*
X97920000Y-93875000D01*
G75*
G02*
X97970000Y-93825000I50000J0D01*
G01*
X99030000Y-93825000D01*
G75*
G02*
X99080000Y-93875000I0J-50000D01*
G01*
X99080000Y-94525000D01*
G75*
G02*
X99030000Y-94575000I-50000J0D01*
G01*
X97970000Y-94575000D01*
G75*
G02*
X97920000Y-94525000I0J50000D01*
G01*
G37*
G36*
G01*
X97920000Y-95475000D02*
X97920000Y-94825000D01*
G75*
G02*
X97970000Y-94775000I50000J0D01*
G01*
X99030000Y-94775000D01*
G75*
G02*
X99080000Y-94825000I0J-50000D01*
G01*
X99080000Y-95475000D01*
G75*
G02*
X99030000Y-95525000I-50000J0D01*
G01*
X97970000Y-95525000D01*
G75*
G02*
X97920000Y-95475000I0J50000D01*
G01*
G37*
G36*
G01*
X100120000Y-95475000D02*
X100120000Y-94825000D01*
G75*
G02*
X100170000Y-94775000I50000J0D01*
G01*
X101230000Y-94775000D01*
G75*
G02*
X101280000Y-94825000I0J-50000D01*
G01*
X101280000Y-95475000D01*
G75*
G02*
X101230000Y-95525000I-50000J0D01*
G01*
X100170000Y-95525000D01*
G75*
G02*
X100120000Y-95475000I0J50000D01*
G01*
G37*
G36*
G01*
X100120000Y-93575000D02*
X100120000Y-92925000D01*
G75*
G02*
X100170000Y-92875000I50000J0D01*
G01*
X101230000Y-92875000D01*
G75*
G02*
X101280000Y-92925000I0J-50000D01*
G01*
X101280000Y-93575000D01*
G75*
G02*
X101230000Y-93625000I-50000J0D01*
G01*
X100170000Y-93625000D01*
G75*
G02*
X100120000Y-93575000I0J50000D01*
G01*
G37*
G36*
G01*
X100120000Y-94525000D02*
X100120000Y-93875000D01*
G75*
G02*
X100170000Y-93825000I50000J0D01*
G01*
X101230000Y-93825000D01*
G75*
G02*
X101280000Y-93875000I0J-50000D01*
G01*
X101280000Y-94525000D01*
G75*
G02*
X101230000Y-94575000I-50000J0D01*
G01*
X100170000Y-94575000D01*
G75*
G02*
X100120000Y-94525000I0J50000D01*
G01*
G37*
G36*
G01*
X120775000Y-98770000D02*
X121425000Y-98770000D01*
G75*
G02*
X121475000Y-98820000I0J-50000D01*
G01*
X121475000Y-100380000D01*
G75*
G02*
X121425000Y-100430000I-50000J0D01*
G01*
X120775000Y-100430000D01*
G75*
G02*
X120725000Y-100380000I0J50000D01*
G01*
X120725000Y-98820000D01*
G75*
G02*
X120775000Y-98770000I50000J0D01*
G01*
G37*
G36*
G01*
X119825000Y-98770000D02*
X120475000Y-98770000D01*
G75*
G02*
X120525000Y-98820000I0J-50000D01*
G01*
X120525000Y-100380000D01*
G75*
G02*
X120475000Y-100430000I-50000J0D01*
G01*
X119825000Y-100430000D01*
G75*
G02*
X119775000Y-100380000I0J50000D01*
G01*
X119775000Y-98820000D01*
G75*
G02*
X119825000Y-98770000I50000J0D01*
G01*
G37*
G36*
G01*
X118875000Y-98770000D02*
X119525000Y-98770000D01*
G75*
G02*
X119575000Y-98820000I0J-50000D01*
G01*
X119575000Y-100380000D01*
G75*
G02*
X119525000Y-100430000I-50000J0D01*
G01*
X118875000Y-100430000D01*
G75*
G02*
X118825000Y-100380000I0J50000D01*
G01*
X118825000Y-98820000D01*
G75*
G02*
X118875000Y-98770000I50000J0D01*
G01*
G37*
G36*
G01*
X118875000Y-101470000D02*
X119525000Y-101470000D01*
G75*
G02*
X119575000Y-101520000I0J-50000D01*
G01*
X119575000Y-103080000D01*
G75*
G02*
X119525000Y-103130000I-50000J0D01*
G01*
X118875000Y-103130000D01*
G75*
G02*
X118825000Y-103080000I0J50000D01*
G01*
X118825000Y-101520000D01*
G75*
G02*
X118875000Y-101470000I50000J0D01*
G01*
G37*
G36*
G01*
X120775000Y-101470000D02*
X121425000Y-101470000D01*
G75*
G02*
X121475000Y-101520000I0J-50000D01*
G01*
X121475000Y-103080000D01*
G75*
G02*
X121425000Y-103130000I-50000J0D01*
G01*
X120775000Y-103130000D01*
G75*
G02*
X120725000Y-103080000I0J50000D01*
G01*
X120725000Y-101520000D01*
G75*
G02*
X120775000Y-101470000I50000J0D01*
G01*
G37*
G36*
G01*
X97300000Y-101055770D02*
X97300000Y-99744230D01*
G75*
G02*
X97569230Y-99475000I269230J0D01*
G01*
X98430770Y-99475000D01*
G75*
G02*
X98700000Y-99744230I0J-269230D01*
G01*
X98700000Y-101055770D01*
G75*
G02*
X98430770Y-101325000I-269230J0D01*
G01*
X97569230Y-101325000D01*
G75*
G02*
X97300000Y-101055770I0J269230D01*
G01*
G37*
G36*
G01*
X100400000Y-101055770D02*
X100400000Y-99744230D01*
G75*
G02*
X100669230Y-99475000I269230J0D01*
G01*
X101530770Y-99475000D01*
G75*
G02*
X101800000Y-99744230I0J-269230D01*
G01*
X101800000Y-101055770D01*
G75*
G02*
X101530770Y-101325000I-269230J0D01*
G01*
X100669230Y-101325000D01*
G75*
G02*
X100400000Y-101055770I0J269230D01*
G01*
G37*
D15*
X104890000Y-75400000D03*
X93890000Y-75400000D03*
G36*
G01*
X100090000Y-87150000D02*
X100090000Y-83650000D01*
G75*
G02*
X100140000Y-83600000I50000J0D01*
G01*
X103640000Y-83600000D01*
G75*
G02*
X103690000Y-83650000I0J-50000D01*
G01*
X103690000Y-87150000D01*
G75*
G02*
X103640000Y-87200000I-50000J0D01*
G01*
X100140000Y-87200000D01*
G75*
G02*
X100090000Y-87150000I0J50000D01*
G01*
G37*
D21*
X96890000Y-85400000D03*
G36*
G01*
X119000000Y-94150000D02*
X119000000Y-92450000D01*
G75*
G02*
X119050000Y-92400000I50000J0D01*
G01*
X120750000Y-92400000D01*
G75*
G02*
X120800000Y-92450000I0J-50000D01*
G01*
X120800000Y-94150000D01*
G75*
G02*
X120750000Y-94200000I-50000J0D01*
G01*
X119050000Y-94200000D01*
G75*
G02*
X119000000Y-94150000I0J50000D01*
G01*
G37*
G36*
G01*
X136350000Y-112200000D02*
X138050000Y-112200000D01*
G75*
G02*
X138100000Y-112250000I0J-50000D01*
G01*
X138100000Y-113950000D01*
G75*
G02*
X138050000Y-114000000I-50000J0D01*
G01*
X136350000Y-114000000D01*
G75*
G02*
X136300000Y-113950000I0J50000D01*
G01*
X136300000Y-112250000D01*
G75*
G02*
X136350000Y-112200000I50000J0D01*
G01*
G37*
D16*
X134660000Y-113100000D03*
X132120000Y-113100000D03*
X129580000Y-113100000D03*
X127040000Y-113100000D03*
G36*
G01*
X149000000Y-111050000D02*
X149000000Y-109350000D01*
G75*
G02*
X149050000Y-109300000I50000J0D01*
G01*
X150750000Y-109300000D01*
G75*
G02*
X150800000Y-109350000I0J-50000D01*
G01*
X150800000Y-111050000D01*
G75*
G02*
X150750000Y-111100000I-50000J0D01*
G01*
X149050000Y-111100000D01*
G75*
G02*
X149000000Y-111050000I0J50000D01*
G01*
G37*
G36*
G01*
X108600000Y-110250000D02*
X108600000Y-111050000D01*
G75*
G02*
X108550000Y-111100000I-50000J0D01*
G01*
X106650000Y-111100000D01*
G75*
G02*
X106600000Y-111050000I0J50000D01*
G01*
X106600000Y-110250000D01*
G75*
G02*
X106650000Y-110200000I50000J0D01*
G01*
X108550000Y-110200000D01*
G75*
G02*
X108600000Y-110250000I0J-50000D01*
G01*
G37*
G36*
G01*
X108600000Y-108350000D02*
X108600000Y-109150000D01*
G75*
G02*
X108550000Y-109200000I-50000J0D01*
G01*
X106650000Y-109200000D01*
G75*
G02*
X106600000Y-109150000I0J50000D01*
G01*
X106600000Y-108350000D01*
G75*
G02*
X106650000Y-108300000I50000J0D01*
G01*
X108550000Y-108300000D01*
G75*
G02*
X108600000Y-108350000I0J-50000D01*
G01*
G37*
G36*
G01*
X105600000Y-109300000D02*
X105600000Y-110100000D01*
G75*
G02*
X105550000Y-110150000I-50000J0D01*
G01*
X103650000Y-110150000D01*
G75*
G02*
X103600000Y-110100000I0J50000D01*
G01*
X103600000Y-109300000D01*
G75*
G02*
X103650000Y-109250000I50000J0D01*
G01*
X105550000Y-109250000D01*
G75*
G02*
X105600000Y-109300000I0J-50000D01*
G01*
G37*
M02*
