M48
; DRILL file {KiCad 5.1.10} date Sun Aug  8 14:00:20 2021
; FORMAT={-:-/ absolute / metric / decimal}
; #@! TF.CreationDate,2021-08-08T14:00:20+01:00
; #@! TF.GenerationSoftware,Kicad,Pcbnew,5.1.10
; #@! TF.FileFunction,Plated,1,2,PTH
FMAT,2
METRIC
T1C0.200
T2C0.400
T3C0.900
T4C0.990
T5C1.000
T6C1.300
T7C1.900
T8C2.000
T9C3.200
%
G90
G05
T1
X85.4Y-99.1
X94.3Y-104.2
X95.6Y-113.4
X99.6Y-97.0
X99.6Y-100.4
X101.3Y-90.1
X102.3Y-95.2
X109.4Y-97.4
X109.4Y-98.3
X109.4Y-99.2
X109.4Y-100.1
X109.4Y-101.0
X109.4Y-109.6
X111.1Y-105.15
X113.4Y-107.4
X114.9Y-103.4
X116.2Y-106.3
X117.5Y-100.3
X121.7Y-104.05
X124.7Y-102.3
X125.4Y-106.4
X127.7Y-101.1
X128.62Y-99.38
X129.6Y-100.0
X132.8Y-100.4
X132.8Y-105.15
X133.1Y-108.6
X135.6Y-109.9
X136.3Y-107.5
X136.8Y-101.2
X137.6Y-101.8
X137.764Y-100.55
X138.5Y-104.8
X138.52Y-101.65
X140.015Y-102.05
X140.4Y-100.6
X140.86Y-101.9
X141.4Y-107.8
X141.475Y-98.838
X141.924Y-99.8
X142.1Y-109.4
X142.6Y-108.6
X142.8Y-95.0
X143.45Y-100.07
X144.15Y-101.88
X144.5Y-90.0
X145.1Y-104.8
T2
X88.45Y-91.85
X100.3Y-107.6
X101.6Y-91.6
X122.6Y-96.8
X133.8Y-96.8
X134.3Y-106.2
X137.7Y-106.2
X138.8Y-93.3
T3
X93.0Y-119.5
X93.0Y-122.8
X95.5Y-119.5
X95.5Y-122.8
X98.0Y-119.5
X98.0Y-122.8
T4
X103.5Y-121.0
X108.0Y-121.0
X114.5Y-121.0
X119.0Y-121.0
X125.5Y-121.0
X130.0Y-121.0
X136.5Y-121.0
X141.0Y-121.0
T5
X86.9Y-107.6
X89.44Y-107.6
X91.98Y-107.6
X93.89Y-75.4
X94.52Y-107.6
X104.89Y-75.4
X119.9Y-93.3
X127.04Y-113.1
X129.58Y-113.1
X132.12Y-113.1
X134.66Y-113.1
X136.0Y-84.5
X137.2Y-113.1
X138.54Y-84.5
X141.08Y-84.5
X143.62Y-84.5
X149.9Y-95.02
X149.9Y-97.56
X149.9Y-100.1
X149.9Y-102.64
X149.9Y-110.2
T6
X102.24Y-118.51
X109.25Y-118.51
X113.24Y-118.51
X120.25Y-118.51
X124.24Y-118.51
X131.25Y-118.51
X135.24Y-118.51
X142.25Y-118.51
T7
X96.89Y-85.4
X101.89Y-85.4
T8
X113.5Y-93.3
X126.7Y-93.3
T9
X87.0Y-78.0
X87.0Y-120.0
X149.0Y-78.0
X149.0Y-120.0
T0
M30
