G04 #@! TF.GenerationSoftware,KiCad,Pcbnew,5.1.10*
G04 #@! TF.CreationDate,2021-08-08T14:06:15+01:00*
G04 #@! TF.ProjectId,JBC controller,4a424320-636f-46e7-9472-6f6c6c65722e,rev?*
G04 #@! TF.SameCoordinates,Original*
G04 #@! TF.FileFunction,Legend,Bot*
G04 #@! TF.FilePolarity,Positive*
%FSLAX46Y46*%
G04 Gerber Fmt 4.6, Leading zero omitted, Abs format (unit mm)*
G04 Created by KiCad (PCBNEW 5.1.10) date 2021-08-08 14:06:15*
%MOMM*%
%LPD*%
G01*
G04 APERTURE LIST*
%ADD10C,0.150000*%
%ADD11C,1.500000*%
%ADD12O,1.800000X1.800000*%
%ADD13C,5.700000*%
%ADD14C,2.200000*%
%ADD15C,1.850000*%
%ADD16C,4.100000*%
%ADD17C,3.600000*%
G04 APERTURE END LIST*
D10*
X108719047Y-112952380D02*
X108719047Y-113666666D01*
X108766666Y-113809523D01*
X108861904Y-113904761D01*
X109004761Y-113952380D01*
X109100000Y-113952380D01*
X107766666Y-113952380D02*
X108242857Y-113952380D01*
X108242857Y-112952380D01*
X106861904Y-113857142D02*
X106909523Y-113904761D01*
X107052380Y-113952380D01*
X107147619Y-113952380D01*
X107290476Y-113904761D01*
X107385714Y-113809523D01*
X107433333Y-113714285D01*
X107480952Y-113523809D01*
X107480952Y-113380952D01*
X107433333Y-113190476D01*
X107385714Y-113095238D01*
X107290476Y-113000000D01*
X107147619Y-112952380D01*
X107052380Y-112952380D01*
X106909523Y-113000000D01*
X106861904Y-113047619D01*
X106147619Y-112952380D02*
X106147619Y-113666666D01*
X106195238Y-113809523D01*
X106290476Y-113904761D01*
X106433333Y-113952380D01*
X106528571Y-113952380D01*
X105195238Y-113952380D02*
X105671428Y-113952380D01*
X105671428Y-112952380D01*
X104290476Y-113857142D02*
X104338095Y-113904761D01*
X104480952Y-113952380D01*
X104576190Y-113952380D01*
X104719047Y-113904761D01*
X104814285Y-113809523D01*
X104861904Y-113714285D01*
X104909523Y-113523809D01*
X104909523Y-113380952D01*
X104861904Y-113190476D01*
X104814285Y-113095238D01*
X104719047Y-113000000D01*
X104576190Y-112952380D01*
X104480952Y-112952380D01*
X104338095Y-113000000D01*
X104290476Y-113047619D01*
X103576190Y-112952380D02*
X103576190Y-113666666D01*
X103623809Y-113809523D01*
X103719047Y-113904761D01*
X103861904Y-113952380D01*
X103957142Y-113952380D01*
X102623809Y-113952380D02*
X103100000Y-113952380D01*
X103100000Y-112952380D01*
X101719047Y-113857142D02*
X101766666Y-113904761D01*
X101909523Y-113952380D01*
X102004761Y-113952380D01*
X102147619Y-113904761D01*
X102242857Y-113809523D01*
X102290476Y-113714285D01*
X102338095Y-113523809D01*
X102338095Y-113380952D01*
X102290476Y-113190476D01*
X102242857Y-113095238D01*
X102147619Y-113000000D01*
X102004761Y-112952380D01*
X101909523Y-112952380D01*
X101766666Y-113000000D01*
X101719047Y-113047619D01*
X101004761Y-112952380D02*
X101004761Y-113666666D01*
X101052380Y-113809523D01*
X101147619Y-113904761D01*
X101290476Y-113952380D01*
X101385714Y-113952380D01*
X100052380Y-113952380D02*
X100528571Y-113952380D01*
X100528571Y-112952380D01*
X99147619Y-113857142D02*
X99195238Y-113904761D01*
X99338095Y-113952380D01*
X99433333Y-113952380D01*
X99576190Y-113904761D01*
X99671428Y-113809523D01*
X99719047Y-113714285D01*
X99766666Y-113523809D01*
X99766666Y-113380952D01*
X99719047Y-113190476D01*
X99671428Y-113095238D01*
X99576190Y-113000000D01*
X99433333Y-112952380D01*
X99338095Y-112952380D01*
X99195238Y-113000000D01*
X99147619Y-113047619D01*
%LPC*%
D11*
X98000000Y-122800000D03*
X95500000Y-122800000D03*
X93000000Y-122800000D03*
X98000000Y-119500000D03*
X95500000Y-119500000D03*
G36*
G01*
X92250000Y-120200000D02*
X92250000Y-118800000D01*
G75*
G02*
X92300000Y-118750000I50000J0D01*
G01*
X93700000Y-118750000D01*
G75*
G02*
X93750000Y-118800000I0J-50000D01*
G01*
X93750000Y-120200000D01*
G75*
G02*
X93700000Y-120250000I-50000J0D01*
G01*
X92300000Y-120250000D01*
G75*
G02*
X92250000Y-120200000I0J50000D01*
G01*
G37*
G36*
G01*
X87750000Y-108500000D02*
X86050000Y-108500000D01*
G75*
G02*
X86000000Y-108450000I0J50000D01*
G01*
X86000000Y-106750000D01*
G75*
G02*
X86050000Y-106700000I50000J0D01*
G01*
X87750000Y-106700000D01*
G75*
G02*
X87800000Y-106750000I0J-50000D01*
G01*
X87800000Y-108450000D01*
G75*
G02*
X87750000Y-108500000I-50000J0D01*
G01*
G37*
D12*
X89440000Y-107600000D03*
X91980000Y-107600000D03*
X94520000Y-107600000D03*
D13*
X87000000Y-78000000D03*
X149000000Y-78000000D03*
X149000000Y-120000000D03*
X87000000Y-120000000D03*
D14*
X120250000Y-118510000D03*
D15*
X119000000Y-121000000D03*
X114500000Y-121000000D03*
D14*
X113240000Y-118510000D03*
X142250000Y-118510000D03*
D15*
X141000000Y-121000000D03*
X136500000Y-121000000D03*
D14*
X135240000Y-118510000D03*
X131250000Y-118510000D03*
D15*
X130000000Y-121000000D03*
X125500000Y-121000000D03*
D14*
X124240000Y-118510000D03*
X109250000Y-118510000D03*
D15*
X108000000Y-121000000D03*
X103500000Y-121000000D03*
D14*
X102240000Y-118510000D03*
G36*
G01*
X136850000Y-85400000D02*
X135150000Y-85400000D01*
G75*
G02*
X135100000Y-85350000I0J50000D01*
G01*
X135100000Y-83650000D01*
G75*
G02*
X135150000Y-83600000I50000J0D01*
G01*
X136850000Y-83600000D01*
G75*
G02*
X136900000Y-83650000I0J-50000D01*
G01*
X136900000Y-85350000D01*
G75*
G02*
X136850000Y-85400000I-50000J0D01*
G01*
G37*
D12*
X138540000Y-84500000D03*
X141080000Y-84500000D03*
X143620000Y-84500000D03*
X149900000Y-102640000D03*
X149900000Y-100100000D03*
X149900000Y-97560000D03*
G36*
G01*
X149000000Y-95870000D02*
X149000000Y-94170000D01*
G75*
G02*
X149050000Y-94120000I50000J0D01*
G01*
X150750000Y-94120000D01*
G75*
G02*
X150800000Y-94170000I0J-50000D01*
G01*
X150800000Y-95870000D01*
G75*
G02*
X150750000Y-95920000I-50000J0D01*
G01*
X149050000Y-95920000D01*
G75*
G02*
X149000000Y-95870000I0J50000D01*
G01*
G37*
D16*
X126700000Y-93300000D03*
X113500000Y-93300000D03*
D11*
X104890000Y-75400000D03*
X93890000Y-75400000D03*
G36*
G01*
X100090000Y-87150000D02*
X100090000Y-83650000D01*
G75*
G02*
X100140000Y-83600000I50000J0D01*
G01*
X103640000Y-83600000D01*
G75*
G02*
X103690000Y-83650000I0J-50000D01*
G01*
X103690000Y-87150000D01*
G75*
G02*
X103640000Y-87200000I-50000J0D01*
G01*
X100140000Y-87200000D01*
G75*
G02*
X100090000Y-87150000I0J50000D01*
G01*
G37*
D17*
X96890000Y-85400000D03*
G36*
G01*
X119000000Y-94150000D02*
X119000000Y-92450000D01*
G75*
G02*
X119050000Y-92400000I50000J0D01*
G01*
X120750000Y-92400000D01*
G75*
G02*
X120800000Y-92450000I0J-50000D01*
G01*
X120800000Y-94150000D01*
G75*
G02*
X120750000Y-94200000I-50000J0D01*
G01*
X119050000Y-94200000D01*
G75*
G02*
X119000000Y-94150000I0J50000D01*
G01*
G37*
G36*
G01*
X136350000Y-112200000D02*
X138050000Y-112200000D01*
G75*
G02*
X138100000Y-112250000I0J-50000D01*
G01*
X138100000Y-113950000D01*
G75*
G02*
X138050000Y-114000000I-50000J0D01*
G01*
X136350000Y-114000000D01*
G75*
G02*
X136300000Y-113950000I0J50000D01*
G01*
X136300000Y-112250000D01*
G75*
G02*
X136350000Y-112200000I50000J0D01*
G01*
G37*
D12*
X134660000Y-113100000D03*
X132120000Y-113100000D03*
X129580000Y-113100000D03*
X127040000Y-113100000D03*
G36*
G01*
X149000000Y-111050000D02*
X149000000Y-109350000D01*
G75*
G02*
X149050000Y-109300000I50000J0D01*
G01*
X150750000Y-109300000D01*
G75*
G02*
X150800000Y-109350000I0J-50000D01*
G01*
X150800000Y-111050000D01*
G75*
G02*
X150750000Y-111100000I-50000J0D01*
G01*
X149050000Y-111100000D01*
G75*
G02*
X149000000Y-111050000I0J50000D01*
G01*
G37*
M02*
